<svg width="147" height="21" fill="none" xmlns="http://www.w3.org/2000/svg"><path d="M93.104 16.911c-3.07.699-4.706-.606-4.706-3.768V.092h-3.345c.018 3.033-.018 12.83.147 14.687.35 3.934 4.485 6.323 8.217 4.834v-2.775s-.24.037-.313.073zM147 5.533h-4.54l-6.802 5.165-6.819-5.165h-4.541l9.081 6.893-9.081 6.893h4.541l6.819-5.183 6.802 5.183H147l-9.081-6.893L147 5.533zm-79.152-.735c-2.996 0-5.57.79-7.445 2.058V0h-3.198v12.316c0 4.173 2.39 7.684 10.661 7.684 6.93 0 10.386-3.511 10.386-7.684s-3.493-7.518-10.404-7.518zm-.019 12.61c-5.57 0-7.426-2.39-7.426-5.11 0-2.776 3.254-4.945 7.426-4.945 4.504 0 7.188 1.838 7.188 4.944 0 3.162-2.758 5.11-7.188 5.11zM49.65 9.19c.018-1.286-.515-2.26-1.6-2.885-.662-.368-1.36-.699-2.095-.882-3.162-.81-6.36-.846-9.559-.405-1.912.258-3.713.772-5.22 2.059-.864.735-1.434 1.636-1.453 2.978h3.29c1.361-3.456 7.997-2.776 10.331-2.482.717.092 2.703.588 2.703 1.636 0 .827-1.6 1.14-2.04 1.195-2.611.33-5.24.533-7.831.938-1.747.275-3.53.588-5.13 1.268-2.572 1.103-2.756 4.356-.422 5.919.772.515 1.71.882 2.61 1.048 4.54.79 8.934.661 12.941-2.188.055.552.092 2.17.313 2.17.974.073 2.408 0 3.327 0-.074-1.361-.166-2.648-.184-3.916-.018-2.17-.018-4.302.018-6.452zm-5.92 7.06c-2.812 1.47-5.808 1.782-8.915 1.286a3.007 3.007 0 01-1.03-.367c-.734-.386-1.176-.956-1.139-1.839.037-.864.662-1.286 1.342-1.415 1.746-.33 3.493-.551 5.257-.772 2.261-.276 4.577-.313 6.728-1.305.533 2.206-.496 3.492-2.243 4.412zm65.918-11.452c-6.195 0-10.661 3.345-10.661 7.518 0 4.172 2.389 7.683 10.661 7.683 5.349 0 8.64-2.113 9.853-4.981h-3.548c-1.14 1.526-3.345 2.408-6.323 2.408-3.585 0-5.625-.993-6.636-2.408a4.472 4.472 0 01-.68-1.58v-.02h17.646c.055-.348.092-.716.092-1.084 0-.423-.037-.845-.11-1.25-.643-3.603-4.081-6.286-10.294-6.286zm-7.187 6.25c.809-2.151 3.676-3.695 7.187-3.695 3.86 0 6.379 1.36 7.022 3.694h-14.209zM11.544 17.72c-6.048 0-8.051-2.481-8.051-5.275 0-2.868 3.529-5.11 8.05-5.11 3.622 0 6.361.937 7.023 2.904h3.897c-1.103-3.217-4.743-5.552-10.92-5.552C4.854 4.688 0 8.143 0 12.445c0 4.301 2.592 7.922 11.562 7.922 6.544 0 10.239-2.757 11.085-6.305h-4.063c-.588 2.61-3.088 3.658-7.04 3.658z" fill="#5A667B"/></svg>