<svg width="146" height="43" fill="none" xmlns="http://www.w3.org/2000/svg"><path d="M.616 0v18.463h11.04a15.233 15.233 0 007.765-1.436 9.014 9.014 0 003.172-3.412A8.752 8.752 0 0023.6 9.114C23.6 3.394 19.865 0 12.786 0H.616zm129.015.017c-3.222 0-4.696.718-4.696 3.344v1.038a3.45 3.45 0 00.46 1.587c.28.485.674.9 1.151 1.207l-3.841 2.257c-1.714.97-2.347 1.538-2.347 3.428v1.223c0 3.462 1.164 4.362 4.729 4.362h6.771c.639.086 1.289.03 1.903-.16a4.365 4.365 0 001.647-.942l1.713-1.472 3.119 2.575H146l-5.982-4.9 4.351-3.545-2.485-2.108-4.405 3.58-8.928-7.225V2.943h6.171v2.474l3.427-.566V3.73c0-3.01-1.286-3.712-4.697-3.712h-3.821zm-32.277 3.26c-3.034 0-4.06.72-4.06 3.58v1.672c0 2.86 1.026 3.58 4.06 3.58H107.4v3.58H95.985v-1.672l-3.43.601v.233c0 2.827.995 3.58 4.064 3.58h10.078c3.085 0 4.027-.753 4.027-3.58v-2.04c0-2.86-.959-3.577-4.027-3.577H96.688v-3.18h10.678v1.423l3.255-.688v-.165c0-2.643-1.215-3.348-4.06-3.348h-9.207zm-92.333.019h7.798c4.148 0 6.24 2.007 6.24 5.753 0 4.583-2.794 5.938-8.364 5.938H5.02V3.296zm23.053.048v15.119h3.739v-5.717h3.546l6.48 5.717h5.415l-7.368-5.717h2.125c2.485 0 3.632-.82 3.632-2.895v-3.58c0-2.107-1.13-2.927-3.632-2.927H28.074zm22.799 0v15.12h16.813v-2.827H54.677v-3.713h7.474v-2.61h-7.474V6.022h12.82V3.344H50.873zm21.184 0v15.12H88.89v-2.827H75.878v-3.713h7.474v-2.61h-7.474V6.022h12.823V3.344H72.057zM31.863 5.886h8.57v.068c1.131 0 1.714.216 1.714 1.22v1.675c0 1.003-.583 1.219-1.714 1.219h-8.57V5.886zm97.029 3.28l5.674 4.615-1.713 1.471h-8.76V12.11l4.799-2.943zM5.468 24.537c-3.548 0-4.696.884-4.696 4.363v2.04c0 3.463 1.131 4.366 4.696 4.366h11.809v4.218H3.89V37.53L0 38.317v.301c0 3.462 1.164 4.366 4.73 4.366h11.692c3.548 0 4.73-.887 4.73-4.366v-2.526c0-3.462-1.165-4.362-4.73-4.362H4.61v-3.982h12.392v2.005l3.89-.886v-.284c0-3.178-1.319-4.046-4.696-4.046H5.468zm121.078 3.276v15.171h3.718v-5.721h3.55l6.479 5.72h5.399l-7.371-5.72h2.227c2.485 0 3.632-.817 3.632-2.891V30.74c0-2.108-1.129-2.927-3.632-2.927h-14.002zm-96.758.052c-3.102 0-4.113.686-4.113 3.58h.037v7.975c0 2.86.976 3.58 4.112 3.58h12.22c3.102 0 4.113-.72 4.113-3.58v-7.975c0-2.894-1.01-3.58-4.113-3.58H29.788zm21.204 0v15.119h3.546V32.832l7.132 8.328h.753l7.062-8.58v10.404h3.583v-15.12h-3.102l-7.696 8.982-7.732-8.981h-3.546zm27.302 0v15.119h3.533V32.832l7.146 8.328h.739l7.062-8.58v10.404h3.6v-15.12h-3.106l-7.695 8.982-7.746-8.981h-3.533zm27.117 0v15.119h17.158v-2.827h-13.267v-3.712h7.626v-2.61h-7.626v-3.296h13.078v-2.674h-16.969zm24.853 2.542h8.571v.068c1.131 0 1.713.215 1.713 1.219v1.672c0 1.003-.582 1.222-1.713 1.222h-8.571v-4.181zm-100.595.252h12.753v9.43H29.669v-9.43z" fill="#5A667B"/></svg>