<svg width="146" height="20" fill="none" xmlns="http://www.w3.org/2000/svg"><path d="M57.602 0c3.711 3.871 7.419 7.746 11.129 11.62.005-3.527-.001-7.054.003-10.581.772.005 1.544 0 2.316.004-.004 5.398.008 10.797-.005 16.195-3.703-3.87-7.42-7.725-11.123-11.593-.024 3.548.002 7.095-.012 10.643-.77-.003-1.539-.002-2.308 0-.006-5.43-.006-10.859 0-16.288zm62.706 2.457c1.227-1.544 3.459-2.065 5.298-1.462 1.156.381 2.036 1.309 2.632 2.34-.633.37-1.261.745-1.894 1.114-.308-.527-.67-1.089-1.259-1.328-.888-.333-1.993-.219-2.692.46-.572.513-.71 1.472-.228 2.09.454.597 1.183.87 1.856 1.14 1.333.524 2.756 1.06 3.7 2.197.9 1.043 1.051 2.531.786 3.839-.264 1.324-1.166 2.479-2.342 3.122-1.576.833-3.617.81-5.145-.121-1.301-.81-1.994-2.303-2.199-3.778.784-.172 1.57-.34 2.355-.52.113.713.205 1.496.714 2.051.987 1.144 3.042 1.055 3.918-.182.697-.973.663-2.52-.299-3.31-.786-.673-1.797-.968-2.725-1.384-1.029-.42-2.04-1.018-2.68-1.953-.868-1.28-.761-3.117.204-4.315zM.003 1.042c2.547-.002 5.093-.001 7.64 0v2.172H2.32l.001 3.658c1.71.003 3.42-.004 5.129.004-.002.726 0 1.453 0 2.18-1.713.007-3.425-.014-5.137.01.016 2.406.001 4.812.008 7.219-.773.004-1.547.001-2.319.001C0 11.206 0 6.123.003 1.042zm16.884 0a603.73 603.73 0 012.331-.001c.002 5.082 0 10.163 0 15.245-.776 0-1.554.002-2.33 0-.003-5.082-.003-10.163-.001-15.244zm12.573-.001c.774 0 1.55-.001 2.326.001.002 4.354 0 8.708 0 13.062 1.493.003 2.983-.002 4.476.003.008.727.007 1.452 0 2.18-2.267 0-4.534 0-6.803-.002-.004-5.08-.004-10.162 0-15.244zm15.581-.001h2.298c.002 5.083.005 10.165-.002 15.249-.766-.006-1.533-.002-2.3-.005 0-5.08-.008-10.163.004-15.245zm34.47.005c.85-.008 1.698-.003 2.548-.004 1.394 3.492 2.786 6.983 4.183 10.473a1.8 1.8 0 00.173-.287c1.37-3.397 2.748-6.79 4.122-10.186.848.003 1.698-.005 2.547.006-2.286 5.473-4.608 10.933-6.864 16.42-2.241-5.472-4.47-10.949-6.709-16.422zm22.028-.003c2.818-.002 5.636 0 8.453 0 .004.723.003 1.448.002 2.172h-6.129c-.003 1.22-.002 2.44 0 3.658 1.977.003 3.955-.004 5.932.004-.012.727 0 1.454-.01 2.181-1.976-.002-3.952-.001-5.928-.001.01 1.684 0 3.367.006 5.05 2.043 0 4.087-.003 6.13.002-.001.726.001 1.453-.001 2.18-2.818-.003-5.636.001-8.455-.003a12907.3 12907.3 0 010-15.243zm35.124 0c3.112-.002 6.222 0 9.334 0 .004.725.004 1.449.001 2.173a987.843 987.843 0 00-3.49 0c.004 4.357.004 8.715 0 13.073-.778-.006-1.555.006-2.331-.009.002-4.355-.002-8.71.002-13.065-1.172.003-2.345-.004-3.516.004-.004-.726-.005-1.451 0-2.176zM.005 18.85c48.653-.382 97.306-.786 145.959-1.156-1.266.598-2.509 1.242-3.765 1.858-.355.159-.691.433-1.103.388-47.03-.167-94.062-.335-141.093-.499 0-.198 0-.394.002-.591z" fill="#5A667B"/></svg>