<svg width="113" height="113" fill="none" xmlns="http://www.w3.org/2000/svg"><path d="M2.704 96.376H0v16.075h2.704V96.376zm21.409 13.146L11.718 96.376h-3.38v16.075h2.704v-13.22l12.47 13.22h3.305V96.376h-2.704v13.146zm24.638 0l-12.47-13.146h-3.304v16.075h2.629v-13.22l12.47 13.22h3.38V96.376H48.75v13.146zm11.043-13.146H57.09v16.075h2.704V96.376zm21.258 0v10.216c0 1.202-.6 2.329-1.652 2.855-1.503.751-3.155 1.126-4.808.976-1.653.075-3.38-.225-4.883-.976-1.051-.601-1.727-1.653-1.652-2.855V96.376h-2.704v10.892c0 1.728.976 3.23 2.478 4.057 2.029 1.202 4.432 1.727 6.761 1.652 2.329.151 4.657-.45 6.686-1.652 1.502-.827 2.478-2.329 2.478-4.057V96.376h-2.704zm23.662 7.963a10.69 10.69 0 00-4.507-1.503c-.751-.075-2.178-.225-4.432-.375-1.127 0-2.253-.15-3.305-.451-.977-.3-1.427-.826-1.427-1.577 0-.677.45-1.202 1.352-1.578 1.202-.45 2.554-.6 3.83-.6 2.555 0 5.109.675 7.362 1.802l1.653-1.803a15.834 15.834 0 00-8.789-2.404c-2.629 0-4.657.451-6.084 1.277-1.352.677-2.179 2.104-2.179 3.606-.075 1.352.676 2.554 1.878 3.155 1.052.526 2.93.901 5.634 1.052 1.878.075 3.756.225 5.559.525 1.352.376 1.953 1.052 1.953 2.029 0 .901-.601 1.727-1.503 2.028-1.427.601-2.93.826-4.431.751a15.95 15.95 0 01-8.263-2.329l-1.503 1.953c2.329 1.803 5.559 2.705 9.69 2.705 2.855 0 5.033-.451 6.611-1.428 1.427-.751 2.328-2.328 2.328-3.981.151-.976-.45-2.103-1.427-2.854zM92.095 36.282l-.075-.225v-.076h-.075a60.993 60.993 0 01-3.907 1.653c.376-1.878.827-4.056 1.202-6.235 2.254-.826 3.906-1.577 4.883-2.103 2.78-1.352 3.606-2.404 3.756-3.08.075-.225.075-.526-.075-.751v-.075h-.075l-.15.075h-.076v.075c.075.15.075.3 0 .45-.15.602-.901 1.578-3.605 2.855-.977.451-2.48 1.202-4.658 2.028.075-.45.15-.976.226-1.427.225-1.728.45-3.38.6-5.033 5.334-1.727 9.09-3.455 10.292-4.807.225-.226.45-.526.45-.902 0-.375-.15-.75-.45-.976-.301-.226-.676-.376-1.052-.3h-.075v.3h.075c.3 0 .601.075.826.225.226.226.301.45.301.751 0 .3-.15.526-.376.676-1.127 1.202-4.732 2.855-9.99 4.658.225-2.329.375-4.507.45-6.385a78.706 78.706 0 006.31-2.48c2.329-1.126 5.033-2.703 5.033-4.206-.075-.976-.826-1.652-2.329-2.103-.75-.225-1.577-.3-2.328-.3h-.075v.3h.075c.15 0 4.281.075 4.357 2.103 0 .45-.226.902-.601 1.277-1.353 1.503-5.108 3.305-10.442 5.108.075-1.127.075-2.103.075-2.93v-.075h-.3v.076c0 .3 0 1.352-.075 3.08a167.913 167.913 0 01-19.23 4.957c0-1.051-.075-2.103-.15-3.005v-.075h-.301v.076c0 .3.075 1.277.15 3.08-1.502.3-3.08.6-4.657.826.075-4.132-3.08-9.09-5.86-12.695-1.577-2.104-3.304-4.057-5.182-5.935-.902-1.051-1.728-1.802-2.104-2.178l-.075-.075c-.45-.526-.751-.902-.751-.902l-.075-.075c-.075-.15-.15-.15-.15-.225v-.075C51.23.526 50.78.075 50.78 0l-.075.225L50.63.3l-.15.15-.076.076.075.075c.451.45.902.901 1.277 1.427.376.601 1.127 2.103.526 3.23-.676 1.277-2.78 2.329-6.16 3.08-.675.15-1.953.376-3.38.676-5.558.977-16 3.005-21.558 4.733-6.686 2.178-10.742 4.356-11.794 6.385.6-2.48 1.127-3.907 1.127-3.982v-.075h-.075l-.15-.075h-.076v.075a62.788 62.788 0 00-2.253 9.165c-.075.3-.075.6-.15.976 0 .15-.076.226-.076.376-.45 3.155-.75 6.385-.826 9.54-.075.3-.075.526-.075.826 0 .15 0 .3.075.45 0 1.353 0 2.855.075 4.282v.677a54.53 54.53 0 00.45 4.807c.827 6.91 2.63 13.747 5.41 20.132l.45.901c.075.075.075.15.15.225.3.526.526 1.052.752 1.578.15.45.45.826.676 1.277.075.075.075.15.15.225.225.601.526 1.127.901 1.578l.526.826c.075.15.225.3.376.45l.225.226c.225.225.526.45.751.676.15.15.676.45.676.45.902.376 1.803.602 2.78.752h.075v-.301h-.075c-1.277-.225-3.08-.6-3.831-1.427-.15-.15-.3-.375-.451-.526a2.698 2.698 0 01-.15-.826c.225.15.45.225.75.376 2.18.901 5.635 1.427 10.367 1.727h.075v-.3h-.075c-6.535-.376-9.615-1.277-11.117-2.103 0-.526 0-1.052.075-1.578 1.878.751 3.83 1.202 5.859 1.578 2.028.3 4.131.525 6.16.6.15.451.3.827.525 1.278v.075h.075l.15-.075h.076v-.076l-.45-1.126c3.98.15 8.037.15 12.018-.075h.075v-.301h-.075c-4.056.225-8.038.225-12.094.075-.225-.6-.45-1.352-.751-2.328h.075c6.986.375 14.047.15 21.033-.601l.075 1.277v.075h.301v-.075l-.075-1.277c2.704-.3 4.582-.526 5.108-.601h.075v-.301h-.075c-.226 0-2.179.3-5.108.601l-.15-3.004c8.638-.601 13.896-1.578 13.971-1.578h.075v-.075l.075-.376v-.075h-.075c-.075 0-5.408.902-13.896 1.578l-.15-4.132c5.558-.3 11.117-.901 16.6-1.878.451-.075.827-.15 1.202-.225-.375 1.878-.676 3.005-.676 3.155v.075h.075l.15.075h.076V63.7s.3-1.202.75-3.305c1.653-.3 3.23-.751 4.808-1.277h.076v-.075l-.076-.15v-.076h-.075c-1.502.526-3.08.902-4.657 1.202.3-1.352.6-3.08.901-5.108.827-.15 1.578-.3 2.254-.45 2.93-.602 5.859-1.428 8.638-2.554h.075v-.076l-.075-.15v-.075H79.7c-.075 0-3.455 1.502-10.742 2.93.226-1.653.526-3.531.752-5.56 2.403-.45 4.507-.9 6.234-1.351 3.456-.751 6.761-1.803 9.991-3.23h.075v-.075l-.075-.15v-.076h-.075c-.075.075-4.958 2.404-16 4.507.15-1.577.375-3.305.526-5.183 0-.3.075-.6.075-.976 3.906-.752 7.211-1.503 9.84-2.254a92.586 92.586 0 007.437-2.329c-.526 2.48-.977 4.357-1.127 4.733v.075h.075l.15.075h.076v-.075c.075-.15.525-2.178 1.126-4.883 1.277-.3 2.705-.901 4.057-1.502zM70.987 22.91c4.357-.826 8.638-1.803 12.695-2.93 2.328-.676 4.507-1.277 6.535-1.953a147.613 147.613 0 01-.45 6.385c-6.16 1.953-12.395 3.606-18.78 4.808a88.212 88.212 0 000-6.31zm16.676 2.404c-.3.075-.676.225-1.127.3.45-.075.826-.15 1.127-.3zm-21.634-1.503c1.577-.225 3.155-.526 4.732-.826 0 1.578.075 3.68 0 6.31-2.854.526-5.784 1.052-8.713 1.502 2.103-1.878 3.68-3.98 3.98-6.61v-.376zM57.916 31.4c3.53-2.328 6.085-4.357 6.76-7.361.301-.075.677-.075.977-.15v.375c-.3 2.63-2.028 4.808-4.282 6.686-1.126.15-2.253.3-3.455.45zm1.503-19.38a8.296 8.296 0 01.75 4.432c-.6 4.206-3.905 6.46-7.586 8.713-1.352.15-2.704.226-4.057.301 1.052-.676 2.029-1.277 2.855-1.728.375-.3.826-.526 1.202-.75 3.08-1.954 6.235-3.982 6.986-8.414.15-.826.075-1.728-.15-2.554zm-16 33.352c-1.353.075-2.705.075-3.982.075 2.329-1.652 4.883-3.305 7.662-5.183h.075l1.277-.901.226 5.709c-1.653.15-3.456.225-5.259.3zM48.3 28.244c1.427-.901 2.78-1.727 3.756-2.328.225-.15.45-.3.676-.376 1.352-.15 2.704-.3 4.132-.45-1.578 1.126-3.156 2.103-4.808 3.08-.751.45-1.653.976-2.554 1.502l-1.127.676-.075-2.104zm3.756-2.704l-.15.075a357.22 357.22 0 00-3.606 2.254l-.075-2.028c1.277-.076 2.554-.15 3.83-.3zm-3.831 13.596l-1.277.902h-.075a711.314 711.314 0 00-8.038 5.408h-2.854c3.23-2.253 6.535-4.281 9.615-6.16.976-.075 1.803-.075 2.629-.15zM19.982 61.221c1.051-1.502 2.103-2.93 3.305-4.282.676.15 1.427.226 2.103.3-.676.752-1.352 1.503-1.953 2.254-.601.676-1.127 1.428-1.653 2.104-.6-.15-1.201-.226-1.802-.376zm-2.179-.526a32.948 32.948 0 013.005-4.206c.676.15 1.427.3 2.103.375-1.202 1.352-2.253 2.78-3.305 4.282l-1.803-.45zm-1.652-.6c.75-1.428 1.652-2.855 2.704-4.132.526.15 1.127.3 1.727.375-1.051 1.352-2.103 2.78-3.004 4.207-.526-.075-.977-.3-1.427-.45zm-.076-22.46c1.353.3 2.78.6 4.357.825a61.993 61.993 0 00-5.709 4.207 22.649 22.649 0 01-3.38-1.352c1.502-1.352 3.08-2.63 4.732-3.68zm8.263 1.276v.977c-1.878 1.352-3.605 2.629-5.183 3.98a39.43 39.43 0 01-4.056-1.05c1.878-1.578 3.756-3.005 5.784-4.282 1.127.15 2.254.225 3.455.375zm0 5.784c-.375-.075-.75-.075-1.051-.15.375-.3.676-.526 1.051-.826v.976zm0-4.432v3.08c-.525.376-.976.751-1.502 1.127-1.202-.15-2.253-.376-3.305-.601 1.502-1.202 3.08-2.479 4.807-3.606zm-1.427 4.507c.45.075.902.15 1.427.226 0 .525 0 1.051.075 1.577-1.352 1.127-2.629 2.329-3.83 3.456-.977-.226-1.878-.451-2.78-.752a95.288 95.288 0 015.108-4.507zm1.502 2.179c0 .75.076 1.427.15 2.178-.45.45-.976.901-1.426 1.427-.752-.15-1.428-.3-2.179-.45 1.202-1.202 2.404-2.254 3.456-3.155zm9.991-7.512h3.005a125.019 125.019 0 00-7.812 5.333c-.15.15-.376.226-.526.376-.827-.075-1.578-.15-2.329-.226.376-.3.751-.6 1.052-.75 2.328-1.728 4.507-3.306 6.61-4.733zm-9.39 11.418c-.075-.526-.075-1.127-.15-1.653 1.427-1.352 2.855-2.554 4.357-3.756.977.075 1.878.15 2.854.15a75.162 75.162 0 00-6.61 5.259c-.15.075-.3 0-.45 0zm.226.375l-.15.15v-.225s.075.075.15.075zm4.357-6.009c.075-.075.15-.15.225-.15 3.305-2.404 5.784-4.057 8.188-5.559 1.052 0 2.178 0 3.305-.075-3.38 2.178-6.31 4.207-8.789 5.934-1.051 0-2.028-.075-2.93-.15zm-.827.225a109.115 109.115 0 00-3.98 3.38c-.076-.75-.076-1.427-.151-2.178.676-.526 1.202-1.051 1.728-1.427.826.075 1.652.15 2.403.225zm-4.056.827c0-.451 0-.827-.075-1.277.45.075.901.075 1.427.15a10.73 10.73 0 00-1.352 1.127zm0 4.507c-.45-.075-.826-.15-1.277-.226l1.127-1.126c.075.525.075.976.15 1.352zm-1.577.075l1.577.225c0 .15 0 .376.075.526a57.82 57.82 0 00-4.056 4.507c-.601-.15-1.127-.3-1.728-.376 1.277-1.727 2.704-3.305 4.132-4.882zm1.652 1.202c.075.526.15 1.127.226 1.652 0 .226.075.451.075.676-.677.752-1.352 1.428-1.953 2.179-.752-.15-1.428-.226-2.104-.376 1.202-1.427 2.48-2.854 3.756-4.131zm.376 2.704c.075.751.225 1.427.3 2.178-.676-.075-1.352-.15-1.953-.3.526-.601 1.052-1.202 1.653-1.878zm.15-1.127c-.075-.6-.15-1.277-.225-1.953l.45-.45h.075c.752.075 1.578.225 2.33.3-.902.826-1.729 1.728-2.555 2.554 0-.15-.075-.226-.075-.45zm.6-2.629a77.043 77.043 0 016.686-5.333c.827 0 1.653.075 2.48.075-2.18 1.502-4.207 3.155-6.236 4.958-.225.225-.45.375-.6.6-.827-.15-1.578-.225-2.33-.3zm7.062-5.634c2.479-1.803 5.484-3.756 8.939-6.01.977 0 2.028-.074 3.005-.074h.075c-3.08 1.878-6.385 3.906-9.54 6.16-.826 0-1.653 0-2.479-.076zm.901-5.934c-2.028 1.352-4.056 2.854-6.31 4.507-.45.3-.826.676-1.277.976-.6-.075-1.201-.15-1.727-.225v-1.202a83.233 83.233 0 016.01-4.131c1.126.075 2.178.075 3.304.075zm-3.756-.075c-1.652 1.051-3.605 2.328-5.483 3.756v-3.08c.45-.3.901-.601 1.352-.977 1.277.15 2.704.226 4.131.3zm-5.483.3v-.676c.3 0 .6.075.901.075-.3.15-.6.376-.901.601zm-.376-7.361c-2.028-.15-3.83-.451-5.408-.676 1.427-.827 2.78-1.578 3.906-2.254.751-.45 1.502-.826 2.329-1.277-.15 1.202-.226 2.479-.376 3.906-.15.15-.3.226-.45.3zm-9.39 10.666c1.202.376 2.555.752 3.982 1.052-.526.45-.977.826-1.427 1.277a108.899 108.899 0 00-2.93 2.855c-1.052-.451-2.103-.977-3.155-1.503a23.327 23.327 0 013.53-3.68zm4.282 1.127c.451.075.827.15 1.277.226.676.15 1.352.225 2.029.375a52.762 52.762 0 00-4.808 4.282l-.15.15c-.977-.3-1.878-.6-2.705-.976 1.353-1.353 2.855-2.705 4.357-4.057zm-1.577 5.484c.826.225 1.727.45 2.629.676h.15c-.826.826-1.577 1.653-2.328 2.479-.601.75-1.202 1.427-1.728 2.178-.826-.3-1.653-.6-2.329-.901a29.066 29.066 0 013.606-4.432zm3.08.826c.676.15 1.427.3 2.178.45-1.502 1.503-2.854 3.156-4.131 4.808-.676-.225-1.428-.375-2.029-.6a39.445 39.445 0 013.982-4.658zm6.084 12.019c-.075 0-.075 0 0 0a41.027 41.027 0 01-5.033-.676c1.428.3 3.155.526 5.033.676zm-4.657-.751a45.712 45.712 0 013.455-4.132c.3 1.728.526 3.306.827 4.733-1.503-.226-2.93-.376-4.282-.601zm3.38-7.136l2.93-2.93 2.479.225c-1.503 1.352-3.23 3.08-5.033 5.033-.15-.75-.3-1.577-.376-2.328zm3.155-3.23c.15-.15.3-.301.45-.376 2.029-1.878 4.207-3.53 6.536-5.183h2.855c-1.353.976-2.705 1.878-3.907 2.854a62.507 62.507 0 00-3.455 2.93l-2.479-.225zm16.676-18.78c.676-.45 1.352-.826 2.104-1.277l.75-.45.076 1.502c-1.052.15-1.953.15-2.93.225zm1.878-1.502a45.22 45.22 0 01-2.554 1.502h-.375c-1.052.075-2.104.075-3.08.075C43.644 31.1 45.972 29.596 48 28.32l.075 2.104-.902.6zm-6.535 1.652c-1.578.075-3.08.075-4.507.075 2.103-1.201 4.131-2.403 5.934-3.455l.226-.15c2.028-1.202 3.906-2.254 5.558-3.23l.075 2.178c-2.103 1.352-4.657 2.93-7.286 4.582zm7.211-7.06c-1.202.074-2.479.15-3.68.225h-.977c1.578-.827 3.08-1.578 4.582-2.33l.075 2.104zm-3.68.45c1.051-.075 2.103-.075 3.154-.15-1.502.901-3.23 1.878-5.032 2.93l-.075.074a231.151 231.151 0 00-6.686 3.907c-1.803 0-3.53 0-5.108-.076 3.981-2.403 8.113-4.507 12.17-6.535.525-.075 1.05-.15 1.576-.15zm-14.273 6.61c-1.803-.075-3.38-.15-4.882-.3v-.15c.15-.075.3-.226.45-.3 2.855-1.729 6.385-3.682 10.291-5.635 1.878 0 3.907-.075 6.085-.15-3.981 2.028-8.038 4.132-11.944 6.535zm-4.582-.976c-.075.075-.225.15-.3.15.15-1.427.225-2.704.375-3.906 1.127-.601 2.329-1.127 3.606-1.728 1.878.075 3.906.075 6.16.075-3.756 1.878-7.137 3.681-9.841 5.409zm.15-4.132c.075-.526.15-1.051.15-1.502.827.075 1.728.075 2.705.075l-2.855 1.427zm-.15-1.727c-1.202-.076-2.254-.15-3.305-.226a123.691 123.691 0 013.53-1.502c0 .45-.075 1.052-.225 1.728zm0 .3c-.075.526-.15 1.052-.225 1.653a76.37 76.37 0 00-2.554 1.352c-1.202.676-2.63 1.502-4.207 2.403-1.803-.3-3.53-.75-5.258-1.276 2.704-1.653 5.483-3.155 8.413-4.432 1.202.075 2.404.225 3.83.3zM12.77 30.122c-1.127-.375-2.178-.901-3.23-1.502 1.803-1.427 3.756-2.704 5.86-3.68 1.802.375 3.605.675 5.483.825-2.78 1.277-5.484 2.705-8.113 4.357zm2.93 7.362c-1.052.676-2.103 1.427-3.005 2.253-.6.451-1.127.977-1.652 1.428-.902-.451-1.728-.977-2.48-1.653l-.15-.15a16.86 16.86 0 013.38-3.155c1.278.526 2.555.976 3.907 1.277zm-4.582 4.056c1.051.526 2.178.977 3.38 1.352-1.277 1.052-2.404 2.254-3.455 3.606-.676-.45-1.353-.901-2.029-1.427l-.375-.376a12.797 12.797 0 012.479-3.155zm.075 5.334a16.67 16.67 0 003.08 1.502c-1.127 1.277-2.179 2.629-3.005 4.056-.376-.3-.826-.6-1.127-.901-.3-.3-.6-.601-.826-.901.3-1.353.976-2.63 1.878-3.756zm3.38 1.652c.826.376 1.728.676 2.704.977-1.352 1.352-2.479 2.854-3.53 4.432-.751-.376-1.503-.752-2.254-1.202a17.354 17.354 0 013.08-4.207zm-.751 5.71c.751.3 1.502.6 2.329.9a25.943 25.943 0 00-2.404 3.907c-.601-.3-1.202-.676-1.728-1.052a19.123 19.123 0 011.803-3.756zm2.629 1.05c.676.226 1.352.451 2.028.602-.45.6-.826 1.202-1.277 1.803-.45.75-.976 1.502-1.427 2.328-.601-.225-1.202-.526-1.803-.751.751-1.427 1.578-2.78 2.479-3.981zm.676 10.142a36.63 36.63 0 00-1.052 2.554c-.375-.15-.75-.376-1.051-.526.15-.901.375-1.728.676-2.63.45.301.901.452 1.427.602zm.3.15c.451.15.977.3 1.428.45l-.676 1.353c-.226.45-.376.901-.601 1.352-.45-.15-.826-.3-1.202-.526.3-.901.676-1.803 1.052-2.63zm1.728.526c.376.075.676.15 1.052.225 2.329.526 4.732.826 7.136 1.052.3 1.277.601 2.403.826 3.305-3.53-.225-6.986-.826-10.366-1.878.45-.977.902-1.878 1.352-2.704zm7.512-3.831c-.3-1.503-.526-3.155-.826-4.958 5.634.676 11.343.901 17.051.6 2.254-.074 4.357-.224 6.31-.375l.226 4.808c-1.578.075-3.23.15-5.033.225-5.934.3-11.869.226-17.728-.3zm16.225-4.733c-5.633.3-11.267.075-16.901-.6a83.81 83.81 0 015.258-5.184c3.906.226 7.888.3 11.869.15 2.103-.075 4.056-.225 5.934-.3l.15 3.906.076 1.653c-2.029.225-4.132.3-6.386.375zm.15-5.859c-3.83.15-7.661.15-11.492-.075 1.352-1.202 2.479-2.178 3.23-2.704a124.892 124.892 0 014.206-3.08c1.428 0 2.93-.075 4.432-.075 1.803-.075 3.606-.15 5.259-.3l.225 5.934c-1.803.075-3.831.225-5.86.3zm5.41-19.305l-.076-1.728 1.277-.751c.902-.526 1.803-1.052 2.554-1.502 1.803-1.052 3.606-2.179 5.258-3.38.902-.076 1.728-.226 2.63-.301-1.578 1.652-4.282 3.455-9.24 6.61-.526.376-1.052.676-1.577.977-.3 0-.526 0-.827.075zm13.445-17.503c1.127 2.254 1.953 4.883 1.503 6.911a12.85 12.85 0 01-.676 2.254c-.601.075-1.202.15-1.878.3 1.051-1.352 1.652-3.005 1.803-4.657.15-1.728-.076-3.305-.752-4.808zm.451 4.658a8.556 8.556 0 01-1.953 4.807c-.826.15-1.653.226-2.554.3 2.178-1.652 3.455-4.13 3.68-6.835.076-1.728-.225-3.53-.976-5.108 1.127 2.103 2.179 4.657 1.803 6.836zM51.005 31.549c5.258-3.38 8.038-5.183 9.54-6.985.676-.076 1.352-.15 1.953-.3-1.127 2.403-3.38 4.055-9.164 7.586-1.202.15-2.329.225-3.53.3.45-.15.826-.375 1.201-.6zm9.69-4.356a9.333 9.333 0 002.179-2.93c.526-.075 1.051-.15 1.502-.225-.75 3.08-3.455 5.033-7.136 7.436-1.052.15-2.103.226-3.155.376a45.492 45.492 0 006.61-4.657zm5.033-3.681c-.3.075-.6.075-.901.15.075-.3.075-.6.15-.901a13.264 13.264 0 00-1.502-6.535c1.352 2.478 2.328 5.032 2.253 7.286zm-1.126-.751c0 .3-.076.676-.15.976-.451.075-.977.15-1.428.226.3-.677.526-1.428.676-2.179.526-2.404-.676-5.483-1.803-7.662-.075-.075-.075-.15-.15-.3 1.427 2.103 3.08 5.408 2.855 8.939zm-3.756-10.592a1.036 1.036 0 00-.226-.3c-.075-.075-.15-.226-.225-.3.15.224.3.375.45.6zm.375 5.634c-.225 2.78-1.652 5.333-3.906 6.91l-4.056.451c3.53-2.178 6.61-4.507 7.211-8.638.15-2.028-.3-4.056-1.352-5.784 1.352 2.178 2.329 4.657 2.103 7.06zM59.193 9.99c-.225-.226-.375-.451-.526-.601.15.225.376.45.526.6zm-1.878-1.653c1.277 2.028 2.329 4.282 1.953 6.16-.751 4.281-3.83 6.31-6.91 8.188l-.226.15-.976.676c-.827.526-1.878 1.202-3.005 1.878l-.075-2.104 1.352-.676c7.06-3.755 8.714-6.986 9.314-9.239.3-1.202-.15-2.93-1.502-5.108 0-.075-.075-.075-.075-.15 0 .075.075.15.15.225zm1.127 4.958c-.601 2.253-2.178 5.333-9.164 9.09-.376.224-.827.45-1.202.6v-.675h-.301v.826c-1.652.827-3.305 1.728-5.108 2.63l-.15.075c-2.178.075-4.207.15-6.085.15a245.895 245.895 0 0110.141-4.582c2.855-1.052 5.484-2.554 7.888-4.432 1.427-1.127 2.479-2.63 3.155-4.357.526-1.277 0-3.005-.752-4.507.977 1.727 1.954 3.756 1.578 5.183zm-1.127-.676c-.6 1.652-1.652 3.08-3.08 4.206-2.403 1.803-5.033 3.306-7.812 4.357a232.618 232.618 0 00-10.742 4.808h-6.16c3.982-1.803 8.339-3.53 12.92-5.334h.076l1.953-.75c8.714-3.456 11.042-5.71 12.17-8.64.3-.9.224-1.877-.151-2.779.826 1.352 1.277 2.93.826 4.132zm-.826-1.503c-1.202 2.855-3.456 5.108-12.019 8.489l-1.953.75h-.075c-4.808 1.879-9.39 3.682-13.521 5.56-1.127 0-2.254-.075-3.23-.15.075-.752.15-1.353.225-1.878.826-.376 1.652-.677 2.479-.977 4.882-1.953 9.314-3.456 12.845-4.657 3.155-1.052 5.559-1.953 7.361-2.705 4.132-1.727 6.085-3.004 7.212-5.633.3-1.052.15-2.179-.376-3.155.902 1.502 1.503 3.155 1.052 4.356zm-.977-1.352c-1.051 2.63-3.004 3.831-7.06 5.484-1.804.751-4.207 1.577-7.362 2.704l-.15.075a309.862 309.862 0 00-12.77 4.658c-.752.3-1.503.6-2.33.901.151-1.202.301-1.878.301-2.028v-.075h-.3v.075s-.15.826-.376 2.253c-1.352.526-2.78 1.202-4.206 1.803-1.878-.15-3.756-.45-5.56-.826 3.23-1.578 6.761-2.93 9.54-4.056l2.555-.977C31.7 18.177 38.01 16.3 43.118 14.797c3.23-.976 5.709-1.728 6.76-2.103 2.705-1.202 4.207-2.404 4.958-4.282.226-.751.226-1.652-.075-2.404.751 1.353 1.202 2.78.751 3.756zM53.71 4.507c.677 1.202 1.277 2.63.752 3.756-.752 1.803-2.104 2.93-4.808 4.056-.976.376-3.455 1.127-6.685 2.104h-.076c-5.108 1.502-11.417 3.38-15.324 5.033l-2.403.976c-3.005 1.202-6.61 2.63-9.916 4.207a21.117 21.117 0 01-4.207-1.352c3.155-2.029 8.038-4.057 11.418-5.334 6.386-2.479 15.85-4.807 19.606-5.709 6.986-1.727 10.442-3.23 11.568-5.108.526-.901.526-1.803.075-2.629zm-32.45 9.54c5.483-1.803 15.925-3.831 21.558-4.883l.226-.075c1.427-.3 2.554-.526 3.08-.6 3.455-.752 5.558-1.804 6.31-3.23.3-.677.375-1.503.075-2.18.826 1.278 1.427 2.78.826 3.832-1.352 2.253-6.46 3.756-11.343 4.958-3.756.901-13.22 3.305-19.606 5.784-3.23 1.202-6.385 2.629-9.465 4.206-.826.451-1.502.827-2.103 1.277-.3-.15-.6-.375-.826-.6a1.782 1.782 0 01-.676-1.127c0-2.254 4.206-4.883 11.944-7.362zM9.09 21.409c.076.525.301.976.752 1.277.225.225.526.375.75.525a7.301 7.301 0 00-2.253 2.029c.226-1.352.526-2.705.751-3.831zm-.9 4.732c.3-.826 1.276-1.803 2.703-2.704 1.277.676 2.63 1.127 4.057 1.427-.451.225-.977.45-1.428.751-1.502.827-2.93 1.728-4.281 2.855-.15-.075-.3-.226-.376-.3-.45-.376-.751-.827-.826-1.428.075-.225.15-.376.15-.601zm-.752 6.836c.15.375.375.75.676 1.051-.3.376-.601.827-.826 1.277 0-.826.075-1.577.15-2.328zm-.225 3.155c.225-.752.6-1.427 1.051-1.953.902.826 2.028 1.502 3.155 1.953-1.202.901-2.253 1.953-3.23 3.08-.526-.451-.826-1.052-1.052-1.728.076-.45.076-.902.076-1.352zm0 2.178c.225.45.525.826.826 1.127-.3.45-.601.901-.826 1.352V38.31zm.075 3.53c.15-.826.45-1.577.976-2.178l.075.075c.751.676 1.578 1.202 2.48 1.653-.902.901-1.729 1.953-2.33 3.005-.525-.526-.976-1.202-1.126-1.953 0-.226 0-.451-.075-.601zm.15 1.653c.225.451.526.902.901 1.202-.3.601-.526 1.202-.6 1.878-.15-1.052-.226-2.103-.301-3.08zm1.127 1.427l.3.301a14.141 14.141 0 002.028 1.502c-.826 1.127-1.502 2.329-1.878 3.606-.6-.826-.976-1.728-1.051-2.78 0-.9.225-1.802.6-2.629zm.15 7.587c-.15-.976-.376-1.953-.526-2.93.225.452.45.827.751 1.203a6.403 6.403 0 00-.225 1.727zm.375 2.179c0-.075 0-.15-.075-.225v-.076.076c0 .075.075.3.226.6-.075-.15-.075-.3-.15-.375zm-.075-1.502c-.075-.752 0-1.503.15-2.179.226.3.451.526.752.751.375.376.826.676 1.202.977a11.692 11.692 0 00-1.127 3.08c-.526-.752-.902-1.653-.977-2.63zm2.329-.301c.676.45 1.427.901 2.178 1.202a13.724 13.724 0 00-1.727 3.68 6.634 6.634 0 01-1.578-1.652 9.239 9.239 0 011.127-3.23zm-.526 8.038c.15.225.226.375.376.6 0 .226 0 .526.075.752l-.45-1.352zm1.653 2.253c-.075.601-.075 1.277-.075 1.878-.15-.3-.3-.526-.376-.826-.3-.751-.45-1.503-.526-2.329.3.376.601.676.977.977.075.15.075.225 0 .3zm.3.075s0-.075 0 0c.451.226.902.601 1.352.827a14.336 14.336 0 00-.45 2.479l-.902-.902a12.827 12.827 0 010-2.404zm.977 5.108c-.15-.375-.376-.75-.526-1.202-.075-.3-.225-.6-.3-.976l.75.751c0 .526 0 1.052.076 1.427 0 .075 0 0 0 0zm.526.827a9.326 9.326 0 01-.226-2.029l.676.451c-.075.676-.075 1.352-.075 2.028-.075-.075-.075-.15-.15-.15a1.035 1.035 0 00-.225-.3zm.3.75l.15.151v.225c-.075-.15-.075-.225-.15-.375zm-.526-3.154c.075-.826.15-1.728.376-2.554.3.15.676.375.976.526a14.18 14.18 0 00-.676 2.554c-.225-.15-.45-.3-.676-.526zm.977 1.052c.3.15.676.375.976.525-.225.676-.3 1.352-.375 2.028-.226-.15-.451-.3-.601-.45a9.846 9.846 0 010-2.103zm.375 3.605c-.15-.376-.225-.751-.3-1.127.15.075.376.226.526.3 0 .376 0 .752.075 1.128-.15 0-.225-.15-.3-.3zm.902 1.427c.15.15.3.226.45.3 0 .151 0 .301.076.451-.15-.15-.376-.45-.526-.75zm.45 0c-.225-.15-.45-.375-.676-.526-.075-.45-.15-.976-.15-1.427.3.15.601.3.977.451-.075.45-.15.977-.15 1.502zm.15-1.803c-.375-.15-.675-.3-.976-.45.075-.676.15-1.427.376-2.104.375.15.826.301 1.202.451-.226.676-.451 1.352-.601 2.103zm12.17 2.254c-2.028-.075-3.981-.3-6.01-.6a25.967 25.967 0 01-5.859-1.578c.15-.752.3-1.428.601-2.104a45.567 45.567 0 0010.517 1.953c.3.977.526 1.728.75 2.33zm20.657-3.23c-6.986.751-13.972.977-21.033.6h-.225c-.226-.9-.526-2.027-.826-3.304 5.108.3 10.216.375 15.324.075 2.403-.075 4.582-.225 6.61-.376l.15 3.005zm-.3-7.437l.15 4.132-.15-4.132zM67.68 60.17c-5.934 1.127-11.868 1.803-17.878 2.179l-.225-4.808c6.385-.45 12.77-1.202 19.005-2.404a208.521 208.521 0 00-.902 5.033zm.902-5.408a163.663 163.663 0 01-19.08 2.479l-.075-1.653-.15-3.906c6.76-.45 13.446-1.277 20.056-2.404-.225 1.953-.45 3.831-.751 5.484zm1.352-11.117c-.15 1.877-.3 3.605-.526 5.258a181.842 181.842 0 01-20.132 2.479l-.225-5.935c7.061-.45 14.047-1.352 20.958-2.629 0 .225-.075.526-.075.827zm.075-1.202a178.759 178.759 0 01-21.033 2.629l-.225-5.86.075-.075c7.211-.375 14.422-1.277 21.559-2.629-.075 1.878-.226 3.831-.376 5.935zm.3-.075c.15-2.029.301-3.982.376-5.935 6.16-1.127 12.244-2.78 18.179-4.883-.376 2.179-.827 4.357-1.202 6.235-5.634 1.953-11.418 3.53-17.352 4.583zm40.264 52.957c.526-.076.751-.301.751-.827 0-.751-.525-.826-.976-.826h-1.127v2.93h.301v-1.353h.751l.901 1.353h.376l-.977-1.278zm-.45-.226h-.601v-1.052h.826c.451 0 .676.15.676.526 0 .451-.376.526-.901.526z" fill="#5A667B"/><path d="M110.198 92.696a2.501 2.501 0 00-2.479 2.478 2.501 2.501 0 002.479 2.48 2.501 2.501 0 002.479-2.48 2.501 2.501 0 00-2.479-2.478zm0 4.657c-1.202 0-2.179-.977-2.103-2.179 0-1.201.976-2.178 2.178-2.103 1.202 0 2.103.977 2.103 2.179 0 1.126-.976 2.103-2.178 2.103zm-19.606-12.77h3.23c2.254 0 3.456 1.127 3.456 3.155v.075c0 2.028-1.202 3.23-3.456 3.23h-3.155v-6.46h-.075zm3.155 5.033c1.127 0 1.578-.601 1.578-1.803v-.075c0-1.202-.451-1.728-1.578-1.728H92.47v3.606h1.277zm7.887-5.108c-1.953 0-3.38 1.352-3.38 3.305v.075c0 1.953 1.277 3.305 3.38 3.305 2.104 0 3.456-1.352 3.456-3.305v-.075c0-2.103-1.427-3.305-3.456-3.305zm1.803 3.305c0 1.052-.751 1.728-1.803 1.728-1.051 0-1.727-.676-1.727-1.728v-.075c0-1.052.751-1.728 1.803-1.728.976.075 1.727.751 1.727 1.803zm-2.328-4.432a.674.674 0 00-.676-.676c-.376 0-.677.3-.677.676 0 .376.301.676.677.676.375 0 .676-.3.676-.676zm2.253 0c0-.376-.3-.676-.676-.676-.375 0-.676.3-.676.676 0 .376.301.676.676.676.376 0 .676-.3.676-.676z" fill="#5A667B"/></svg>