<svg width="131" height="67" fill="none" xmlns="http://www.w3.org/2000/svg"><path d="M35.282 41.88h12.42v2.649h-9.53v6.588h9.281v2.654h-9.28v8.923h9.536v2.641H35.281V41.881zm55.109 11.891v8.93h9.55v2.635H87.526V41.894H99.94v2.641h-9.556v6.576h9.306v2.667c-3.096-.007-6.185-.007-9.3-.007zM68.76 59.31c.94-.204 1.86-.403 2.794-.607.064.383.109.748.186 1.113.448 2.053 2.162 3.242 4.15 3.32 1.76.063 3.129-.679 3.934-2.233.704-1.35.851-2.802.167-4.24-.32-.679-.89-1.158-1.529-1.497-.966-.518-1.97-.96-2.942-1.452-1.12-.563-2.27-1.081-3.326-1.746-.94-.595-1.682-1.453-2.073-2.52-.614-1.676-.53-3.327.378-4.887.672-1.152 1.65-1.983 2.872-2.52 1.868-.825 3.773-.928 5.692-.25 1.1.39 1.983 1.113 2.706 2.021.275.346.518.717.8 1.107-.794.48-1.536.927-2.265 1.375-.3-.364-.563-.71-.85-1.03-1.26-1.4-3.653-1.612-5.188-.588-.806.537-1.413 1.196-1.605 2.155-.218 1.1.153 2.04.991 2.744.474.397 1.036.71 1.6.972.927.43 1.912.723 2.826 1.177.934.46 1.843.979 2.693 1.568 1.024.703 1.708 1.694 2.085 2.897.5 1.58.576 3.153.032 4.733-.396 1.151-1.08 2.117-1.963 2.949-2.162 2.034-5.546 2.61-8.194 1.292-2.251-1.12-3.537-2.987-3.96-5.456-.012-.07-.018-.147-.025-.224.013-.051.013-.096.013-.173zm-17.622.007c1.004-.218 1.938-.416 2.82-.608.135.582.205 1.151.397 1.67.544 1.464 1.644 2.34 3.14 2.654 1.791.377 3.327-.128 4.459-1.6.748-.971.92-2.136.876-3.332-.045-1.183-.608-2.117-1.6-2.718-.914-.556-1.892-1.01-2.845-1.503-1.241-.633-2.552-1.145-3.71-1.906-1.868-1.222-2.693-3.045-2.444-5.29.173-1.567.922-2.846 2.169-3.793 2.18-1.65 4.599-1.95 7.163-1.087 1.312.441 2.885 1.938 3.378 3.128-.723.454-1.459.908-2.169 1.356-.326-.384-.594-.755-.914-1.081-1.324-1.344-3.48-1.568-5.085-.576-.761.473-1.35 1.08-1.606 1.944-.275.928-.083 1.798.506 2.559.428.556.991.972 1.637 1.247.902.39 1.823.71 2.725 1.1 1.292.557 2.54 1.196 3.614 2.13 1.362 1.17 1.88 2.725 2.02 4.44.154 1.924-.383 3.645-1.643 5.122-1.286 1.51-2.93 2.354-4.887 2.617-1.605.21-3.115-.103-4.483-.928-1.535-.927-2.642-2.258-3.16-4.01-.147-.486-.237-.998-.358-1.535zm65.151-.007a368.99 368.99 0 002.821-.614c.051.34.089.666.153.985.384 1.88 1.721 3.051 3.544 3.384 1.535.281 2.872-.154 3.965-1.267a3.753 3.753 0 001.062-2.206 9.952 9.952 0 00.013-2.092c-.064-.678-.441-1.234-.947-1.688-.934-.838-2.066-1.337-3.191-1.849-1.196-.55-2.418-1.068-3.557-1.72-1.343-.768-2.309-1.907-2.68-3.454-.332-1.388-.217-2.712.474-3.992 1.087-2.008 2.84-2.993 5.021-3.345a7.164 7.164 0 013.524.3c1.183.41 2.117 1.171 2.885 2.137.256.32.479.672.742 1.043-.787.48-1.529.927-2.213 1.343-.448-.48-.819-.972-1.28-1.356-1.279-1.068-3.409-1.247-4.963-.128-1.024.736-1.644 1.663-1.478 2.974.122.972.672 1.72 1.491 2.194.754.441 1.58.78 2.398 1.107 1.427.569 2.821 1.196 4.081 2.085 1.414.998 2.245 2.366 2.526 4.061.263 1.548.154 3.058-.562 4.484a7.557 7.557 0 01-1.555 2.092c-1.733 1.637-3.805 2.283-6.153 2.014a6.4 6.4 0 01-3.07-1.177c-1.772-1.317-2.801-3.063-3.051-5.315zM104.61 41.887h2.853v20.8h7.016v2.649h-9.869V41.887zM.006 20.843h1.702v5.936c.172-.16.268-.25.358-.339l5.392-5.411c.07-.07.173-.154.262-.154.678-.012 1.356-.006 2.124-.006-2.111 2.06-4.158 4.062-6.224 6.083 2.098 2.475 4.183 4.938 6.32 7.464-.78 0-1.49.013-2.194-.013-.109-.006-.23-.14-.314-.243-1.209-1.458-2.411-2.923-3.62-4.387-.454-.55-.915-1.094-1.388-1.657-.41.352-.755.646-.729 1.28.058 1.54.02 3.089.02 4.636v.378H0c.006-4.529.006-9.044.006-13.566zm27.299-.62c3.474 3.595 6.876 7.126 10.35 10.72V20.888h1.74v14.04c-3.474-3.55-6.909-7.068-10.42-10.65v10.113h-1.67V20.223zm-9.53.359c-3.819.05-7.074 3.146-7.08 7.093-.007 3.806 3.223 7.234 7.624 7.049 3.473-.148 6.888-3.122 6.824-7.01.09-3.902-3.287-7.19-7.368-7.132zm5.66 7.393a5.47 5.47 0 01-5.551 5.181c-3.039.02-5.693-2.552-5.488-5.89.16-2.674 2.545-5.245 5.648-5.156 2.955.083 5.552 2.444 5.392 5.866zm44.959-2.462c-.761-2.29-2.34-3.819-4.605-4.567-1.88-.627-3.767-.525-5.54.422-2.462 1.311-3.843 3.358-3.926 6.166-.07 2.155.793 3.953 2.405 5.379 1.202 1.062 2.603 1.644 4.215 1.778 2.014.166 3.773-.41 5.315-1.701 1.65-1.388 2.45-3.166 2.514-5.648-.084-.397-.148-1.139-.378-1.83zm-6.882 7.643c-3.14 0-5.386-2.488-5.52-5.206-.166-3.307 2.603-6.045 5.852-5.834 2.84.18 5.2 2.412 5.2 5.61-.006 3.006-2.487 5.443-5.532 5.43zm-8.565-5.916c-.05-1.785-.716-3.288-2.034-4.49-.78-.71-1.714-1.145-2.711-1.452-1.9-.582-3.857-.429-5.802-.422-.019 0-.032.019-.07.038V34.41h.364c.96 0 1.92-.006 2.879 0 1.56.02 3.019-.339 4.368-1.12 1.075-.62 1.823-1.547 2.348-2.634.511-1.062.697-2.22.658-3.416zm-2.34 2.993c-.506.947-1.28 1.619-2.246 2.053-1.356.608-2.801.66-4.26.583-.019 0-.038-.02-.07-.039V22.424c.045-.013.096-.045.14-.045 1.293-.007 2.579.051 3.807.505.92.34 1.727.87 2.315 1.644.518.678.806 1.497.883 2.36.108 1.164-.007 2.29-.57 3.345zm24.657-1.688c.166-.039.262-.052.352-.077 1.388-.352 2.385-1.177 2.782-2.552.659-2.277-.53-4.657-3.243-4.925-1.317-.135-2.654-.09-3.985-.128-.038 0-.076.019-.115.032V34.39h1.727v-5.7c.346.04.646-.102.896.257a377.462 377.462 0 003.697 5.168c.076.108.185.268.281.268.633.026 1.26.013 1.964.013-1.472-1.97-2.898-3.889-4.356-5.852zm-2.475-1.241V22.36c1.023.032 2.046-.032 2.987.434.965.474 1.375 1.433 1.17 2.546-.166.896-.69 1.433-1.535 1.695-.844.269-1.708.314-2.623.269zm58.211 7.1c-2.795 0-5.584.006-8.379 0a.675.675 0 01-.416-.173 3490.138 3490.138 0 01-8.264-8.239.56.56 0 01-.159-.358c-.007-3.28-.007-6.569-.007-9.85 0-.045.013-.083.019-.147 2.827 2.834 5.635 5.654 8.45 8.475.038-.02.076-.045.108-.064.007-.096.02-.198.02-.294 0-2.092.006-4.177-.007-6.268a.664.664 0 00-.179-.442 1794.175 1794.175 0 00-6.991-7.023c-.121-.121-.313-.179-.435-.307-.256-.275-.486-.575-.729-.863-.166-.199-.371-.275-.646-.275-1.503.012-3.006 0-4.509.012a.743.743 0 00-.493.205c-2.52 2.501-5.027 5.008-7.535 7.516-.249.25-.505.486-.741.748a.574.574 0 00-.148.358c-.006 2.156-.006 4.305-.006 6.46 0 .058.013.116.026.18 2.827-2.834 5.641-5.648 8.449-8.47a.7.7 0 00.096.052c.006.083.025.173.025.256 0 3.23 0 6.46-.006 9.69 0 .14-.077.314-.179.41-2.731 2.744-5.469 5.475-8.206 8.206a.678.678 0 01-.435.192c-2.7.013-5.392.006-8.091.006-.084 0-.167-.013-.282-.026v-.39c0-6.025 0-12.044-.006-18.069 0-.288.077-.492.268-.704 1.663-1.854 3.314-3.722 4.97-5.583 2.188-2.456 4.375-4.913 6.569-7.369.448-.499.921-.978 1.369-1.47.173-.193.307-.43.486-.615a.568.568 0 01.377-.166c3.857-.007 7.721-.007 11.577 0 .141 0 .32.102.423.21 1.362 1.51 2.705 3.033 4.061 4.555a6101.56 6101.56 0 015.834 6.569 866.44 866.44 0 003.441 3.863c.083.096.185.173.281.256v18.946zm-98.571 7.464c-3.205 8.136-6.377 16.214-9.588 24.37-2.22-5.764-4.407-11.444-6.626-17.213-2.2 5.795-4.369 11.5-6.556 17.283L.026 41.868h.85c.672 0 1.344.006 2.015-.007.192 0 .282.064.352.244 1.158 3.012 2.322 6.018 3.486 9.03.94 2.444 1.887 4.888 2.827 7.33.02.052.045.097.115.225 2.194-5.802 4.356-11.533 6.55-17.321 2.213 5.795 4.4 11.513 6.614 17.314.09-.21.16-.358.217-.505.608-1.593 1.215-3.179 1.83-4.771.786-2.034 1.573-4.068 2.36-6.109.652-1.701 1.305-3.396 1.944-5.104.096-.25.224-.333.486-.326.89.006 1.785 0 2.757 0z" fill="#5A667B"/></svg>