<svg width="166" height="48" fill="none" xmlns="http://www.w3.org/2000/svg"><path d="M31.634 17.4h-3.167v6.148h3.167V17.4z" fill="#5A667B"/><path d="M41.806 23.846c0 3.13-.783 6.037-2.198 8.608h-4.583V13.972h-9.986V32.38h3.428v-5.403h3.167v13.75h-3.279V35.51h-9.017v5.216h-3.316V26.79h3.316v5.59h3.39v-8.87h-2.906l2.795-9.538h-3.54l-3.13 9.724v-9.724H12.52v18.48H8.05a18.391 18.391 0 01-2.125-8.607c0-9.91 8.011-17.922 17.922-17.922 9.912 0 17.96 8.011 17.96 17.922z" fill="#5A667B"/><path d="M0 0v47.73h47.73V0H0zm23.846 44.414c-11.364 0-20.567-9.203-20.567-20.568 0-11.364 9.24-20.53 20.567-20.53 11.365 0 20.568 9.203 20.568 20.568 0 11.364-9.203 20.53-20.568 20.53zm47.433-29.473c.596-.41 1.08-.521 1.751-.521.298 0 .67.037.894.111.112-.82.224-1.676.224-2.533-.186-.075-.522-.112-.67-.112-.597 0-1.193.112-2.05 1.341h-.112v-1.23c-.782 0-1.751.038-2.46.15v9.352h2.46v-6.558h-.037zm-10.955 2.795l1.155-1.379 3.056 5.254c.782 0 2.049-.112 2.757-.224a94.987 94.987 0 00-4.136-7.042l3.912-4.844c-.745-.186-2.049-.26-2.757-.26l-1.49 1.9c-.857 1.118-1.677 2.273-2.385 3.54h-.112V9.315H57.68v12.184h2.645v-3.763zm43.222 3.949c.932 0 1.751-.335 2.497-.968h.111c.336.745.932.968 1.752.968.968 0 1.714-.372 1.714-1.64v-.819h-.969c-.447 0-.559-.149-.559-.633v-5.627c-.932-.745-2.496-1.117-3.875-1.117-.932 0-1.863.149-2.683.372.037.783.187 1.602.336 2.199a6.145 6.145 0 012.123-.41c.634 0 1.304.074 1.752.372v1.64l-1.491.037c-2.273.075-3.54.782-3.54 2.87-.037 1.9 1.156 2.756 2.832 2.756zm.708-4.024l1.491-.037v1.751c-.41.298-1.081.447-1.603.447-.67 0-1.006-.298-1.006-1.006 0-.894.298-1.117 1.118-1.155zm-7.08 4.025c.522 0 1.566-.187 2.05-.448a17.449 17.449 0 00-.336-2.086c-.298.149-.894.298-1.34.298-.82 0-1.193-.112-1.193-1.006v-4.248h2.31c.075-.745.112-1.453.112-2.124h-2.46V9.688c-.745.037-1.713.223-2.459.41v1.937h-1.08v2.124h1.08v4.099c.038 2.347 1.08 3.428 3.316 3.428zM86.63 21.5h2.46v-7.304h1.862c.075-.708.15-1.416.15-2.124h-2.05v-.856c0-.671.223-1.007.894-1.007.224 0 .82.038 1.006.075.075-.708.112-1.453.112-2.161-.186-.037-.82-.075-1.23-.075-1.825 0-3.241 1.267-3.241 3.354v.633h-1.08v2.124h1.08v7.34h.037zm-8.458.185c.931 0 1.751-.335 2.46-.968h.111c.335.745.931.968 1.751.968.969 0 1.714-.372 1.714-1.64v-.819h-.969c-.447 0-.559-.149-.559-.633v-5.627c-.931-.745-2.496-1.117-3.875-1.117-.931 0-1.863.149-2.682.372.037.783.186 1.602.335 2.199a6.153 6.153 0 012.124-.41c.633 0 1.304.074 1.751.372v1.64l-1.49.037c-2.273.075-3.54.782-3.54 2.87 0 1.9 1.192 2.756 2.869 2.756zm.708-4.024l1.49-.037v1.751c-.41.298-1.08.447-1.602.447-.67 0-1.006-.298-1.006-1.006 0-.894.298-1.117 1.118-1.155zm45.346-9.613c-.783 0-1.751.075-2.459.15v13.301h2.459V8.05zm-7.713 7.042v6.41h2.459v-6.67c0-2.162-1.267-2.944-2.757-2.944-.783 0-1.528.149-2.459 1.08h-.112v-.931c-.783 0-1.751.037-2.459.15v9.351h2.459v-7.042a2.99 2.99 0 011.639-.484c.969 0 1.23.335 1.23 1.08zm17.326 3.503v-5.627c-.932-.745-2.497-1.117-3.875-1.117-.932 0-1.863.149-2.683.372.037.783.186 1.602.335 2.199a6.155 6.155 0 012.124-.41c.634 0 1.304.074 1.751.372v1.64l-1.49.037c-2.273.075-3.54.782-3.54 2.87 0 1.9 1.193 2.72 2.832 2.72.931 0 1.751-.336 2.496-.97h.112c.336.745.932.97 1.751.97.969 0 1.714-.373 1.714-1.64v-.82h-.968c-.448.037-.559-.112-.559-.596zm-2.348.782c-.41.298-1.08.447-1.602.447-.671 0-1.006-.298-1.006-1.006 0-.857.298-1.08 1.118-1.117l1.49-.038v1.714zm11.067-7.377v.82h-.112c-.671-.708-1.416-.932-2.198-.932-1.789 0-3.205 1.49-3.205 4.658 0 3.167 1.155 4.657 3.205 4.657.782 0 1.527-.224 2.198-.931h.112v-1.454c-.336.187-.857.336-1.491.336-.857 0-1.527-.634-1.527-2.608 0-1.975.67-2.609 1.527-2.609.634 0 1.193.15 1.528.336v7.228c0 1.379-.522 1.64-1.826 1.714-.782.037-1.788-.298-2.31-.522a15.206 15.206 0 00-.484 2.087c1.043.373 1.788.522 2.794.522 2.757 0 4.248-1.826 4.248-3.503v-9.65c-.745-.112-1.714-.15-2.459-.15zm19.785-.112c-.783 0-1.528.149-2.497 1.08h-.111v-.931c-.783 0-1.752.037-2.46.15v9.351h2.46v-7.042a2.99 2.99 0 011.639-.484c1.043 0 1.267.335 1.267 1.08v6.41h2.459v-6.67c0-2.199-1.267-2.944-2.757-2.944zm-11.141 0c-2.422 0-4.173 1.714-4.173 5.03 0 3.13 1.677 4.77 4.657 4.77.857 0 2.273-.187 3.13-.597-.112-.745-.298-1.676-.521-2.31-.597.335-1.714.596-2.534.596-1.602 0-2.087-.596-2.087-1.788v-.075h5.217c.037-.447.074-1.043.074-1.416 0-2.533-1.118-4.21-3.763-4.21zm1.267 3.987h-2.795c0-1.528.559-2.161 1.491-2.161.931 0 1.304.559 1.304 1.676.037.075.037.373 0 .485zM76.793 38.34v-5.626c-.931-.745-2.496-1.117-3.875-1.117-.931 0-1.863.149-2.683.372.038.783.187 1.602.336 2.199a6.156 6.156 0 012.124-.41c.67 0 1.304.074 1.75.372v1.603l-1.49.037c-2.272.074-3.54.782-3.54 2.869 0 1.9 1.193 2.72 2.832 2.72.932 0 1.752-.336 2.497-.969h.112c.335.783.931.969 1.751.969.969 0 1.714-.373 1.714-1.64v-.82h-.969c-.447.075-.559-.074-.559-.558zm-2.347.783c-.41.298-1.08.447-1.602.447-.671 0-1.006-.298-1.006-1.006 0-.857.298-1.08 1.118-1.117l1.49-.075v1.751zm52.649-7.414v.82h-.112c-.671-.709-1.416-.932-2.199-.932-1.788 0-3.204 1.49-3.204 4.657s1.155 4.658 3.204 4.658c.783 0 1.528-.224 2.199-.932h.112v-1.453c-.336.186-.857.335-1.491.335-.857 0-1.527-.633-1.527-2.608s.67-2.608 1.527-2.608c.634 0 1.193.149 1.528.335v7.229c0 1.378-.522 1.64-1.826 1.714-.782.037-1.788-.298-2.31-.522a15.058 15.058 0 00-.484 2.087c1.043.372 1.788.521 2.794.521 2.757 0 4.248-1.825 4.248-3.502v-9.65a26.42 26.42 0 00-2.459-.15zm-16.097 7.228a3.246 3.246 0 01-1.49.335c-1.118 0-1.453-.372-1.453-1.155v-6.371c-.783 0-1.714.074-2.46.149v6.595c0 2.198 1.305 2.98 2.795 2.98.857 0 1.639-.26 2.459-1.005h.112v.82h2.459v-9.54c-.782 0-1.714.075-2.459.15v7.042h.037zm-10.619-6.819c-.783 0-1.528.224-2.199.932h-.111v1.453c.335-.186.857-.335 1.49-.335.857 0 1.528.633 1.528 2.608s-.671 2.608-1.528 2.608c-.633 0-1.192-.149-1.528-.335V27.834c-.782 0-1.75.074-2.459.149v13.301h2.46v-.82h.111c.67.709 1.416.932 2.199.932 1.788 0 3.204-1.49 3.204-4.657s-1.118-4.62-3.167-4.62zm-9.576-.298c-.782 0-1.528.15-2.496 1.08l-.41.41c-.447-1.043-1.416-1.452-2.497-1.452-.782 0-1.527.149-2.496 1.08h-.112v-.931c-.782 0-1.751.037-2.459.149v9.352h2.46v-7.08a2.993 2.993 0 011.639-.484c1.006 0 1.266.335 1.266 1.043v6.446h2.46V34.43a2.993 2.993 0 011.64-.485c1.042 0 1.266.335 1.266 1.08v6.41h2.46v-6.67c.036-2.199-1.23-2.944-2.72-2.944zm-26.045 2.273h-4.434V29.25H57.68v12.184h2.645v-5.142h4.434v5.142h2.646V29.25h-2.646v4.844zm53.282-.931h-.111v-1.23c-.783 0-1.752.037-2.46.15v9.351h2.46v-6.557c.596-.41 1.08-.522 1.751-.522.298 0 .671.037.894.112.112-.82.224-1.677.224-2.534-.187-.074-.522-.112-.671-.112-.596 0-1.192.112-2.087 1.342z" fill="#5A667B"/></svg>