<svg width="146" height="44" fill="none" xmlns="http://www.w3.org/2000/svg"><path d="M30.62 18.4h11.742c1.297 7.979-3.212 18.975-14.674 22.585C16.98 44.355 6.233 38.782 2.212 30.21c.188 0 .357-.019.526-.019h13.171c2.875 0 5.75.019 8.605 0 2.574-.018 4.81-1.555 5.712-3.906.263-.703.413-1.425.394-2.166V18.4zm9.751-6.627H18.295c-1.804 0-3.363.574-4.622 1.87-1.146 1.166-1.71 2.554-1.729 4.165-.018 1.74 0 3.499 0 5.239v.5H.22C-1.057 15.9 3.151 4.812 14.67 1.073c10.766-3.517 21.588 2.018 25.702 10.7zm77.427 15.902v-.445c-.094-.037-.112-.055-.15-.055-1.992-.24-3.983-.352-5.975-.26a8.086 8.086 0 00-2.292.427c-1.559.518-2.574 1.555-2.931 3.147a12.566 12.566 0 000 5.294c.376 1.722 1.484 2.832 3.213 3.314a8.632 8.632 0 003.081.259c.432-.037.864-.074 1.353-.111-.019.352-.038.666-.056.963-.038.536-.339.888-.865 1.018a6.055 6.055 0 01-1.296.166c-1.466-.018-2.912-.092-4.359-.13h-.564a42.688 42.688 0 000 2.148c.132.037.226.074.301.093 2.01.351 4.021.5 6.05.37.808-.056 1.616-.204 2.367-.518 1.128-.482 1.804-1.315 2.011-2.5.056-.37.094-.74.094-1.11.018-4.054.018-8.072.018-12.07zm-3.72 8.811c-.657.13-1.296.13-1.935.112-.263 0-.545-.056-.789-.111-.601-.149-1.015-.519-1.184-1.093a4.287 4.287 0 01-.206-1.073c-.038-.796-.019-1.592 0-2.388a4.27 4.27 0 01.169-.963c.206-.703.695-1.11 1.428-1.259.845-.166 1.672-.074 2.498.037.076.333.113 5.905.019 6.738zM66.731 23.565v2.777c-.188.018-.357.037-.526.037h-5.768c-.169 0-.357.018-.563.018v3.444h6.425c.019.907 0 1.777 0 2.703-.432.074-.845.018-1.259.037h-5.204c-.019 1.295 0 2.554 0 3.85.225.019.395.019.564.019h5.768c.169 0 .357.018.545.018v2.814H55.872v-15.68c.338-.11 10.127-.13 10.86-.037zm31.377-5.22h-3.701V1.85c1.203-.056 2.405 0 3.683-.038.037 1.648 0 3.259.018 4.943.17-.055.301-.092.414-.148 1.334-.537 2.705-.759 4.133-.61 1.691.166 2.781 1.073 3.119 2.72.113.519.169 1.056.188 1.592.019 2.555 0 5.128 0 7.683 0 .093-.019.204-.019.296-.376.111-3.269.111-3.72 0v-7.571a6.26 6.26 0 00-.094-1.018c-.131-.611-.507-.907-1.127-.963-.921-.074-1.785.111-2.63.444-.189.074-.264.185-.245.37v8.22c-.019.166-.019.352-.019.574zm-42.425-.111v-2.5h.677c1.409.075 2.818.167 4.227.204a4.86 4.86 0 001.372-.148c1.165-.296 1.352-1.166 1.165-2.092-.057-.315-.282-.555-.564-.722a7.3 7.3 0 00-1.071-.555c-.883-.389-1.766-.74-2.65-1.13a21.005 21.005 0 01-1.446-.721c-1.672-.982-2.273-2.481-2.16-4.332.018-.222.037-.445.093-.667.245-1.184.921-2.036 2.03-2.554a6.572 6.572 0 012.198-.593c2.217-.24 4.415-.074 6.576.352.075.019.131.056.225.093v2.425c-.282.074-.563.018-.845 0-1.522-.13-3.063-.241-4.585-.148-.32.018-.657.092-.958.203-.902.352-1.09 1.592-.338 2.185.3.24.657.407 1.015.555.807.352 1.653.648 2.46 1 .696.314 1.391.63 2.049 1.018 1.371.833 2.048 2.073 2.029 3.665 0 .519-.038 1.037-.15 1.537-.282 1.296-1.09 2.221-2.293 2.795-.732.352-1.521.518-2.348.61-1.278.13-2.555.075-3.814-.036-.827-.074-1.635-.204-2.462-.296-.112-.074-.244-.111-.432-.148zm13.66 21.011V27.286c.32-.111 2.686-.148 3.438-.056.019.278.056.556.075.89.188-.094.338-.168.47-.242.883-.462 1.785-.833 2.78-.962.865-.111 1.71-.074 2.537.166 1.015.297 1.71.944 1.973 1.944a7.99 7.99 0 01.263 1.759c.037 2.721.019 5.442.019 8.164 0 .092-.02.166-.02.277h-3.7c0-.185-.02-.351-.02-.518v-7.016a8.4 8.4 0 00-.093-1.185c-.075-.481-.395-.777-.902-.87-.45-.093-.902-.037-1.334.074-.488.13-.977.296-1.465.444-.245.074-.32.204-.32.463.019.852 0 1.685 0 2.536v6.017c-.338.148-2.93.185-3.701.074zm65.102-32.933h3.438c.019.296.038.574.057.925.225-.11.394-.203.563-.296 1.315-.703 2.687-1.092 4.19-.944.282.037.564.056.846.13 1.183.277 1.972 1 2.217 2.184.131.611.225 1.222.225 1.851.019 2.629.019 5.24.019 7.868 0 .092-.019.166-.019.26-.338.092-3.044.129-3.701.036 0-.166-.019-.333-.019-.5v-7.145c0-.315-.019-.648-.094-.963-.131-.648-.488-.926-1.165-.963-.526-.037-1.014.056-1.503.204-.451.13-.883.296-1.371.463v8.96h-3.645c-.076-.37-.132-11.182-.038-12.07zM94.876 30.748c-.488-2.018-1.747-3.314-3.832-3.74a9.048 9.048 0 00-3.664.019c-2.03.407-3.307 1.629-3.758 3.61a11.917 11.917 0 00.038 5.46c.376 1.63 1.428 2.685 3.062 3.11.695.186 1.41.297 2.123.334a18.65 18.65 0 003.946-.167c.582-.074 1.146-.203 1.71-.296v-2.425a83.39 83.39 0 00-.921.056c-1.371.055-2.762.13-4.133.148-.433 0-.865-.093-1.278-.204a1.29 1.29 0 01-.902-.796c-.207-.5-.225-1.018-.169-1.61 2.687-.019 5.355-.019 8.004-.038.037-.11.056-.148.056-.185 0-1.11-.019-2.203-.282-3.276zm-3.438 1.462h-4.302c-.433-1.518.657-2.832 2.254-2.74l.489.056c.732.13 1.24.518 1.428 1.24.131.463.206.926.131 1.444zm47.535 2c.056-1.481.019-2.87-.488-4.203-.583-1.573-1.71-2.536-3.345-2.943-1.296-.315-2.593-.296-3.889-.056-2.067.408-3.363 1.648-3.795 3.684a12.205 12.205 0 00.037 5.406c.376 1.61 1.409 2.666 3.025 3.091.677.185 1.391.297 2.086.334 1.54.11 3.1 0 4.622-.26.376-.055.751-.148 1.146-.24.019-.815.037-1.592 0-2.407-.357.019-.658.037-.958.056-1.391.055-2.762.13-4.134.148-.432 0-.864-.111-1.277-.204a1.325 1.325 0 01-.808-.61c-.32-.556-.32-1.148-.282-1.815h8.06v.019zm-7.215-4.37c.677-.48 2.029-.462 2.743-.018.545.333.94 1.277.771 2.388h-4.322c-.018-.925 0-1.777.808-2.37zm.169-16.53c0-.667.019-1.26 0-1.852a7.627 7.627 0 00-.432-2.258c-.563-1.593-1.672-2.592-3.344-3.018-1.146-.278-2.292-.296-3.438-.148-2.387.296-3.908 1.703-4.359 4.017-.226 1.222-.226 2.444-.132 3.665.038.667.169 1.315.376 1.963.432 1.203 1.24 2.036 2.461 2.499.658.24 1.334.37 2.011.444 1.822.167 3.626.037 5.429-.277.282-.056.545-.13.79-.186.093-.666.056-2.073-.038-2.388-.451.019-.902.056-1.334.074a119.93 119.93 0 01-3.645.13c-.413 0-.827-.093-1.24-.204-.357-.092-.658-.277-.864-.61-.339-.556-.339-1.167-.301-1.852h8.06zm-7.139-4.425c.695-.463 2.029-.463 2.705.018.827.593.827 1.463.808 2.388h-4.359c-.037-.925-.019-1.814.846-2.406zM80.015 10.44c0-.444-.038-.888-.094-1.333-.188-1.259-.77-2.24-2.03-2.702a7.905 7.905 0 00-1.615-.39c-1.466-.184-2.912-.092-4.34.186-.62.11-1.24.296-1.86.444v2.203c.263-.018.47-.018.676-.037 1.221-.055 2.424-.111 3.645-.148.376 0 .751.074 1.108.148.376.074.62.352.714.722.132.518.094 1.037.057 1.61h-.564c-.958.038-1.916.038-2.875.093a5.674 5.674 0 00-1.916.444c-.94.408-1.522 1.111-1.653 2.11-.076.649-.113 1.297-.057 1.945.15 1.684 1.052 2.61 2.743 2.85 1.485.223 2.894-.092 4.228-.777.15-.074.282-.148.47-.222.018.277.037.481.056.74 1.127 0 2.236.019 3.344-.018 0-.185.019-.315.019-.445-.056-2.462-.056-4.942-.056-7.423zm-3.946 5.498c-.714.278-1.466.444-2.236.389-.733-.056-1.127-.426-1.146-1.148v-.796c.038-.74.376-1.147 1.127-1.277.357-.056.714-.074 1.071-.093.451-.018.902 0 1.353 0 .038 0 .075.037.188.074v.5c0 .611-.019 1.204 0 1.814.019.297-.094.445-.357.537zm32.504.056c.977.074 1.879.148 2.762.185.77.018 1.56-.019 2.33-.037.131 0 .263-.056.394-.093.414-.13.639-.407.677-.851.037-.426-.113-.76-.508-.963a6.47 6.47 0 00-.826-.352c-.695-.277-1.409-.5-2.105-.814a7.856 7.856 0 01-1.503-.815c-1.428-1-1.916-2.925-1.183-4.48.263-.555.695-.962 1.24-1.24.582-.296 1.202-.444 1.86-.518 1.935-.204 3.87-.074 5.768.333.056.018.113.037.188.074v2.24c-.451-.037-.883-.074-1.315-.074-1.184-.037-2.368-.037-3.551-.056-.113 0-.207.019-.32.037-.263.074-.526.167-.582.482-.075.333-.057.666.263.888.188.13.413.26.62.333.62.241 1.277.463 1.897.704.583.24 1.184.463 1.729.759 1.559.851 2.067 1.907 1.86 3.776-.15 1.37-.977 2.259-2.273 2.722-.771.277-1.579.388-2.387.425-1.634.074-3.269-.074-4.885-.388a2.336 2.336 0 00-.187-.056c.037-.74.037-1.462.037-2.221zM91.964 6.423v2.48c-.225-.018-.413-.018-.601-.037-.958-.037-1.916-.092-2.875-.13a5.96 5.96 0 00-.808.075c-.676.11-1.165.5-1.352 1.166a4.967 4.967 0 00-.207 1.388c-.019.778 0 1.537.019 2.315 0 .24.056.462.112.703.226.926.79 1.444 1.767 1.48.845.038 1.672-.018 2.517-.036.47-.019.92-.037 1.428-.074v2.462c-.263.055-.526.13-.808.185-1.24.222-2.499.333-3.757.278-.714-.037-1.428-.148-2.105-.408-1.108-.425-1.879-1.184-2.348-2.258-.338-.777-.489-1.592-.508-2.425-.018-1.074 0-2.166.076-3.24.037-.537.188-1.092.375-1.592.564-1.536 1.748-2.35 3.326-2.666 1.202-.222 2.386-.166 3.588-.055.64.055 1.278.204 1.917.296a.75.75 0 00.244.093zm5.674 20.77h3.364c.018.297.018.574.037.944.62-.444 1.203-.796 1.879-.98.676-.186 1.372-.297 2.142-.241 0 1 .019 1.999-.019 3.036-1.296.037-2.536.185-3.776.61v8.72h-3.627c-.075-.352-.112-11.496 0-12.089zm26.887 12.089h-3.57c-.094-.315-.132-11.496-.019-12.033h3.57c.094.333.113 11.422.019 12.033zm.094-13.792h-3.777v-2.665c.301-.111 3.044-.13 3.758-.056.094.315.113 2.129.019 2.721z" fill="#5A667B"/></svg>