<svg width="146" height="28" fill="none" xmlns="http://www.w3.org/2000/svg"><path d="M0 27.711h83.134V.001H0v27.71z" fill="#5A667B"/><path d="M48.937 11.734h8.988V4.618h4.232v7.116h8.988l-7.233-7.116h5.366l9.237 9.237-9.237 9.238h-5.366l7.233-7.117h-8.988v7.117h-4.232v-7.117h-8.988l7.23 7.117h-5.363l-9.237-9.238 9.237-9.237h5.364" fill="#fff"/><path d="M91.714 17.575c-.054 4.782 3.966 6.9 8.257 6.9 5.271 0 8.069-2.66 8.069-6.22 0-4.4-4.347-5.296-5.76-5.648-4.863-1.251-5.784-1.442-5.784-2.935 0-1.63 1.574-2.2 2.932-2.2 2.038 0 3.695.597 3.83 2.933h4.129c0-4.482-3.721-6.246-7.768-6.246-3.504 0-7.253 1.901-7.253 5.867 0 3.639 2.906 4.753 5.787 5.513 2.852.76 5.757 1.115 5.757 3.204 0 1.984-2.282 2.42-3.775 2.42-2.283 0-4.291-1.008-4.291-3.588" fill="#5A667B"/><path fill-rule="evenodd" clip-rule="evenodd" d="M114.936 7.934h3.993c1.52 0 2.932.38 2.932 2.227 0 1.63-1.114 2.309-2.607 2.309h-4.318V7.934zm-4.264 16.08h9.396c3.504 0 6.847-1.684 6.847-5.623 0-2.417-1.197-4.237-3.56-4.917 1.686-.813 2.636-2.145 2.636-4.046 0-3.612-2.5-4.807-6.194-4.807h-9.125v19.393zm4.264-8.638h4.643c1.821 0 3.069.789 3.069 2.77 0 2.01-1.466 2.554-3.15 2.554h-4.562m19.088-12.766h3.992c1.52 0 2.933.38 2.933 2.227 0 1.63-1.114 2.309-2.608 2.309h-4.317V7.934zm-4.267 16.08h9.398c3.504 0 6.845-1.684 6.845-5.623 0-2.417-1.195-4.237-3.558-4.917 1.684-.813 2.634-2.145 2.634-4.046 0-3.612-2.497-4.807-6.192-4.807h-9.127v19.393zm4.267-8.638h4.642c1.821 0 3.07.789 3.07 2.77 0 2.01-1.466 2.554-3.15 2.554h-4.562" fill="#5A667B"/></svg>