<svg width="21" height="37" fill="none" xmlns="http://www.w3.org/2000/svg"><path d="M5.279 36a.43.43 0 01-.178-.039l-.024-.008a.438.438 0 01-.231-.503l3.71-13.729H1.429a.403.403 0 01-.363-.224c-.085-.17-.085-.364-.008-.48l12.649-19.8A.492.492 0 0114.1 1a.5.5 0 01.147.023c.186.07.31.294.286.504l-2.118 13.79h7.136c.131 0 .31.04.402.225a.51.51 0 01-.023.472L5.626 35.861l-.015.023a.51.51 0 01-.332.116z" stroke="#fff" stroke-width="2" stroke-miterlimit="10" stroke-linecap="round" stroke-linejoin="round"/></svg>