<svg width="39" height="44" fill="none" xmlns="http://www.w3.org/2000/svg"><path d="M27.13 0a.848.848 0 00-.847.848v3.9a.848.848 0 001.695 0v-3.9A.848.848 0 0027.13 0zM39 24.756a3.395 3.395 0 00-3.391-3.39h-6.33c.98-2.51 1.377-5.465 1.3-8.095a9.67 9.67 0 00-.06-.974 3.396 3.396 0 00-3.389-3.31 3.395 3.395 0 00-3.39 3.391v.848c0 5.362-6.886 8.375-12.083 9.667a2.547 2.547 0 00-2.33-1.528H.846a.848.848 0 00-.847.848V42.56c0 .468.38.848.848.848h8.478a2.546 2.546 0 002.323-1.51c.43.11.83.214 1.199.31 2.96.774 4.59 1.2 8.556 1.2h9.118a3.395 3.395 0 003.391-3.392c0-.697-.212-1.346-.574-1.885a3.392 3.392 0 002.27-3.202c0-.694-.207-1.345-.568-1.887a3.393 3.393 0 001.69-5.085A3.392 3.392 0 0039 24.756zm-28.826 16.11c0 .467-.38.847-.848.847h-7.63V23.06h7.63c.468 0 .848.38.848.848v16.956zm25.435-14.414h-4.24a.848.848 0 000 1.696h2.544a1.696 1.696 0 110 3.391h-4.24a.848.848 0 000 1.696h2.544a1.696 1.696 0 110 3.391h-4.239a.848.848 0 000 1.696h2.544a1.696 1.696 0 010 3.391h-9.118c-3.748 0-5.212-.382-8.128-1.144-.427-.112-.896-.234-1.406-.364V24.589c6.135-1.461 13.565-5.029 13.565-11.363v-.848c0-.935.76-1.696 1.695-1.696.934 0 1.694.76 1.696 1.694v.002c0 .369.46 4.89-1.384 8.987h-2.855a.848.848 0 000 1.696h11.022a1.696 1.696 0 010 3.391z" fill="#fff"/><path d="M20.348 10.683h-3.392a.848.848 0 000 1.695h3.392a.848.848 0 000-1.695zm16.956 0h-3.391a.848.848 0 000 1.695h3.391a.848.848 0 000-1.695zm-2.38-6.946a.848.848 0 00-1.2 0l-2.397 2.398a.848.848 0 001.199 1.199l2.398-2.398a.848.848 0 000-1.199zm-11.99 2.398l-2.398-2.398a.848.848 0 00-1.199 1.2l2.398 2.397a.848.848 0 001.199-1.2z" fill="#fff"/></svg>