<svg width="150" height="31" fill="none" xmlns="http://www.w3.org/2000/svg"><path d="M6.955 17.364a2.616 2.616 0 003.686.134l3.456-3.193-2.165-2.334-5.367 4.963.39.43z" fill="#153191"/><path d="M6.955 17.364a2.616 2.616 0 003.686.134l3.456-3.193-2.165-2.334-5.367 4.963.39.43z" stroke="#00539F" stroke-width=".25" stroke-miterlimit="3.864"/><path d="M1.696 11.702l2.18 2.348 2.34-2.173L4.44 9.972l5.905-5.46 6.644 7.137.444-.416a2.6 2.6 0 00.135-3.676l-5.26-5.662a2.604 2.604 0 00-3.685-.134L1.831 8.026c-1.05.98-1.117 2.63-.135 3.676z" fill="#153191"/><path d="M1.696 11.702l2.18 2.348 2.34-2.173L4.44 9.972l5.905-5.46 6.644 7.137.444-.416a2.6 2.6 0 00.135-3.676l-5.26-5.662a2.604 2.604 0 00-3.685-.134L1.831 8.026c-1.05.98-1.117 2.63-.135 3.676z" stroke="#00539F" stroke-width=".25" stroke-miterlimit="3.864"/><path d="M17.406 21.698a2.6 2.6 0 00.135-3.676l-3.201-3.448L12 16.747l4.976 5.353.43-.402z" fill="#8D1888"/><path d="M17.406 21.698a2.6 2.6 0 00.135-3.676l-3.201-3.448L12 16.747l4.976 5.353.43-.402z" stroke="#A63493" stroke-width=".25" stroke-miterlimit="3.864"/><path d="M11.73 26.943l2.354-2.173-2.179-2.335-1.91 1.771-5.474-5.89 7.156-6.627-.418-.443a2.604 2.604 0 00-3.685-.134l-5.676 5.246a2.588 2.588 0 00-.134 3.676l6.294 6.761a2.588 2.588 0 003.672.148z" fill="#8D1888"/><path d="M11.73 26.943l2.354-2.173-2.179-2.335-1.91 1.771-5.474-5.89 7.156-6.627-.418-.443a2.604 2.604 0 00-3.685-.134l-5.676 5.246a2.588 2.588 0 00-.134 3.676l6.294 6.761a2.588 2.588 0 003.672.148z" stroke="#A63493" stroke-width=".25" stroke-miterlimit="3.864"/><path d="M21.751 11.273a2.604 2.604 0 00-3.685-.134l-3.457 3.193 2.18 2.334 5.366-4.963-.404-.43z" fill="#3A9393"/><path d="M21.751 11.273a2.604 2.604 0 00-3.685-.134l-3.457 3.193 2.18 2.334 5.366-4.963-.404-.43z" stroke="#00A2B2" stroke-width=".25" stroke-miterlimit="3.864"/><path d="M27.01 16.935l-2.179-2.348-2.34 2.173 1.775 1.919-5.904 5.46-6.645-7.137-.444.416a2.6 2.6 0 00-.134 3.676l5.259 5.661a2.604 2.604 0 003.685.134l6.78-6.278a2.589 2.589 0 00.147-3.676z" fill="#3A9393"/><path d="M27.01 16.935l-2.179-2.348-2.34 2.173 1.775 1.919-5.904 5.46-6.645-7.137-.444.416a2.6 2.6 0 00-.134 3.676l5.259 5.661a2.604 2.604 0 003.685.134l6.78-6.278a2.589 2.589 0 00.147-3.676z" stroke="#00A2B2" stroke-width=".25" stroke-miterlimit="3.864"/><path d="M11.3 6.94a2.6 2.6 0 00-.135 3.676l3.202 3.448 2.34-2.174-4.977-5.352-.43.402z" fill="#F90634"/><path d="M11.3 6.94a2.6 2.6 0 00-.135 3.676l3.202 3.448 2.34-2.174-4.977-5.352-.43.402z" stroke="#ED174C" stroke-width=".25" stroke-miterlimit="3.864"/><path d="M16.976 1.694l-2.354 2.174 2.179 2.334 1.923-1.77L24.2 10.32l-7.156 6.627.417.443a2.616 2.616 0 003.685.134l5.663-5.245a2.6 2.6 0 00.135-3.676L20.66 1.829c-.98-1.047-2.635-1.114-3.684-.135z" fill="#F90634"/><path d="M16.976 1.694l-2.354 2.174 2.179 2.334 1.923-1.77L24.2 10.32l-7.156 6.627.417.443a2.616 2.616 0 003.685.134l5.663-5.245a2.6 2.6 0 00.135-3.676L20.66 1.829c-.98-1.047-2.635-1.114-3.684-.135z" stroke="#ED174C" stroke-width=".25" stroke-miterlimit="3.864"/><path d="M30.736 2.271v9.311c0 2.214 1.587 4.24 3.887 4.24 1.937 0 3.847-1.785 3.847-4.24s-1.91-4.24-3.847-4.24c-1.264 0-2.152.524-2.986 1.382v-.898c.578-.483 1.506-1.208 2.986-1.208 2.596 0 4.654 2.093 4.654 4.964 0 2.871-2.058 4.964-4.654 4.964s-4.654-2.093-4.654-4.964v-9.31h.767zM41.443 6.82v5.714c0 1.986 1.385 3.3 3.066 3.3 1.681 0 3.067-1.3 3.067-3.3V6.82h.767v5.81c0 2.347-1.695 3.917-3.834 3.917-2.139 0-3.833-1.57-3.833-3.918V6.82h.767zm9.549-3.301c.337 0 .606.268.606.604a.602.602 0 01-.605.603.602.602 0 01-.606-.603c0-.336.256-.604.605-.604zm-.39 12.839V6.819h.767v9.539h-.767zm3.295 0V2.271h.767v14.087h-.767zM65.613 2.271v9.311c0 2.871-2.058 4.964-4.654 4.964s-4.654-2.093-4.654-4.964c0-2.871 2.058-4.964 4.654-4.964 1.48 0 2.394.725 2.986 1.208v.912c-.82-.872-1.708-1.382-2.986-1.382-1.937 0-3.847 1.784-3.847 4.24 0 2.454 1.91 4.239 3.847 4.239 2.3 0 3.887-2.026 3.887-4.24V2.271h.767zm2.582 1.248c.336 0 .605.268.605.604a.602.602 0 01-.605.603.602.602 0 01-.605-.603c0-.336.269-.604.605-.604zm-.376 12.839V6.819h.766v9.539h-.766zm9.845 0v-5.715c0-1.986-1.385-3.3-3.067-3.3-1.667 0-3.066 1.3-3.066 3.3v5.715h-.767v-5.822c0-2.348 1.695-3.918 3.834-3.918 2.138 0 3.833 1.57 3.833 3.918v5.809h-.767v.013zm4.452 3.072c.727.282 1.614.483 2.421.483 2.583 0 4.13-1.167 4.13-4.507v-3.824c0-2.213-1.587-4.24-3.887-4.24-1.937 0-3.847 1.785-3.847 4.24s1.91 4.24 3.847 4.24c1.277 0 2.152-.524 2.986-1.382v.912c-.579.483-1.507 1.207-2.986 1.207-2.596 0-4.654-2.092-4.654-4.963s2.058-4.964 4.654-4.964 4.653 2.093 4.653 4.964v4.346c0 2.979-2.017 4.71-4.801 4.71-.942 0-1.87-.162-2.758-.484l.242-.738zM97.02 8.362c-2.005-.564-3.726-1.046-3.726-2.858 0-1.502.834-2.146 2.784-2.146h5.003V1.949h-5.326c-2.461 0-3.995 1.328-3.995 3.488 0 3.046 2.515 3.743 4.748 4.36 1.978.55 3.847 1.06 3.847 3.126 0 1.516-1.17 2.348-3.309 2.348H91.76v1.409h5.407c3 0 4.721-1.422 4.721-3.89 0-3.046-2.596-3.784-4.869-4.428zm18.319-6.654c-.955 0-1.211.282-1.682 1.918l-3.335 11.283-3.349-11.283c-.471-1.636-.727-1.918-1.682-1.918-1.13 0-1.278 1.087-1.372 1.73l-1.802 13.242h1.506l1.789-13.215c0 .014.014.027.014.04l3.389 11.552c.377 1.328.565 1.784 1.507 1.784.941 0 1.116-.456 1.506-1.784l3.39-11.551c0-.014 0-.027.013-.04l1.789 13.214h1.506l-1.802-13.255c-.108-.644-.255-1.717-1.385-1.717zm25.138.242v1.368h4.008V16.68h1.507V3.318H150V1.949h-9.523zm8.03 14.596a1.367 1.367 0 01-1.358-1.382c0-.765.605-1.382 1.358-1.382.753 0 1.359.617 1.359 1.382 0 .765-.606 1.382-1.359 1.382zm0-2.563c-.309 0-.592.121-.807.35a1.199 1.199 0 00-.323.831c0 .309.121.604.323.832.215.228.498.349.807.349.632 0 1.143-.524 1.143-1.181 0-.644-.511-1.18-1.143-1.18zm.726 2.013h-.269l-.457-.738h-.336v.738h-.202v-1.637h.619c.35 0 .524.148.524.443 0 .308-.188.402-.376.443l.497.75zm-1.062-.94h.282c.269 0 .458-.013.458-.254 0-.161-.121-.242-.35-.242h-.377v.497h-.013zm-9.751-5.889c1.17-.684 1.762-1.851 1.762-3.475 0-2.347-1.91-3.984-4.641-3.984-2.744 0-4.519 1.865-4.519 4.75V16.68h1.493V6.416c0-2.065 1.13-3.3 3.026-3.3 1.83 0 3.107 1.087 3.107 2.657 0 1.811-1.224 2.858-3.349 2.858h-2.085v1.368h2.69c1.951 0 3.027.845 3.027 2.374v4.307h1.533v-4.186c0-1.61-.74-2.804-2.044-3.327zm-14.043-7.459c-3.201 0-5.191 1.986-5.191 5.178v9.794h1.506V6.618c0-2.16 1.412-3.501 3.685-3.501 2.274 0 3.686 1.341 3.686 3.501V8.43h-6.658v1.369h6.658v6.882h1.506V6.873c0-3.193-1.99-5.165-5.192-5.165zM35.403 27.99c-.108.093-.283.174-.525.268a4.02 4.02 0 01-1.412.241c-.807 0-1.466-.268-1.964-.778-.524-.537-.793-1.275-.793-2.187 0-.939.282-1.704.833-2.267.525-.537 1.184-.805 1.991-.805.43 0 .834.067 1.197.201.242.094.417.188.511.282l-.255.416c-.35-.255-.82-.376-1.413-.376-.659 0-1.197.215-1.627.657-.457.47-.686 1.074-.686 1.838 0 .765.202 1.382.605 1.838.404.457.955.698 1.628.698.363 0 .7-.04.982-.134.12-.04.228-.094.35-.134v-1.704h-1.332v-.456h1.883v2.401h.027zm4.532-1.893c0 .014 0 .054-.013.121 0 .067-.013.12-.013.161h-3.013c0 .483.12.859.376 1.154.256.295.606.43 1.063.43.35 0 .767-.108 1.21-.336l.243.402c-.04.04-.175.12-.43.228-.35.134-.7.201-1.063.201-.606 0-1.077-.2-1.426-.59-.35-.389-.525-.912-.525-1.556 0-.67.175-1.207.525-1.623.35-.403.807-.604 1.399-.604.497 0 .887.174 1.183.523.323.362.484.859.484 1.49zm-.538-.16c0-.363-.08-.685-.242-.94a.986.986 0 00-.86-.47 1.28 1.28 0 00-.942.39c-.256.255-.39.603-.417 1.033h2.462v-.014zm3.793-1.798l-.12.43a3.341 3.341 0 00-.337-.028c-.269 0-.497.067-.713.188a1.7 1.7 0 00-.417.335 1.214 1.214 0 00-.148.215v3.086h-.524v-4.186h.498v.55c.363-.443.807-.657 1.331-.657.135 0 .283.027.43.067zm6.524 4.226h-.525v-2.496c0-.563-.08-.939-.242-1.1-.148-.147-.35-.214-.632-.214-.417 0-.834.134-1.278.389.054.107.08.442.08.992v2.429h-.524V26.07a8.76 8.76 0 00-.027-.819c-.027-.214-.094-.389-.201-.483-.148-.147-.35-.214-.606-.214-.43 0-.847.134-1.25.402v3.421h-.525v-4.186h.497v.309c.458-.268.902-.416 1.332-.416.457 0 .807.161 1.036.483.524-.322 1.036-.483 1.52-.483.39 0 .7.12.941.349.188.188.31.43.363.738.027.174.04.51.04.992v2.2zm4.049 0h-.484v-.309a5.843 5.843 0 00-.404.215c-.31.134-.632.188-.942.188-.403 0-.726-.121-.968-.35a1.24 1.24 0 01-.377-.925c0-.912.807-1.368 2.422-1.368h.215v-.161c0-.443-.068-.738-.215-.886-.162-.16-.417-.241-.794-.241-.39 0-.767.107-1.157.335l-.215-.362c.067-.067.202-.134.417-.228a2.64 2.64 0 011.036-.201c.484 0 .874.134 1.143.402.148.148.242.336.282.564.027.134.04.349.04.644v2.683zm-.525-.711v-1.409h-.242c-1.237 0-1.856.322-1.856.953 0 .228.067.415.215.563.162.161.404.242.713.242.296-.014.686-.121 1.17-.35zm4.922.711h-.524v-2.442c0-.335-.013-.563-.027-.684-.04-.201-.107-.362-.215-.47-.161-.16-.377-.241-.659-.241-.269 0-.551.067-.86.201-.23.094-.377.161-.418.215v3.42h-.524V24.18h.497v.309a2.61 2.61 0 011.386-.416c.417 0 .74.12.968.349.175.174.283.389.336.657.027.148.04.402.04.765v2.522zm7.735-.443c-.08.08-.269.188-.538.308a3.344 3.344 0 01-1.318.255c-.794 0-1.44-.255-1.937-.778-.538-.55-.807-1.274-.807-2.187 0-.939.282-1.703.834-2.267.524-.536 1.184-.805 1.99-.805.43 0 .834.067 1.198.201.242.094.417.188.51.282l-.255.416c-.35-.255-.82-.376-1.412-.376-.66 0-1.197.215-1.628.658-.457.456-.686 1.073-.686 1.824 0 .765.202 1.382.606 1.838.403.456.955.684 1.64.684.485 0 .996-.147 1.534-.442l.269.389zm4.062.443h-.524v-2.442c0-.335-.014-.563-.027-.684-.04-.201-.108-.362-.216-.47-.161-.16-.376-.24-.659-.24-.269 0-.551.066-.86.2-.23.094-.377.161-.417.215v3.421h-.525v-6.279h.525v2.388c.053-.053.188-.12.416-.214a2.65 2.65 0 01.915-.188c.43 0 .74.107.969.322.188.188.309.416.363.684.027.148.04.403.04.765v2.522zm4.062 0h-.484v-.309a5.843 5.843 0 00-.404.215c-.31.134-.632.188-.942.188-.403 0-.726-.121-.968-.35a1.24 1.24 0 01-.377-.925c0-.912.808-1.368 2.422-1.368h.215v-.161c0-.443-.067-.738-.215-.886-.162-.16-.417-.241-.794-.241-.39 0-.767.107-1.157.335l-.215-.362c.067-.067.202-.134.417-.228a2.64 2.64 0 011.036-.201c.484 0 .874.134 1.143.402.148.148.242.336.282.564.027.134.04.349.04.644v2.683zm-.525-.711v-1.409h-.242c-1.237 0-1.856.322-1.856.953 0 .228.067.415.215.563.162.161.404.242.713.242.282-.014.672-.121 1.17-.35zm5.219-1.463c0 .671-.188 1.208-.579 1.637-.39.416-.874.63-1.48.63-.39 0-.699-.08-.954-.241v2.012h-.525v-6.037h.498v.282c.35-.268.753-.389 1.21-.389.552 0 .996.188 1.332.577.336.389.498.899.498 1.53zm-.538-.013c0-.483-.121-.872-.377-1.18a1.198 1.198 0 00-.968-.457c-.43 0-.807.134-1.13.416v2.764c.336.188.659.281.955.281.457 0 .82-.16 1.103-.496.282-.349.417-.792.417-1.328zm3.779 2.092a1.86 1.86 0 01-.834.202c-.376 0-.672-.094-.86-.295a.858.858 0 01-.216-.443 3.364 3.364 0 01-.04-.63v-2.482h-.74v-.43h.74v-1.18h.524v1.18h1.346v.43h-1.346v2.374c0 .376.027.617.068.725.08.188.282.281.592.281.134 0 .269-.026.416-.067.068-.026.135-.04.202-.067l.148.403zm4.143-2.173c0 .014 0 .054-.013.121 0 .067-.014.12-.014.161h-3.013c0 .483.121.859.377 1.154.255.295.605.43 1.063.43.35 0 .766-.108 1.21-.336l.242.402c-.04.04-.175.12-.43.228-.35.134-.7.201-1.063.201-.605 0-1.076-.2-1.426-.59-.35-.389-.524-.912-.524-1.556 0-.67.175-1.207.524-1.623.35-.403.808-.604 1.4-.604.497 0 .887.174 1.183.523.323.362.484.859.484 1.49zm-.538-.16c0-.363-.08-.685-.242-.94a.986.986 0 00-.86-.47 1.28 1.28 0 00-.942.39c-.256.255-.39.603-.417 1.033h2.461v-.014zm3.793-1.798l-.12.43a3.341 3.341 0 00-.337-.028c-.27 0-.498.067-.713.188a1.7 1.7 0 00-.417.335c-.054.068-.108.135-.148.215v3.086h-.525v-4.186h.498v.55c.363-.443.807-.657 1.332-.657.134 0 .282.027.43.067zm9.228 4.226H98l-.551-5.004-1.816 5.004h-.457l-1.83-5.004-.538 5.004h-.51l.658-5.822h.632l1.856 5.017 1.816-5.017h.633l.685 5.822zm4.586-2.268c0 .014 0 .054-.014.121 0 .067-.013.12-.013.161h-3.013c0 .483.121.859.377 1.154.255.295.605.43 1.062.43.35 0 .767-.108 1.211-.336l.242.402c-.041.04-.175.12-.431.228a2.923 2.923 0 01-1.062.201c-.605 0-1.076-.2-1.426-.59-.35-.389-.525-.912-.525-1.556 0-.67.175-1.207.525-1.623.35-.403.807-.604 1.399-.604.498 0 .888.174 1.183.523.323.362.485.859.485 1.49zm-.538-.16c0-.363-.081-.685-.242-.94a.987.987 0 00-.861-.47c-.377 0-.686.135-.942.39-.255.255-.39.603-.417 1.033h2.462v-.014zm7.249 2.428h-.524v-2.496c0-.563-.081-.939-.242-1.1-.148-.147-.35-.214-.633-.214-.416 0-.833.134-1.277.389.054.107.08.442.08.992v2.429h-.524V26.07c0-.416-.014-.698-.027-.819-.027-.214-.094-.389-.202-.483-.148-.147-.35-.214-.605-.214-.43 0-.847.134-1.251.402v3.421h-.525v-4.186h.498v.309c.457-.268.901-.416 1.332-.416.457 0 .807.161 1.035.483.525-.322 1.036-.483 1.52-.483.39 0 .7.12.942.349.188.188.309.43.363.738.027.174.04.51.04.992v2.2zm4.708-2.16c0 .67-.201 1.207-.592 1.623-.39.416-.901.617-1.533.617-.43 0-.914-.094-1.412-.282v-6.09h.524v2.388c.31-.255.7-.376 1.171-.376.565 0 1.008.188 1.345.577.336.39.497.899.497 1.543zm-.538.013c0-.51-.121-.912-.376-1.22-.242-.31-.579-.457-.982-.457-.363 0-.74.134-1.117.416v2.898c.337.094.633.148.915.148.484 0 .861-.162 1.143-.483.269-.336.417-.765.417-1.302zm4.856-.121c0 .014 0 .054-.014.121 0 .067-.013.12-.013.161h-3.013c0 .483.121.859.377 1.154.255.295.605.43 1.062.43.35 0 .767-.108 1.211-.336l.242.402c-.041.04-.175.12-.431.228a2.923 2.923 0 01-1.062.201c-.605 0-1.076-.2-1.426-.59-.35-.389-.524-.912-.524-1.556 0-.67.174-1.207.524-1.623.35-.403.807-.604 1.399-.604.498 0 .888.174 1.184.523.336.362.484.859.484 1.49zm-.525-.16c0-.363-.08-.685-.242-.94a.987.987 0 00-.861-.47 1.28 1.28 0 00-.941.39c-.256.255-.39.603-.417 1.033h2.461v-.014zm3.78-1.798l-.121.43a3.358 3.358 0 00-.337-.028c-.269 0-.497.067-.713.188a1.724 1.724 0 00-.417.335c-.053.068-.107.135-.147.215v3.086h-.525v-4.186h.498v.55c.363-.443.807-.657 1.331-.657.148 0 .296.027.431.067z" fill="#fff"/></svg>