<svg width="145" height="21" fill="none" xmlns="http://www.w3.org/2000/svg"><path fill-rule="evenodd" clip-rule="evenodd" d="M47.73 6.658l2.494 7.721 2.493-7.721h2.638L51.809 16.92h-3.185L45.092 6.658h2.638zM61.056 16.92h2.28V6.658h-2.28V16.92zm15.811-.91c-.294.488-.728.878-1.301 1.168-.574.292-1.269.438-2.084.438-1.23 0-2.242-.302-3.037-.905-.796-.602-1.23-1.445-1.302-2.526h2.82c.042.416.189.743.442.982.253.24.576.359.968.359.341 0 .61-.093.806-.28.196-.188.294-.437.294-.749 0-.28-.09-.515-.27-.702a2.142 2.142 0 00-.675-.46 15.14 15.14 0 00-1.115-.428 13.578 13.578 0 01-1.697-.694 3.127 3.127 0 01-1.13-.999c-.316-.441-.474-1.016-.474-1.722 0-.655.166-1.222.496-1.7.33-.477.788-.844 1.372-1.1.583-.254 1.252-.381 2.006-.381 1.219 0 2.187.291 2.905.873.718.583 1.124 1.383 1.216 2.402h-2.866c-.052-.364-.184-.653-.395-.866-.212-.213-.498-.32-.86-.32-.31 0-.56.084-.752.25-.19.166-.286.41-.286.732 0 .26.086.482.255.663.171.183.385.331.644.445.258.114.63.26 1.115.436.703.24 1.276.476 1.72.71a3.29 3.29 0 011.147 1.021c.32.447.48 1.029.48 1.746a3.05 3.05 0 01-.442 1.607zm9.126-6.37c-.511.567-.767 1.338-.767 2.316 0 .966.256 1.736.767 2.307.511.572 1.2.858 2.069.858.856 0 1.543-.286 2.06-.858.516-.57.774-1.34.774-2.307 0-.967-.255-1.736-.766-2.308-.512-.571-1.201-.857-2.069-.857-.867 0-1.557.283-2.068.849zm4.88-2.603a5.258 5.258 0 011.991 2.011c.485.858.729 1.827.729 2.908 0 1.08-.246 2.052-.736 2.915a5.299 5.299 0 01-2 2.02c-.841.483-1.773.725-2.796.725s-1.955-.242-2.797-.726a5.3 5.3 0 01-1.998-2.019c-.49-.863-.736-1.834-.736-2.915 0-1.08.245-2.05.736-2.908a5.315 5.315 0 011.998-2.011c.842-.484 1.774-.726 2.797-.726 1.033 0 1.97.242 2.812.726zm9.645 5.885v4.584h-1.1V6.514h3.269c1.229 0 2.146.286 2.751.857.604.572.906 1.357.906 2.355 0 1.018-.313 1.806-.938 2.362s-1.531.834-2.719.834h-2.169zm4.106-1.52c.413-.39.619-.949.619-1.676 0-.748-.206-1.317-.619-1.708-.414-.39-1.09-.584-2.03-.584h-2.076v4.552h2.076c.94 0 1.616-.194 2.03-.584zm8.614 5.231h3.967v.873h-5.067V6.513h1.1v10.12zm15.509-2.682l-2.153-5.925-2.185 5.925h4.338zm.326.874h-4.974l-.992 2.681h-1.161l4.028-10.743h1.224l4.028 10.743h-1.177l-.976-2.681zM145 17.506h-1.1l-5.98-9.183v9.183h-1.101V6.53h1.101l5.98 9.2v-9.2h1.1v10.977z" fill="#252626" fill-opacity=".98"/><path fill-rule="evenodd" clip-rule="evenodd" d="M7.708 6.972L0 20.064h15.416L7.708 6.972z" fill="#004D95"/><path fill-rule="evenodd" clip-rule="evenodd" d="M17.38 13.092L9.67 0h15.417l-7.709 13.092z" fill="#20C1CD"/><path fill-rule="evenodd" clip-rule="evenodd" d="M27.547 6.972L19.84 20.064h15.416L27.547 6.972z" fill="#AA007B"/></svg>