<svg width="215" height="29" fill="none" xmlns="http://www.w3.org/2000/svg"><path fill-rule="evenodd" clip-rule="evenodd" d="M215 25.02h-1.631l-8.867-12.853V25.02h-1.632V9.657h1.632l8.867 12.876V9.657H215V25.02zm-24.099-4.975l-3.194-8.293-3.238 8.293h6.432zm.482 1.222h-7.375l-1.47 3.753h-1.722l5.972-15.036h1.815l5.973 15.036h-1.745l-1.448-3.753zm-23.478 2.532h5.881v1.222h-7.512V9.635h1.631V23.8zm-18.862-5.194v6.416h-1.63V9.636h4.846c1.823 0 3.183.4 4.079 1.2.896.8 1.343 1.899 1.343 3.296 0 1.425-.463 2.528-1.389 3.306-.927.778-2.271 1.167-4.033 1.167h-3.216zm6.089-2.13c.612-.544.918-1.327.918-2.345 0-1.047-.306-1.844-.918-2.39-.614-.545-1.617-.818-3.01-.818h-3.079v6.372h3.079c1.393 0 2.396-.273 3.01-.818zm-27.625-2.466c-.758.793-1.138 1.873-1.138 3.241 0 1.353.38 2.43 1.138 3.23.757.8 1.78 1.2 3.067 1.2 1.27 0 2.289-.4 3.054-1.2.766-.8 1.149-1.877 1.149-3.23s-.379-2.43-1.137-3.23c-.758-.799-1.781-1.2-3.066-1.2-1.287 0-2.31.396-3.067 1.189zm7.235-3.643a7.588 7.588 0 012.953 2.815c.719 1.2 1.08 2.557 1.08 4.07 0 1.513-.364 2.872-1.091 4.08a7.643 7.643 0 01-2.964 2.826c-1.249.677-2.63 1.015-4.147 1.015-1.516 0-2.899-.338-4.147-1.015a7.647 7.647 0 01-2.963-2.826c-.727-1.208-1.091-2.567-1.091-4.08s.364-2.87 1.091-4.07a7.67 7.67 0 012.963-2.815c1.248-.677 2.631-1.016 4.147-1.016 1.531 0 2.922.339 4.169 1.016zm-20.767 12.559c-.436.684-1.08 1.23-1.929 1.636-.851.408-1.881.612-3.091.612-1.822 0-3.323-.422-4.502-1.266-1.18-.843-1.823-2.022-1.93-3.535h4.181c.061.582.279 1.04.654 1.374.376.335.854.502 1.436.502.506 0 .905-.13 1.196-.393.29-.261.436-.61.436-1.047 0-.392-.134-.72-.402-.983a3.182 3.182 0 00-1-.643 23.403 23.403 0 00-1.654-.6c-1.026-.334-1.865-.657-2.515-.97a4.562 4.562 0 01-1.677-1.399c-.467-.618-.701-1.421-.701-2.41 0-.916.244-1.71.735-2.378.49-.67 1.168-1.183 2.033-1.54.865-.356 1.858-.534 2.976-.534 1.806 0 3.242.408 4.307 1.222 1.064.815 1.666 1.936 1.803 3.361h-4.25c-.076-.51-.272-.913-.585-1.211-.315-.299-.739-.447-1.275-.447-.46 0-.832.116-1.115.348-.284.233-.425.576-.425 1.026 0 .364.127.674.379.928.253.255.57.462.953.622.383.16.935.364 1.655.61 1.041.335 1.891.666 2.55.994a4.805 4.805 0 011.7 1.429c.475.625.712 1.44.712 2.444 0 .815-.218 1.564-.655 2.248M90.89 24.198h3.818V8.638H90.89v15.56zM70.956 8.638l4.02 11.708 4.022-11.708h4.253l-5.717 15.56h-5.137l-5.695-15.56h4.254z" fill="#fff"/><path fill-rule="evenodd" clip-rule="evenodd" d="M11.43 10.276L0 28.599h22.858L11.43 10.276z" fill="#004D95"/><path fill-rule="evenodd" clip-rule="evenodd" d="M25.77 18.842L14.34.519h22.859l-11.43 18.323z" fill="#20C1CD"/><path fill-rule="evenodd" clip-rule="evenodd" d="M40.845 10.276l-11.43 18.323h22.86l-11.43-18.323z" fill="#AA007B"/></svg>