<svg width="58" height="52" fill="none" xmlns="http://www.w3.org/2000/svg"><path d="M39.955 51c6.622 0 11.991-5.369 11.991-11.991 0-6.623-5.369-11.992-11.991-11.992-6.623 0-11.992 5.369-11.992 11.992C27.963 45.63 33.332 51 39.955 51z" stroke="#4B6EF5" stroke-width="1.7" stroke-miterlimit="10" stroke-linecap="round" stroke-linejoin="round"/><path d="M51.525 35.852a11.856 11.856 0 005.348-8.87c.035-.351.052-.72.052-1.07 0-6.416-5.084-11.623-11.448-11.851C45.214 6.803 39.254 1 31.925 1 24.44 1 18.356 7.066 18.356 14.552v.315c-5.067.018-9.169 4.138-9.169 9.204a8.87 8.87 0 00.474 2.91H6.382a5.31 5.31 0 00-3.804 1.578A5.338 5.338 0 001 32.364c0 2.98 2.42 5.4 5.4 5.4h21.616" stroke="#4B6EF5" stroke-width="1.7" stroke-miterlimit="10" stroke-linecap="round" stroke-linejoin="round"/><path d="M9.222 24.089a9.203 9.203 0 019.204-9.204c1.859 0 3.577.543 5.032 1.49m2.349 5.82a9.169 9.169 0 016.505-2.7c2.91 0 5.487 1.35 7.187 3.436m-15.498 1.806l.158-.315m10.729-4.576c2.069-3.472 5.856-5.803 10.186-5.803m-5.137 19.145a.702.702 0 00-.263.052l-4.313 1.543c-.28.105-.473.35-.455.631v2.016c.035 2.998 1.805 5.768 4.68 7.31a.818.818 0 00.754 0c2.875-1.56 4.646-4.347 4.664-7.345v-2.016c.017-.28-.158-.526-.456-.631l-4.33-1.508a.727.727 0 00-.28-.053z" stroke="#4B6EF5" stroke-width="1.7" stroke-miterlimit="10" stroke-linecap="round" stroke-linejoin="round"/></svg>