<svg width="51" height="47" fill="none" xmlns="http://www.w3.org/2000/svg"><path d="M5.205 18.035v-6.107m39.884 6.107v-6.107M5.205 35.072v-6.107m39.884 6.107v-6.107M42.183 1h5.504c.884 0 1.608.723 1.608 1.607v7.714c0 .884-.724 1.607-1.608 1.607H2.607A1.612 1.612 0 011 10.322V2.607C1 1.723 1.723 1 2.607 1H36.29" stroke="#4B6EF5" stroke-width="1.5" stroke-miterlimit="10" stroke-linecap="round" stroke-linejoin="round"/><path d="M13.428 7.804H6.036c-.59 0-1.072-.483-1.072-1.072v-.536c0-.589.482-1.071 1.072-1.071h7.392c.59 0 1.072.482 1.072 1.071v.536c0 .59-.482 1.072-1.072 1.072zm12.562 0h-7.392c-.59 0-1.072-.483-1.072-1.072v-.536c0-.589.483-1.071 1.072-1.071h7.393c.589 0 1.071.482 1.071 1.071v.536c0 .59-.482 1.072-1.071 1.072zm16.809.776a2.116 2.116 0 100-4.232 2.116 2.116 0 000 4.232zm4.888 20.384H2.607A1.612 1.612 0 011 27.357v-7.715c0-.883.723-1.607 1.607-1.607h45.094c.884 0 1.607.724 1.607 1.607v7.715a1.623 1.623 0 01-1.62 1.607z" stroke="#4B6EF5" stroke-width="1.5" stroke-miterlimit="10" stroke-linecap="round" stroke-linejoin="round"/><path d="M13.428 24.84H6.036c-.59 0-1.072-.483-1.072-1.072v-.536c0-.589.482-1.071 1.072-1.071h7.392c.59 0 1.072.482 1.072 1.071v.536c0 .59-.482 1.072-1.072 1.072zm12.562 0h-7.392c-.59 0-1.072-.483-1.072-1.072v-.536c0-.589.483-1.071 1.072-1.071h7.393c.589 0 1.071.482 1.071 1.071v.536c0 .59-.482 1.072-1.071 1.072zm16.809.776a2.116 2.116 0 100-4.232 2.116 2.116 0 000 4.232zM47.687 46H2.607A1.612 1.612 0 011 44.393v-7.714c0-.884.723-1.608 1.607-1.608h45.094c.884 0 1.607.724 1.607 1.608v7.714A1.623 1.623 0 0147.688 46z" stroke="#4B6EF5" stroke-width="1.5" stroke-miterlimit="10" stroke-linecap="round" stroke-linejoin="round"/><path d="M13.428 41.875H6.036c-.59 0-1.072-.483-1.072-1.072v-.535c0-.59.482-1.072 1.072-1.072h7.392c.59 0 1.072.482 1.072 1.072v.535c0 .59-.482 1.072-1.072 1.072zm12.562 0h-7.392c-.59 0-1.072-.483-1.072-1.072v-.535c0-.59.483-1.072 1.072-1.072h7.393c.589 0 1.071.482 1.071 1.072v.535c0 .59-.482 1.072-1.071 1.072zm16.809.777a2.116 2.116 0 100-4.232 2.116 2.116 0 000 4.232z" stroke="#4B6EF5" stroke-width="1.5" stroke-miterlimit="10" stroke-linecap="round" stroke-linejoin="round"/></svg>