<svg width="96" height="96" fill="none" xmlns="http://www.w3.org/2000/svg"><rect width="96" height="96" rx="10" fill="#fff"/><g opacity=".2"><path d="M74.3 18H62.5l-2.95 2.95v24.338s.147 2.802-1.033 3.097c-1.18.295-2.507-1.622-2.507-1.622L33.885 18H21.2v59H33l2.95-2.95s-.443-23.157 1.917-23.305C42.44 50.45 60.73 77 60.73 77H74.3V18z" fill="#1976D2"/><path d="M59.55 20.95v24.338s.147 2.802-1.033 3.097c-1.18.295-2.507-1.622-2.507-1.622L45.242 32.75c-.737 5.015-1.032 10.768-1.032 16.668 0 2.212 0 4.277.147 6.342C51.29 63.283 60.73 77 60.73 77h2.507c2.065-7.08 3.393-16.815 3.393-27.582 0-12.685-1.77-23.895-4.573-30.975L59.55 20.95z" fill="#2770AA"/><path d="M58.37 48.385c-1.18.148-2.36-1.622-2.36-1.622L47.012 35.11c-3.687-2.95 15.34 34.22 17.995 32.008 2.655-2.066-1.032-11.653-6.342-18.438l-.295-.295z" fill="#3A95CC"/><path d="M37.868 50.745C42.44 50.45 60.73 77 60.73 77H74.3v-1.032l-27.14-40.71L33.885 18H22.233C24.298 35.405 27.543 56.35 33 77l2.95-2.95s-.442-23.157 1.918-23.305z" fill="#1E88E5"/><path d="M35.655 33.635C29.312 35.258 33 77 33 77l2.95-2.95s-.443-23.157 1.917-23.305C42.44 50.45 60.73 77 60.73 77S41.407 32.16 35.655 33.635z" fill="#2559AA"/></g></svg>