<svg width="96" height="96" fill="none" xmlns="http://www.w3.org/2000/svg"><rect width="96" height="96" rx="10" fill="#FEC800"/><path d="M48.48 72c-9.615 0-16.884-4.424-21.48-9.324l4.409-5.566c3.986 3.378 9.051 5.947 15.148 5.947 3.752 0 5.862-1.808 5.862-3.806 0-2.379-3.236-3.854-10.458-6.708-9.192-3.52-13.554-8.515-13.554-14.414 0-7.374 6.988-14.129 18.15-14.129 8.489 0 16.18 3.853 20.495 7.326l-3.8 5.994c-4.173-2.616-8.488-4.377-14.397-4.377-2.673 0-4.455 1.19-4.455 2.95 0 1.522 2.11 3.52 8.394 5.851 12.85 4.662 16.556 10.8 16.18 16.27C68.553 64.864 61.565 72 48.48 72z" fill="#fff"/></svg>