<svg width="96" height="96" fill="none" xmlns="http://www.w3.org/2000/svg"><rect width="96" height="96" rx="10" fill="#fff"/><path d="M62.25 52.634c0-4.922 6.299-5.906 6.299-16.734 0-8.984-4.67-14.533-13.19-17.127-4.922-1.497-11.39-1.771-18.308-1.771H27.6v29.726l7.875 8.071h12.6l15.748 17.324L78 79.998s-15.75-22.64-15.75-27.364zM52.8 35.9a6.3 6.3 0 01-6.3 6.3h-1.575a3.15 3.15 0 01-3.15-3.15v-6.3a3.15 3.15 0 013.15-3.15h3.15a4.724 4.724 0 014.725 4.725V35.9z" fill="#1976D2"/><path d="M52.786 36.019c-.065 3.424-2.85 6.181-6.287 6.181 0 0-.394 1.575-3.347 4.331-1.628 1.52-6.103 3.544-6.103 3.544s17.476 1.154 22.36-8.55c-.818-2.811-3.141-5-6.623-5.506z" fill="#1565C0"/><path d="M49.65 24.876h-6.299a4.724 4.724 0 00-4.724 4.725v4.724c0 3.996 2.661 7.26 5.535 7.771a3.144 3.144 0 01-2.386-3.046v-6.3a3.15 3.15 0 013.15-3.15h3.15a4.724 4.724 0 014.725 4.725V35.9c0 .041-.011.08-.013.119 3.482.505 5.804 2.693 6.621 5.504.794-1.574 1.266-3.424 1.266-5.623 0-6.088-4.935-11.024-11.024-11.024z" fill="#1950A6"/><path d="M43.35 24.876a4.724 4.724 0 00-4.724 4.725v4.724c0 3.996 2.661 7.26 5.535 7.771a3.144 3.144 0 01-2.386-3.046v-6.3a3.15 3.15 0 013.15-3.15h3.15a4.724 4.724 0 014.725 4.725V35.9a6.3 6.3 0 01-6.3 6.3s9.45 0 9.45-9.45v-1.568c0-3.37-2.648-6.216-6.016-6.303a16.748 16.748 0 00-.284-.003h-6.3zm-15.749-7.875v59.847l6.3 3.15 3.15-29.923S27.6 45.35 27.6 17z" fill="#0D47A1"/><path d="M33.903 79.998l3.15-29.923s9.449 0 14.174 3.15c2.053 1.37 7.76 8.038 12.993 13.977C71.504 75.47 78 79.998 78 79.998s-10.827-.787-15.14-1.392c-1.377-.194-2.65-.835-3.456-1.969-2.361-3.32-6.603-11.6-12.902-17.9-.37-.37-.788-.78-1.575-.78-.802 0-1.575.626-1.575 1.583v16.173c0 .677-.433 1.28-1.077 1.494l-8.372 2.791z" fill="#3AA2DB"/></svg>