<svg width="96" height="96" fill="none" xmlns="http://www.w3.org/2000/svg"><rect width="96" height="96" rx="10" fill="#fff"/><g opacity=".2"><path d="M58.675 23.175C36.7 34.9 27.95 90 27.95 90H10.5a4.951 4.951 0 01-3.3-1.25v-.025c.3-1.025 9.475-31.875 24.875-57.05 3.325-5.4 11.45-17.725 18.15-17.725 3 0 5.825 3.525 8.45 9.225z" fill="#82B1FF"/><path d="M90.5 10v75c0 2.75-2.25 5-5 5H72.975c-1.9-19.65-7.2-51.275-14.3-66.825-2.625-5.7-5.45-9.225-8.45-9.225-6.7 0-14.825 12.325-18.15 17.725C16.675 56.85 7.5 87.7 7.2 88.725c-1.05-.9-1.7-2.25-1.7-3.725V70c7.55-16.55 26.025-49.375 43.175-65H85.5c2.75 0 5 2.25 5 5z" fill="#fff"/><path d="M48.675 5C31.525 20.625 13.05 55.95 5.5 72.5V10c0-2.75 2.25-5 5-5h38.175zm24.3 85H27.95s8.75-55.1 30.725-66.825c7.1 15.55 12.4 47.175 14.3 66.825z" fill="#1E88E5"/></g></svg>