<svg width="58" height="58" fill="none" xmlns="http://www.w3.org/2000/svg"><path d="M43.668 46.038c-1.946.892-3.7.799-5.436.676-1.568-.105-3.13.222-4.72-.297-1.346-.443-2.686.495-4.078.63-5.973.547-11.071-1.166-15.15-5.536-2.249-2.377-3.041-5.162-1.969-8.42a32.43 32.43 0 016.234-11.309 30.491 30.491 0 0110.547-8.04c.35-.158 1.351-.082.78-1.055-1.427-2.447-5.552-3.164-7.708-1.329A93.592 93.592 0 009.996 23.792c-2.086 2.593-4.201 5.244-4.976 8.56a20.69 20.69 0 0017.095 25.421c8.688 1.381 18.162-3.67 21.559-11.735h-.006zM3.756 32.515c.81-3.386 2.627-5.955 4.55-8.46a6.642 6.642 0 001.166-2.232 17.433 17.433 0 0110.51-11.793c4.779-1.987 8.158-1.224 11.485 2.68a31.89 31.89 0 016.905 13.984 33.97 33.97 0 01.483 10.668c.583-.134 1.05-.21 1.474-.332 3.327-.955 4.714-3.216 4.044-6.601a92.643 92.643 0 00-4.02-14.672c-1.498-3.962-2.885-8.023-6.357-10.756-6.998-5.587-14.654-6.52-22.677-2.662C.248 7.647-3.545 22.732 3.744 32.515h.012zM35.359 4.553c2.267 2.196 3.496 4.527 4.597 6.94.536 1.165.857 2.388 1.824 3.379 4.33 4.422 5.938 9.771 4.871 15.837-.582 3.496-2.208 6.479-5.972 7.475a30.618 30.618 0 01-16.897-.338 31.154 31.154 0 01-10.04-5.098c-.376.747-.6 1.56-.658 2.395-.239 2.913.827 4.795 3.345 5.669a94.08 94.08 0 0016.186 4.178c3.566.582 7.167 1.118 10.738 0 13.524-4.359 18.809-20.76 10.302-32.146-4.452-5.926-10.529-8.553-18.296-8.291z" fill="#fff"/><path d="M35.36 4.553c7.749-.262 13.826 2.365 18.277 8.291 8.525 11.385 3.24 27.787-10.266 32.116-3.572 1.166-7.173.583-10.739 0a94.081 94.081 0 01-16.186-4.177c-2.517-.874-3.583-2.739-3.345-5.67a6.311 6.311 0 01.659-2.394 31.157 31.157 0 0010.04 5.098 30.62 30.62 0 0016.896.338c3.765-.996 5.361-3.968 5.973-7.476 1.066-6.065-.542-11.414-4.871-15.836-.968-.991-1.288-2.226-1.824-3.38-1.119-2.383-2.348-4.714-4.615-6.91z" fill="#0F56A3"/><path d="M3.756 32.515C-3.545 22.726.26 7.647 11.33 2.339 19.342-1.52 26.998-.586 33.996 5c3.496 2.762 4.883 6.823 6.363 10.786a92.63 92.63 0 014.02 14.671c.67 3.385-.717 5.646-4.044 6.602-.425.122-.862.198-1.474.332a33.969 33.969 0 00-.49-10.692 31.89 31.89 0 00-6.904-13.984c-3.333-3.904-6.706-4.661-11.484-2.68A17.434 17.434 0 009.448 21.823a6.642 6.642 0 01-1.165 2.232c-1.923 2.505-3.74 5.075-4.55 8.46h.023z" fill="#A33089"/><path d="M43.668 46.038c-3.391 8.064-12.865 13.116-21.558 11.735A20.69 20.69 0 015.02 32.352c.775-3.316 2.913-5.967 4.976-8.56A93.59 93.59 0 0122.168 11.37c2.156-1.835 6.28-1.119 7.708 1.328.583.973-.43.898-.78 1.055a30.491 30.491 0 00-10.547 8.03 32.43 32.43 0 00-6.263 11.309c-1.072 3.257-.28 6.042 1.97 8.42 4.113 4.34 9.188 6.082 15.148 5.534 1.41-.134 3.811-.978 4.08-.903 1.648.478 8.226.787 10.172-.105h.012z" fill="#E5262F"/></svg>