<svg width="61" height="61" fill="none" xmlns="http://www.w3.org/2000/svg"><path d="M4.844 41.44a.398.398 0 00.144-.537c-.105-.196-.34-.248-.537-.144l-1.558.878a.398.398 0 00-.144.536.395.395 0 00.537.144l1.558-.877zm-2.972 1.23a.398.398 0 00-.537-.144l-1.139.642a.39.39 0 00-.196.34.39.39 0 00.196.34l1.14.642a.37.37 0 00.196.053.38.38 0 00.34-.197.4.4 0 00-.144-.536l-.537-.302.537-.3c.183-.105.262-.354.144-.537zm21.092 13.276l-2.121-1.217a.4.4 0 00-.537.144.4.4 0 00.144.537l2.121 1.217a.394.394 0 00.537-.144.4.4 0 00-.144-.537zm-4.229-2.448l-2.12-1.217a.4.4 0 00-.538.144.401.401 0 00.144.536l2.121 1.218a.395.395 0 00.537-.144.401.401 0 00-.144-.537zm8.471 4.897l-2.121-1.218a.4.4 0 00-.537.144.4.4 0 00.144.537l2.121 1.217a.395.395 0 00.537-.144.398.398 0 00-.144-.536zM10.238 48.64l-2.134-1.204a.4.4 0 00-.537.144.4.4 0 00.144.537l2.134 1.205a.37.37 0 00.197.052.38.38 0 00.34-.197.376.376 0 00-.144-.536zm-4.255-2.421l-2.12-1.205a.4.4 0 00-.538.144.4.4 0 00.144.537L5.603 46.9a.37.37 0 00.197.052.38.38 0 00.34-.196.396.396 0 00-.157-.537zm8.51 4.831l-.733-.42-1.401-.785a.4.4 0 00-.537.144.4.4 0 00.144.537l1.401.786.72.419a.394.394 0 00.537-.144.388.388 0 00-.131-.537zm16.693 8.562l-.943.537-.943-.537a.4.4 0 00-.536.145.4.4 0 00.144.536l1.139.655a.37.37 0 00.196.052.37.37 0 00.196-.052l1.14-.655a.4.4 0 00.143-.536.397.397 0 00-.536-.145zm16.849-9.714l-1.309.733-.812.471a.4.4 0 00-.144.537.395.395 0 00.537.144l.812-.471 1.296-.734a.386.386 0 00.144-.536c-.092-.184-.34-.25-.524-.144zm4.229-2.383l-2.12 1.191a.386.386 0 00-.145.537.394.394 0 00.537.144l2.12-1.191a.386.386 0 00.145-.537.398.398 0 00-.537-.144zm-16.863 9.662l-2.107 1.218a.4.4 0 00-.144.536.395.395 0 00.536.144l2.108-1.217a.4.4 0 00.144-.537.404.404 0 00-.537-.144zm21.105-12.045l-2.12 1.191a.386.386 0 00-.145.537.395.395 0 00.537.144l2.12-1.191a.386.386 0 00.145-.537.4.4 0 00-.537-.144zM43.82 52.32l-2.108 1.218a.4.4 0 00-.144.536.395.395 0 00.537.144l2.107-1.217a.4.4 0 00.144-.537.404.404 0 00-.536-.144zm-4.216 2.435l-2.108 1.218a.4.4 0 00-.144.536.394.394 0 00.537.144l2.108-1.217a.4.4 0 00.144-.537.376.376 0 00-.537-.144zm20.542-11.73l-1.14-.642a.4.4 0 00-.536.144.4.4 0 00.144.537l.785.432-.785.432a.386.386 0 00-.144.537.394.394 0 00.537.144l1.139-.642a.39.39 0 00.196-.34v-.275c.013-.118-.065-.249-.196-.327zm-2.697-1.519l-1.558-.877a.4.4 0 00-.537.144.4.4 0 00.144.536l1.558.878a.37.37 0 00.196.052.407.407 0 00.34-.196c.119-.184.053-.42-.143-.537zm-2.959-1.205a.4.4 0 00-.144-.537l-.419-.235V20.807c0-.51-.275-.982-.72-1.244l-8.89-5.132a1.458 1.458 0 00-1.427 0L34 19.563a1.434 1.434 0 00-.706 1.244v6.9l-.026-.014a.4.4 0 00-.537.144.4.4 0 00.144.537l.419.236v1.911l-2.41-1.387a1.458 1.458 0 00-1.426 0l-2.396 1.387v-1.82l.419-.235a.4.4 0 00.144-.537.4.4 0 00-.537-.144l-.026.013V6.576c0-.511-.275-.982-.72-1.244L17.452.187a1.458 1.458 0 00-1.427 0l-8.89 5.145a1.462 1.462 0 00-.707 1.244v33.07l-.419.236a.398.398 0 00-.144.537.395.395 0 00.537.144l.026-.013v1.689c0 .51.275.982.72 1.244l8.877 5.132c.223.118.458.183.707.183.249 0 .498-.065.72-.183l2.959-1.715c.052.039.105.078.157.104l8.877 5.133c.222.117.458.183.706.183.25 0 .498-.066.72-.197l8.864-5.119c.066-.039.118-.078.17-.117l2.96 1.715a1.5 1.5 0 00.706.183c.249 0 .498-.066.72-.183l8.877-5.12a1.43 1.43 0 00.72-1.243v-1.807l.026.013a.37.37 0 00.196.053c.17 0 .315-.079.38-.197zM43.61 16.146l7.607 4.386-2.867 1.61-4.74 2.736-4.752-2.736-2.841-1.61 7.593-4.386zm-8.483 5.983l2.828 1.597 4.739 2.737v19.913l-2.213-1.27v-9.584c0-.51-.275-.981-.72-1.243l-4.648-2.684v-9.466h.014zm-4.033 19.036l4.727-2.736 2.827-1.597v8.693l-7.554 4.373v-8.733zm-.916-10.316l3.587 2.068h.013l4.006 2.304-2.867 1.624-4.74 2.736-4.739-2.736-2.854-1.624 7.594-4.372zm-9.61 3.43a1.462 1.462 0 00-.707 1.243v9.584l-2.2 1.27V12.218l4.727-2.736 2.828-1.597v23.684l-4.648 2.71zM16.745 1.902l7.607 4.386-2.867 1.61-4.74 2.736-4.752-2.736-2.841-1.61 7.593-4.386zM8.261 7.885l2.828 1.597 4.74 2.736v34.145L8.26 41.99V7.885zm13.433 28.947l2.828 1.597 4.74 2.736v8.733l-7.568-4.373v-8.693zm22.833 9.544v-19.9l4.726-2.736 2.828-1.598v19.861l-7.554 4.373z" fill="#4B6EF5"/><path d="M29.314 27.405l.942-.537.943.537a.394.394 0 00.537-.144.4.4 0 00-.144-.537l-1.14-.654a.417.417 0 00-.392 0l-1.14.654a.4.4 0 00-.143.537.4.4 0 00.537.144z" fill="#4B6EF5"/></svg>