<svg width="52" height="54" fill="none" xmlns="http://www.w3.org/2000/svg"><path d="M51.423 13.184v-.046c0-.045-.015-.09-.015-.12-.015-.045-.015-.09-.03-.136 0-.015 0-.015-.015-.03-.015-.045-.03-.075-.045-.12v-.015c-.015-.046-.046-.076-.076-.121 0-.015-.015-.015-.015-.03-.03-.03-.06-.075-.09-.106L38.977.301c-.03-.03-.075-.06-.105-.09-.015 0-.015-.015-.03-.015-.03-.03-.075-.045-.12-.075h-.016a.451.451 0 01-.12-.06c-.015 0-.015 0-.03-.016a.44.44 0 00-.136-.03.417.417 0 00-.135-.015h-21.41a4.238 4.238 0 00-4.234 4.234v19.994c0 .587.467 1.054 1.054 1.054.588 0 1.055-.467 1.055-1.054V4.248c0-1.174.95-2.124 2.124-2.124h20.28V13.23a1.05 1.05 0 001.055 1.055h11.105v35.482c0 1.175-.95 2.125-2.125 2.125H31.128c-.588 0-1.055.467-1.055 1.054 0 .588.467 1.055 1.055 1.055h16.061a4.237 4.237 0 004.234-4.234V13.184zm-12.16-1.025V3.601l8.559 8.558h-8.558z" fill="#4B6EF5"/><path d="M26.924 22.209h-6.207a.72.72 0 00-.618.331l-6.404 9.583-6.388-9.583a.739.739 0 00-.618-.331H.451a.448.448 0 00-.376.693l9.884 14.825L.075 52.553a.446.446 0 00.376.693h6.223a.72.72 0 00.618-.331l6.388-9.583 6.404 9.583a.74.74 0 00.617.331h6.208c.362 0 .573-.406.377-.693l-9.884-14.825 9.884-14.826a.436.436 0 00-.362-.694z" fill="#4B6EF5"/></svg>