<svg width="58" height="58" fill="none" xmlns="http://www.w3.org/2000/svg"><path d="M33.737 23.639l-6.37-6.33.03-.029-4.86-4.828-.889.897a5.628 5.628 0 00.026 7.96l7.236 7.188 4.827-4.858z" fill="#E62531"/><path d="M55.218 15.543L41.219 1.636a5.628 5.628 0 00-7.96.025L28.544 6.41l4.859 4.827 3.856-3.881 12.265 12.19-14.717 14.81.866.86a5.629 5.629 0 007.96-.025l11.61-11.687a5.629 5.629 0 00-.024-7.96z" fill="#E62531"/><path d="M23.908 34.361l6.37 6.33-.029.029 4.859 4.827.893-.896a5.628 5.628 0 00-.026-7.96l-7.241-7.189-4.826 4.86z" fill="#B62F88"/><path d="M2.428 42.457l13.999 13.907a5.628 5.628 0 007.96-.025l4.716-4.748-4.859-4.827-3.856 3.881L8.123 38.458 22.84 23.645l-.866-.86a5.626 5.626 0 00-7.96.025L2.405 34.497a5.628 5.628 0 00.024 7.96z" fill="#B62F88"/><path d="M23.639 24.026l-6.33 6.37-.028-.03-4.828 4.86.896.89a5.628 5.628 0 007.96-.026l7.189-7.237-4.86-4.827z" fill="#0063A7"/><path d="M15.543 2.546L1.636 16.544a5.63 5.63 0 00.026 7.96l4.747 4.716 4.827-4.859-3.881-3.855 12.19-12.267 14.81 14.718.86-.865a5.63 5.63 0 00-.025-7.96L23.503 2.52a5.628 5.628 0 00-7.96.025z" fill="#0063A7"/><path d="M34.066 33.913l6.329-6.37.03.03 4.827-4.853-.898-.895a5.63 5.63 0 00-7.96.026l-7.189 7.236 4.861 4.826z" fill="#00A3B7"/><path d="M42.162 55.395L56.07 41.397a5.63 5.63 0 00-.025-7.96l-4.748-4.716-4.827 4.858 3.88 3.855L38.165 49.7 23.35 34.984l-.86.865a5.627 5.627 0 00.025 7.96l11.687 11.61a5.629 5.629 0 007.96-.024z" fill="#00A3B7"/></svg>