<svg width="39" height="54" fill="none" xmlns="http://www.w3.org/2000/svg"><path d="M38.793 13.202v-.06c0-.03 0-.06-.015-.09v-.046c-.015-.045-.015-.075-.03-.12 0-.015-.015-.03-.015-.045l-.045-.09c0-.016-.015-.03-.015-.03-.016-.031-.046-.076-.06-.106-.016-.015-.016-.03-.03-.046a.181.181 0 00-.076-.075l-.015-.015L26.329.316l-.015-.015c-.03-.03-.06-.045-.09-.075-.015-.015-.03-.015-.03-.03-.03-.03-.076-.045-.106-.075-.015 0-.015 0-.03-.016-.03-.015-.075-.03-.105-.045-.015 0-.03-.015-.03-.015a.44.44 0 00-.136-.03h-.015c-.045 0-.076-.015-.12-.015H4.234A4.239 4.239 0 000 4.235v45.364A4.405 4.405 0 004.4 54h30.158a4.239 4.239 0 004.235-4.235V13.202zm-12.162-9.6l8.56 8.56h-8.56v-8.56zm7.927 48.303H4.401a2.29 2.29 0 01-2.291-2.29V4.25c0-1.175.95-2.125 2.125-2.125h20.286v11.107a1.05 1.05 0 001.055 1.056h11.107v35.477c0 1.176-.95 2.14-2.125 2.14z" fill="#4B6EF5"/><path d="M23.843 32.478c-.844-.723-1.673-1.612-2.638-2.577-.663-.723-1.371-1.733-1.974-2.818 1.145-3.888 1.673-7.61.482-9.404-.542-.844-1.371-1.251-2.457-1.251-1.19 0-2.094.542-2.516 1.552-.965 2.155.482 6.104 2.215 9.344-.482 1.552-1.085 3.24-1.793 5.094-.422 1.025-.905 2.035-1.372 3-4.913 1.913-7.912 4.069-8.32 6.103-.18.965.121 1.794.965 2.457.483.361 1.025.603 1.613.603.241 0 .482-.06.723-.12 2.276-.604 4.733-3.95 6.526-7.37a31.674 31.674 0 013.708-1.191 44.817 44.817 0 014.31-1.085c2.336 1.853 4.31 2.878 6.044 2.878 1.31.06 2.275-.422 3.18-1.311 1.31-1.311.783-2.457.603-2.758-1.1-1.688-4.386-2.05-9.3-1.146zm-15.69 9.887a.596.596 0 01-.482-.06c-.24-.18-.24-.301-.18-.422.12-.724 1.491-2.035 4.49-3.466-1.431 2.14-2.878 3.707-3.827 3.948zm8.5-23.541c.061-.12.121-.301.604-.301.421 0 .602.18.723.301.543.784.482 2.758-.18 5.395-1.026-2.275-1.568-4.43-1.146-5.395zm1.674 14.966c-.603.18-1.191.361-1.794.542.181-.422.362-.844.543-1.19.422-1.146.904-2.276 1.31-3.467.483.663.905 1.251 1.312 1.673a43.397 43.397 0 001.613 1.673c-.95.241-1.96.482-2.984.769zm12.644 1.085c-.422.482-.964.663-1.612.663-.905 0-1.975-.422-3.24-1.25 3.466-.498 5.455-.137 4.852.587z" fill="#4B6EF5"/></svg>