<svg width="53" height="54" fill="none" xmlns="http://www.w3.org/2000/svg"><path d="M25.709 0C14.455 0 4.44 7.145.785 17.779a1.056 1.056 0 001.994.694C6.042 9.018 14.742 2.568 24.651 2.145v24.213c0 .59.468 1.057 1.058 1.057h24.198c-.544 12.87-11.193 23.171-24.198 23.171-5.438 0-10.574-1.767-14.864-5.09a1.056 1.056 0 00-1.48.181c-.362.453-.272 1.118.181 1.48 4.653 3.626 10.241 5.544 16.163 5.544 14.53 0 26.342-11.827 26.342-26.343S40.24 0 25.71 0zm24.213 25.3H26.766V2.146c12.522.544 22.612 10.634 23.156 23.156z" fill="#4B6EF5"/><path d="M20.754 40.526c1.828-1.525 2.734-4.123 2.734-7.794 0-3.368-.921-5.845-2.749-7.447-1.828-1.6-4.29-2.401-7.371-2.401H.604a.606.606 0 00-.604.604v29.908c0 .332.272.604.604.604h5.257a.606.606 0 00.604-.604V42.807h6.48c3.383 0 5.981-.755 7.81-2.28zm-14.29-3.081v-9.169h5.862c1.48 0 2.643.348 3.459 1.027.83.695 1.238 1.843 1.238 3.46 0 1.616-.408 2.794-1.238 3.549-.831.74-1.98 1.118-3.46 1.118h-5.86v.015z" fill="#4B6EF5"/></svg>