<svg width="58" height="54" fill="none" xmlns="http://www.w3.org/2000/svg"><path d="M57.195 13.187v-.045c0-.045-.015-.09-.015-.12-.015-.046-.015-.09-.03-.136 0-.015 0-.015-.015-.03-.015-.046-.03-.076-.045-.12v-.016c-.015-.045-.045-.075-.076-.12 0-.016-.015-.016-.015-.03-.03-.03-.06-.076-.09-.106L44.746.3c-.03-.03-.075-.06-.105-.09-.015 0-.015-.015-.03-.015-.03-.03-.075-.045-.12-.075h-.016a.45.45 0 01-.12-.06c-.015 0-.015 0-.03-.016a.44.44 0 00-.136-.03.418.418 0 00-.136-.015H22.637a4.239 4.239 0 00-4.235 4.235v13.037c0 .587.467 1.055 1.055 1.055.588 0 1.055-.468 1.055-1.055V4.235c0-1.176.95-2.125 2.125-2.125h20.286v11.107c0 .588.467 1.055 1.055 1.055h11.107v35.493c0 1.176-.95 2.125-2.125 2.125H36.894c-.587 0-1.055.467-1.055 1.055 0 .588.468 1.055 1.055 1.055H52.96a4.239 4.239 0 004.235-4.235V13.187zm-12.162-1.025v-8.56l8.56 8.56h-8.56z" fill="#4B6EF5"/><path d="M38.718 22.215h-5.637a.453.453 0 00-.437.346L28.59 40.18l-.964 4.762-.95-4.943-3.617-17.422a.45.45 0 00-.437-.362h-6.119a.438.438 0 00-.437.362L12.63 40.089l-.89 4.853L10.852 40 6.829 22.56a.437.437 0 00-.438-.346H.452a.454.454 0 00-.437.573L8.561 52.93c.06.196.226.331.437.331h5.32c.21 0 .407-.15.437-.361l3.677-17.8 1.1-5.998 1.1 5.999L24.31 52.9a.45.45 0 00.437.361h5.501a.466.466 0 00.437-.331l8.485-30.142a.464.464 0 00-.452-.573z" fill="#4B6EF5"/></svg>