<svg width="36" height="34" fill="none" xmlns="http://www.w3.org/2000/svg"><path d="M6.195 23.633H1.308c-.724 0-1.308.585-1.308 1.308v8.577c0 .263.212.482.482.482h6.539a.482.482 0 00.482-.482V24.94a1.316 1.316 0 00-1.308-1.308zm.343 9.402H.964v-8.094c0-.19.154-.343.344-.343h4.887c.19 0 .343.153.343.343v8.095zm8.942-18.161h-4.887c-.723 0-1.308.585-1.308 1.308v17.336c0 .263.212.482.482.482h6.539a.482.482 0 00.482-.482V16.182c0-.716-.592-1.308-1.308-1.308zm.344 18.162H10.25V16.182c0-.19.153-.344.343-.344h4.887c.19 0 .344.154.344.344v16.854zm8.942-15.816h-4.887c-.724 0-1.308.584-1.308 1.307v14.99c0 .264.212.483.482.483h6.539a.482.482 0 00.482-.482V18.527c0-.723-.585-1.308-1.308-1.308zm.343 15.816h-5.574v-14.51c0-.189.154-.342.344-.342h4.887c.19 0 .343.153.343.343v14.509zm8.942-22.546h-4.887c-.724 0-1.308.585-1.308 1.308v21.72c0 .263.212.482.482.482h6.539a.482.482 0 00.482-.482v-21.72c0-.723-.585-1.307-1.308-1.307zm.343 22.546H28.82V11.798c0-.19.154-.343.344-.343h4.887c.19 0 .343.153.343.343v21.238z" fill="#fff"/><path d="M3.623 18.454a2.363 2.363 0 001.74-3.96l5.96-6.502a2.365 2.365 0 003.638-.81l4.932 2.366c-.03.154-.051.314-.051.482 0 1.3 1.059 2.36 2.36 2.36 1.3 0 2.36-1.06 2.36-2.36 0-.387-.096-.752-.264-1.08l6.078-4.727c.402.314.906.496 1.447.496 1.3 0 2.36-1.059 2.36-2.36 0-1.3-1.06-2.359-2.36-2.359-1.3 0-2.36 1.06-2.36 2.36 0 .409.102.796.292 1.132L23.7 8.204a2.337 2.337 0 00-1.49-.533 2.36 2.36 0 00-1.929 1l-5.092-2.447v-.05c0-1.301-1.06-2.36-2.36-2.36a2.363 2.363 0 00-2.11 3.418l-6.145 6.7a2.363 2.363 0 00-3.31 2.162c0 1.3 1.06 2.36 2.36 2.36zM30.435 2.367a1.395 1.395 0 111.395 1.395 1.413 1.413 0 01-1.293-.877 1.369 1.369 0 01-.102-.518zM21.17 9.095a1.39 1.39 0 011.038-.46c.255 0 .497.066.701.19a1.388 1.388 0 01.694 1.206 1.395 1.395 0 11-2.79 0v-.044c.007-.336.145-.65.357-.892zm-9.738-2.922a1.395 1.395 0 112.79.007c0 .212-.043.41-.13.592a1.41 1.41 0 01-1.265.811c-.321 0-.613-.11-.847-.292a1.386 1.386 0 01-.548-1.118zm-7.81 8.518a1.421 1.421 0 011.089.519 1.395 1.395 0 11-2.477.884 1.4 1.4 0 011.388-1.403z" fill="#fff"/></svg>