<svg width="35" height="34" fill="none" xmlns="http://www.w3.org/2000/svg"><path d="M34.175 7.731a4.595 4.595 0 00-7.056-3.877A14.902 14.902 0 0017.091 0 14.909 14.909 0 007.064 3.862a4.548 4.548 0 00-2.471-.723A4.595 4.595 0 000 7.73a4.6 4.6 0 002.447 4.06 15.13 15.13 0 00-.341 3.195c0 6.666 4.37 12.324 10.4 14.27v.151A4.595 4.595 0 0017.1 34a4.595 4.595 0 004.593-4.593v-.15c6.023-1.94 10.401-7.605 10.401-14.271 0-1.097-.12-2.17-.342-3.202a4.596 4.596 0 002.424-4.053zm-3.774 3.37a3.467 3.467 0 01-4.275-3.37c0-.914.357-1.748.937-2.368.263-.278.565-.508.898-.69a3.467 3.467 0 015.093 3.06 3.484 3.484 0 01-1.605 2.922 3.6 3.6 0 01-1.048.445zM4.6 4.274a3.474 3.474 0 012.534 1.104c.58.62.93 1.446.93 2.36a3.467 3.467 0 01-4.267 3.37 3.462 3.462 0 01-2.654-3.361A3.452 3.452 0 014.6 4.274zm12.498 28.597a3.466 3.466 0 01-3.456-3.298c0-.055-.008-.103-.008-.159 0-.333.048-.66.135-.97a3.468 3.468 0 013.321-2.494 3.46 3.46 0 013.457 3.464c0 .056 0 .111-.008.16a3.44 3.44 0 01-3.44 3.297zm13.858-17.878c0 6.102-3.965 11.29-9.448 13.142a4.598 4.598 0 00-4.41-3.305 4.598 4.598 0 00-4.41 3.305c-5.49-1.843-9.447-7.04-9.447-13.142 0-.954.095-1.891.286-2.797a4.595 4.595 0 004.426-7.604 13.8 13.8 0 019.153-3.465 13.77 13.77 0 019.146 3.457 4.595 4.595 0 003.345 7.74 4.92 4.92 0 001.089-.128c.166.898.27 1.835.27 2.797z" fill="#fff"/></svg>