<svg width="34" height="34" fill="none" xmlns="http://www.w3.org/2000/svg"><path d="M33.915 14.484c-.009-.315-.243-.594-.593-.693a.32.32 0 00-.09-.018l-3.211-.368-.036-.108a18.587 18.587 0 00-1.331-3.013l-.054-.1 1.96-2.697a.659.659 0 00.135-.315.654.654 0 00-.18-.576l-3.471-3.363a.64.64 0 00-.567-.198.75.75 0 00-.314.126c-.01.009-.018.018-.027.018L23.518 5.22l-.108-.054c-1.142-.62-2.068-.998-3.003-1.232l-.117-.027L19.83.68c0-.018-.009-.045-.009-.063-.08-.333-.342-.576-.63-.612-.026 0-.053-.009-.09 0l-4.757.09c-.315.009-.594.243-.693.594-.009.035-.018.062-.018.098l-.368 3.202-.108.036c-1.017.342-1.97.765-3.022 1.331l-.1.054L7.43 3.458a.744.744 0 00-.36-.144.636.636 0 00-.54.18L3.238 6.857a.643.643 0 00-.198.585.724.724 0 00.126.297c.009.009.018.027.027.036l2.041 2.59-.054.108c-.62 1.133-1.007 2.06-1.24 3.003l-.028.117-3.228.46c-.018 0-.045.008-.063.008-.324.081-.567.324-.612.612C0 14.709 0 14.745 0 14.78l.09 4.74c.009.368.306.61.594.692a.323.323 0 00.098.018l3.211.368.036.108c.342 1.017.765 1.97 1.331 3.013l.054.1-1.96 2.697a.778.778 0 00-.135.306.623.623 0 00.18.576L6.97 30.77a.64.64 0 00.567.198.748.748 0 00.314-.126l.027-.027 2.6-2.032.107.054c1.143.62 2.07.998 3.004 1.232l.117.027.459 3.228c0 .018.009.045.009.063.09.36.387.612.71.612h4.578c.324 0 .603-.234.702-.594.009-.036.018-.063.018-.099l.369-3.201.107-.036a18.678 18.678 0 003.022-1.331l.1-.054 2.697 1.951a.773.773 0 00.342.144.654.654 0 00.549-.18l3.381-3.462a.616.616 0 00.19-.585.642.642 0 00-.127-.288c-.009-.009-.018-.027-.027-.035l-2.041-2.59.054-.109c.62-1.142 1.007-2.068 1.24-3.003l.028-.117 3.229-.46c.017 0 .044-.008.063-.008.323-.081.566-.324.611-.612.009-.036.009-.072.009-.108l-.063-4.74zm-4.425 4.748a.637.637 0 00-.521.468l-.135.53c-.207.828-.558 1.665-1.125 2.708l-.251.468a.644.644 0 00.054.692l1.987 2.527-2.662 2.725-2.644-1.906a.617.617 0 00-.666-.045l-.45.242c-.98.531-1.879.927-2.814 1.242l-.486.162a.621.621 0 00-.423.521l-.36 3.175h-3.633l-.468-3.247a.637.637 0 00-.467-.521l-.53-.135c-.837-.207-1.665-.558-2.708-1.125l-.468-.251a.644.644 0 00-.692.054l-2.536 1.987-2.734-2.653 1.915-2.635a.632.632 0 00.045-.675l-.243-.45c-.53-.97-.926-1.87-1.24-2.805l-.163-.486a.621.621 0 00-.521-.423l-3.193-.368-.099-3.778 3.238-.458a.637.637 0 00.521-.468l.135-.53c.207-.828.558-1.664 1.125-2.708l.26-.468a.644.644 0 00-.054-.692L4.488 7.379 7.05 4.744 9.596 6.64a.614.614 0 00.675.045l.458-.252c.98-.53 1.88-.926 2.815-1.24l.486-.163a.621.621 0 00.423-.521l.369-3.184 3.813-.072.467 3.238a.637.637 0 00.468.521l.53.135c.837.207 1.674.549 2.708 1.125l.468.251a.644.644 0 00.692-.054l2.536-1.987 2.734 2.653-1.915 2.635a.631.631 0 00-.045.675l.243.45c.53.97.926 1.87 1.24 2.805l.163.486a.62.62 0 00.521.423l3.193.368.072 3.796-3.22.458z" fill="#fff"/><path d="M16.998 10.752a6.26 6.26 0 00-6.25 6.25 6.26 6.26 0 006.25 6.25 6.26 6.26 0 006.25-6.25 6.26 6.26 0 00-6.25-6.25zm0 11.242a4.997 4.997 0 01-4.992-4.992 4.997 4.997 0 014.992-4.991 4.997 4.997 0 014.991 4.991 4.997 4.997 0 01-4.991 4.992z" fill="#fff"/></svg>