<svg width="30" height="34" fill="none" xmlns="http://www.w3.org/2000/svg"><path d="M29.142 8.038L15.516.17a1.267 1.267 0 00-1.267 0L.63 8.038A1.27 1.27 0 000 9.136v15.728c0 .454.24.871.63 1.098l13.626 7.868a1.257 1.257 0 001.26 0l13.626-7.868c.39-.227.63-.644.63-1.098V9.13c0-.447-.24-.872-.63-1.091zM23.32 21.323c.007-.056.014-.12.014-.184v-8.285c0-.064-.007-.12-.014-.185l5.523-3.108v14.871l-5.523-3.108zM.928 24.447V9.532l5.524 3.137c-.008.057-.015.12-.015.185v8.292c0 .064.007.12.015.185L.928 24.447zM14.716 8.42a.336.336 0 01.17-.042.38.38 0 01.17.042l6.884 3.973-7.054 4.065-7.046-4.072 6.876-3.966zM7.372 21.14v-7.947l7.047 4.073v8.137L7.535 21.43a.336.336 0 01-.163-.29zm7.982-3.874l7.046-4.072v7.945c0 .12-.064.227-.17.29l-6.884 3.974v-8.137h.008zM28.447 8.71l-5.595 3.151c-.05-.035-.099-.078-.156-.106l-7.18-4.143c-.057-.028-.107-.057-.163-.078V1.147l13.094 7.564zm-14.03-7.564v6.381c-.056.021-.113.05-.17.078l-7.173 4.15a.757.757 0 00-.156.106L1.346 8.697l13.073-7.55zM1.339 25.29l5.581-3.158c.05.035.1.07.156.106l7.18 4.143c.057.028.114.057.17.078v6.38L1.339 25.29zm14.015 7.557v-6.381c.057-.021.114-.05.163-.078l7.181-4.15c.057-.028.107-.07.156-.106l5.595 3.144-13.095 7.57z" fill="#fff"/></svg>