<svg width="38" height="33" fill="none" xmlns="http://www.w3.org/2000/svg"><path d="M37.288 30.23L20.368.92c-.33-.58-.93-.92-1.6-.92s-1.27.349-1.6.92L.248 30.23a1.85 1.85 0 000 1.85c.33.58.93.92 1.6.92h33.84c.67 0 1.27-.349 1.6-.92a1.85 1.85 0 000-1.85zm-1.18 1.161a.486.486 0 01-.42.241H1.848a.486.486 0 01-.42-.24.47.47 0 010-.483l16.92-29.3a.467.467 0 01.42-.241c.08 0 .295.026.42.24l16.92 29.3a.467.467 0 010 .483z" fill="#fff"/><path d="M18.768 11.96a.778.778 0 00-.777.777V22.99a.778.778 0 001.555 0V12.737a.778.778 0 00-.778-.777zm0 13.585a.778.778 0 00-.777.778v.635a.778.778 0 001.555 0v-.626a.78.78 0 00-.778-.787z" fill="#fff"/></svg>