<svg width="506" height="711" fill="none" xmlns="http://www.w3.org/2000/svg"><path d="M205.02 95.854c-6.204 6.203-10.152 14.849-10.152 24.436.188 19.172 15.604 34.585 34.592 34.585 7.708 0 15.04-2.632 20.868-6.767l1.692-1.316c5.076-3.195 11.468-2.819 15.98.94v75.186c0 8.27-6.768 15.037-15.04 15.037h-74.636c-3.76 4.511-4.136 10.902-.94 15.977l1.128 1.692c4.136 5.827 6.768 13.157 6.768 20.864 0 9.586-3.948 18.232-10.152 24.435-6.204 6.203-14.852 10.15-24.44 10.15-19.176-.188-34.592-15.601-34.592-34.585 0-7.707 2.632-15.037 6.768-20.864l1.316-1.692c3.196-5.075 2.82-11.466-.94-15.977h-75.2c-8.272 0-15.04-6.767-15.04-15.037V18.038C33 9.766 39.768 3 48.04 3h204.92C261.232 3 268 9.767 268 18.037V92.66c-4.512 3.76-10.904 4.135-15.98.94l-1.692-1.128c-5.828-4.135-13.16-6.767-20.868-6.767-9.588 0-18.236 3.76-24.44 10.15z" fill="#3371AA" stroke="#fff" stroke-width="5"/><path d="M54.762 114.436V127h-2.52v-12.564h2.52zm10.248 0v2.034h-5.238v3.222h4.014v1.998h-4.014V127h-2.52v-12.564h7.758zm1.175 6.264c0-1.236.276-2.34.828-3.312a5.976 5.976 0 012.286-2.286c.972-.552 2.058-.828 3.258-.828 1.404 0 2.634.36 3.69 1.08 1.056.72 1.794 1.716 2.214 2.988h-2.898c-.288-.6-.696-1.05-1.224-1.35-.516-.3-1.116-.45-1.8-.45-.732 0-1.386.174-1.962.522a3.519 3.519 0 00-1.332 1.44c-.312.624-.468 1.356-.468 2.196 0 .828.156 1.56.468 2.196.324.624.768 1.11 1.332 1.458.576.336 1.23.504 1.962.504.684 0 1.284-.15 1.8-.45.528-.312.936-.768 1.224-1.368h2.898c-.42 1.284-1.158 2.286-2.214 3.006-1.044.708-2.274 1.062-3.69 1.062-1.2 0-2.286-.27-3.258-.81a6.146 6.146 0 01-2.286-2.286c-.552-.972-.828-2.076-.828-3.312zm30.003-6.264L91.58 127h-3.06l-4.608-12.564h2.7l3.456 9.99 3.438-9.99h2.682zm2.789 1.404c-.444 0-.816-.138-1.116-.414a1.444 1.444 0 01-.432-1.062c0-.42.144-.768.432-1.044.3-.288.672-.432 1.116-.432.444 0 .81.144 1.098.432.3.276.45.624.45 1.044 0 .42-.15.774-.45 1.062-.288.276-.654.414-1.098.414zm1.242 1.188V127h-2.52v-9.972h2.52zm11.76 4.77c0 .36-.024.684-.072.972h-7.29c.06.72.312 1.284.756 1.692.444.408.99.612 1.638.612.936 0 1.602-.402 1.998-1.206h2.718a4.588 4.588 0 01-1.656 2.376c-.816.612-1.818.918-3.006.918-.96 0-1.824-.21-2.592-.63a4.637 4.637 0 01-1.782-1.818c-.42-.78-.63-1.68-.63-2.7 0-1.032.21-1.938.63-2.718a4.396 4.396 0 011.764-1.8c.756-.42 1.626-.63 2.61-.63.948 0 1.794.204 2.538.612.756.408 1.338.99 1.746 1.746.42.744.63 1.602.63 2.574zm-2.61-.72c-.012-.648-.246-1.164-.702-1.548-.456-.396-1.014-.594-1.674-.594-.624 0-1.152.192-1.584.576-.42.372-.678.894-.774 1.566h4.734zm18.273-4.05L124.726 127h-2.718l-1.818-6.966-1.818 6.966h-2.736l-2.934-9.972h2.556l1.764 7.596 1.908-7.596h2.664l1.872 7.578 1.764-7.578h2.412zm10.634 4.77c0 .36-.024.684-.072.972h-7.29c.06.72.312 1.284.756 1.692.444.408.99.612 1.638.612.936 0 1.602-.402 1.998-1.206h2.718a4.588 4.588 0 01-1.656 2.376c-.816.612-1.818.918-3.006.918-.96 0-1.824-.21-2.592-.63a4.637 4.637 0 01-1.782-1.818c-.42-.78-.63-1.68-.63-2.7 0-1.032.21-1.938.63-2.718a4.396 4.396 0 011.764-1.8c.756-.42 1.626-.63 2.61-.63.948 0 1.794.204 2.538.612.756.408 1.338.99 1.746 1.746.42.744.63 1.602.63 2.574zm-2.61-.72c-.012-.648-.246-1.164-.702-1.548-.456-.396-1.014-.594-1.674-.594-.624 0-1.152.192-1.584.576-.42.372-.678.894-.774 1.566h4.734zm6.969-2.502a3.567 3.567 0 011.26-1.242c.528-.3 1.128-.45 1.8-.45v2.646h-.666c-.792 0-1.392.186-1.8.558-.396.372-.594 1.02-.594 1.944V127h-2.52v-9.972h2.52v1.548zM80.142 64.038L66.516 56.17a1.266 1.266 0 00-1.267 0L51.63 64.038a1.27 1.27 0 00-.63 1.098v15.728c0 .454.24.871.63 1.098l13.626 7.868a1.257 1.257 0 001.26 0l13.626-7.868c.39-.227.63-.644.63-1.098V65.128c0-.446-.24-.87-.63-1.09zM74.32 77.323c.007-.056.014-.12.014-.184v-8.285c0-.064-.007-.12-.014-.185l5.523-3.108v14.871l-5.523-3.109zm-22.393 3.124V65.532l5.524 3.137c-.008.057-.015.12-.015.185v8.292c0 .064.008.12.015.185l-5.524 3.116zM65.716 64.42a.337.337 0 01.17-.042.38.38 0 01.17.042l6.884 3.973-7.054 4.065-7.046-4.072 6.876-3.966zm-7.344 12.72v-7.947l7.047 4.073v8.137l-6.884-3.973a.336.336 0 01-.163-.29zm7.981-3.874l7.047-4.073v7.946c0 .12-.064.227-.17.29l-6.884 3.974v-8.137h.007zm13.095-8.555l-5.595 3.151c-.05-.035-.099-.078-.156-.106l-7.18-4.143c-.057-.028-.107-.057-.163-.078v-6.388l13.094 7.564zm-14.03-7.564v6.381c-.056.021-.113.05-.17.078l-7.173 4.15a.753.753 0 00-.156.106l-5.573-3.165 13.073-7.55zM52.339 81.29l5.581-3.158c.05.035.1.07.156.106l7.18 4.143c.057.028.114.057.17.078v6.38L52.34 81.29zm14.015 7.557v-6.381c.057-.021.114-.05.163-.078l7.181-4.15c.057-.028.107-.07.156-.106l5.595 3.144-13.094 7.57z" fill="#fff"/><path d="M503 488.037v204.881c0 8.27-6.768 15.037-15.04 15.037H283.04c-8.272 0-15.04-6.767-15.04-15.037v-75.186c-4.512-3.759-10.904-4.135-15.98-.939l-1.692 1.315c-5.828 4.135-13.16 6.767-20.868 6.767-18.988 0-34.404-15.413-34.592-34.585 0-9.587 3.76-18.233 10.152-24.436 6.204-6.203 14.852-10.15 24.44-10.15 7.708 0 15.04 2.632 20.868 6.767l1.692 1.128c5.076 3.195 11.468 2.819 15.98-.94v-74.622c0-8.27 6.768-15.037 15.04-15.037h75.2c3.76 4.511 4.136 10.902.94 15.977l-1.316 1.692c-4.136 5.826-6.768 13.157-6.768 20.864 0 18.984 15.416 34.397 34.592 34.585 9.588 0 18.236-3.759 24.44-10.15 6.204-6.203 10.152-14.849 10.152-24.435 0-7.707-2.632-15.038-6.768-20.864l-1.128-1.692c-3.196-5.075-2.82-11.466.94-15.977h74.636c8.272 0 15.04 6.767 15.04 15.037z" fill="#4DCDD7" stroke="#fff" stroke-width="5"/><rect x="339.868" y="611" width="142" height="32" rx="16" fill="#00B8C6"/><path d="M361.204 629.87h-4.365l-.75 2.13h-1.785l3.735-10.44h1.98l3.735 10.44h-1.8l-.75-2.13zm-.48-1.395l-1.695-4.845-1.71 4.845h3.405zm8.149 1.995l2.34-6.735h1.815l-3.15 8.265h-2.04l-3.135-8.265h1.83l2.34 6.735zm5.178-2.64c0-.83.17-1.565.51-2.205a3.81 3.81 0 013.39-2.025c.65 0 1.215.13 1.695.39.49.25.88.565 1.17.945v-1.2h1.725V632h-1.725v-1.23c-.29.39-.685.715-1.185.975s-1.07.39-1.71.39c-.71 0-1.36-.18-1.95-.54-.59-.37-1.06-.88-1.41-1.53-.34-.66-.51-1.405-.51-2.235zm6.765.03c0-.57-.12-1.065-.36-1.485-.23-.42-.535-.74-.915-.96-.38-.22-.79-.33-1.23-.33-.44 0-.85.11-1.23.33-.38.21-.69.525-.93.945-.23.41-.345.9-.345 1.47s.115 1.07.345 1.5c.24.43.55.76.93.99.39.22.8.33 1.23.33.44 0 .85-.11 1.23-.33.38-.22.685-.54.915-.96.24-.43.36-.93.36-1.5zm5.141-5.22c-.31 0-.57-.105-.78-.315a1.06 1.06 0 01-.315-.78c0-.31.105-.57.315-.78.21-.21.47-.315.78-.315.3 0 .555.105.765.315.21.21.315.47.315.78 0 .31-.105.57-.315.78-.21.21-.465.315-.765.315zm.84 1.095V632h-1.71v-8.265h1.71zm4.255-2.835V632h-1.71v-11.1h1.71zm1.975 6.93c0-.83.17-1.565.51-2.205a3.81 3.81 0 013.39-2.025c.65 0 1.215.13 1.695.39.49.25.88.565 1.17.945v-1.2h1.725V632h-1.725v-1.23c-.29.39-.685.715-1.185.975s-1.07.39-1.71.39c-.71 0-1.36-.18-1.95-.54-.59-.37-1.06-.88-1.41-1.53-.34-.66-.51-1.405-.51-2.235zm6.765.03c0-.57-.12-1.065-.36-1.485-.23-.42-.535-.74-.915-.96-.38-.22-.79-.33-1.23-.33-.44 0-.85.11-1.23.33-.38.21-.69.525-.93.945-.23.41-.345.9-.345 1.47s.115 1.07.345 1.5c.24.43.55.76.93.99.39.22.8.33 1.23.33.44 0 .85-.11 1.23-.33.38-.22.685-.54.915-.96.24-.43.36-.93.36-1.5zm5.981-2.895c.29-.4.685-.725 1.185-.975.51-.26 1.075-.39 1.695-.39.73 0 1.39.175 1.98.525.59.35 1.055.85 1.395 1.5.34.64.51 1.375.51 2.205 0 .83-.17 1.575-.51 2.235-.34.65-.81 1.16-1.41 1.53-.59.36-1.245.54-1.965.54-.64 0-1.21-.125-1.71-.375-.49-.25-.88-.57-1.17-.96v1.2h-1.71v-11.1h1.71v4.065zm5.025 2.865c0-.57-.12-1.06-.36-1.47a2.29 2.29 0 00-.93-.945c-.38-.22-.79-.33-1.23-.33-.43 0-.84.11-1.23.33-.38.22-.69.54-.93.96-.23.42-.345.915-.345 1.485 0 .57.115 1.07.345 1.5.24.42.55.74.93.96.39.22.8.33 1.23.33.44 0 .85-.11 1.23-.33.39-.23.7-.56.93-.99.24-.43.36-.93.36-1.5zm5.441-6.93V632h-1.71v-11.1h1.71zm10.12 6.765c0 .31-.02.59-.06.84h-6.315c.05.66.295 1.19.735 1.59.44.4.98.6 1.62.6.92 0 1.57-.385 1.95-1.155h1.845a3.748 3.748 0 01-1.365 1.875c-.65.48-1.46.72-2.43.72-.79 0-1.5-.175-2.13-.525-.62-.36-1.11-.86-1.47-1.5-.35-.65-.525-1.4-.525-2.25 0-.85.17-1.595.51-2.235a3.69 3.69 0 011.455-1.5c.63-.35 1.35-.525 2.16-.525.78 0 1.475.17 2.085.51.61.34 1.085.82 1.425 1.44.34.61.51 1.315.51 2.115zm-1.785-.54c-.01-.63-.235-1.135-.675-1.515-.44-.38-.985-.57-1.635-.57-.59 0-1.095.19-1.515.57-.42.37-.67.875-.75 1.515h4.575zm10.965 5.01c-.65 0-1.235-.115-1.755-.345-.51-.24-.915-.56-1.215-.96-.3-.41-.46-.865-.48-1.365h1.77c.03.35.195.645.495.885.31.23.695.345 1.155.345.48 0 .85-.09 1.11-.27.27-.19.405-.43.405-.72 0-.31-.15-.54-.45-.69-.29-.15-.755-.315-1.395-.495-.62-.17-1.125-.335-1.515-.495a2.72 2.72 0 01-1.02-.735c-.28-.33-.42-.765-.42-1.305 0-.44.13-.84.39-1.2.26-.37.63-.66 1.11-.87.49-.21 1.05-.315 1.68-.315.94 0 1.695.24 2.265.72.58.47.89 1.115.93 1.935h-1.71c-.03-.37-.18-.665-.45-.885-.27-.22-.635-.33-1.095-.33-.45 0-.795.085-1.035.255a.79.79 0 00-.36.675c0 .22.08.405.24.555.16.15.355.27.585.36.23.08.57.185 1.02.315.6.16 1.09.325 1.47.495.39.16.725.4 1.005.72.28.32.425.745.435 1.275 0 .47-.13.89-.39 1.26s-.63.66-1.11.87c-.47.21-1.025.315-1.665.315zm8.897 0c-.78 0-1.485-.175-2.115-.525a3.892 3.892 0 01-1.485-1.5c-.36-.65-.54-1.4-.54-2.25 0-.84.185-1.585.555-2.235.37-.65.875-1.15 1.515-1.5.64-.35 1.355-.525 2.145-.525s1.505.175 2.145.525c.64.35 1.145.85 1.515 1.5.37.65.555 1.395.555 2.235 0 .84-.19 1.585-.57 2.235-.38.65-.9 1.155-1.56 1.515-.65.35-1.37.525-2.16.525zm0-1.485c.44 0 .85-.105 1.23-.315.39-.21.705-.525.945-.945.24-.42.36-.93.36-1.53s-.115-1.105-.345-1.515a2.318 2.318 0 00-.915-.945c-.38-.21-.79-.315-1.23-.315-.44 0-.85.105-1.23.315-.37.21-.665.525-.885.945-.22.41-.33.915-.33 1.515 0 .89.225 1.58.675 2.07.46.48 1.035.72 1.725.72zm9.866 1.485c-.78 0-1.485-.175-2.115-.525a3.892 3.892 0 01-1.485-1.5c-.36-.65-.54-1.4-.54-2.25 0-.84.185-1.585.555-2.235.37-.65.875-1.15 1.515-1.5.64-.35 1.355-.525 2.145-.525s1.505.175 2.145.525c.64.35 1.145.85 1.515 1.5.37.65.555 1.395.555 2.235 0 .84-.19 1.585-.57 2.235-.38.65-.9 1.155-1.56 1.515-.65.35-1.37.525-2.16.525zm0-1.485c.44 0 .85-.105 1.23-.315.39-.21.705-.525.945-.945.24-.42.36-.93.36-1.53s-.115-1.105-.345-1.515a2.318 2.318 0 00-.915-.945c-.38-.21-.79-.315-1.23-.315-.44 0-.85.105-1.23.315-.37.21-.665.525-.885.945-.22.41-.33.915-.33 1.515 0 .89.225 1.58.675 2.07.46.48 1.035.72 1.725.72zm10.45-7.05c.65 0 1.23.135 1.74.405.52.27.925.67 1.215 1.2.29.53.435 1.17.435 1.92V632h-1.695v-4.62c0-.74-.185-1.305-.555-1.695-.37-.4-.875-.6-1.515-.6-.64 0-1.15.2-1.53.6-.37.39-.555.955-.555 1.695V632h-1.71v-8.265h1.71v.945c.28-.34.635-.605 1.065-.795.44-.19.905-.285 1.395-.285zm-93.954-33.044c.708.132 1.29.486 1.746 1.062.456.576.684 1.236.684 1.98 0 .672-.168 1.266-.504 1.782-.324.504-.798.9-1.422 1.188-.624.288-1.362.432-2.214.432h-5.418v-12.564h5.184c.852 0 1.584.138 2.196.414.624.276 1.092.66 1.404 1.152.324.492.486 1.05.486 1.674 0 .732-.198 1.344-.594 1.836-.384.492-.9.84-1.548 1.044zm-4.608-.936h2.304c.6 0 1.062-.132 1.386-.396.324-.276.486-.666.486-1.17 0-.504-.162-.894-.486-1.17-.324-.276-.786-.414-1.386-.414h-2.304v3.15zm2.538 5.328c.612 0 1.086-.144 1.422-.432.348-.288.522-.696.522-1.224 0-.54-.18-.96-.54-1.26-.36-.312-.846-.468-1.458-.468h-2.484v3.384h2.538zm9.028-10.512V597h-2.52v-12.564h2.52zm16.188 0V597h-2.52v-8.172L388.058 597h-1.908l-3.384-8.172V597h-2.52v-12.564h2.862l3.996 9.342 3.996-9.342h2.844zm14.484 10.17h-5.004l-.828 2.394h-2.646l4.518-12.582h2.934L411.92 597h-2.664l-.828-2.394zm-.684-2.016l-1.818-5.256-1.818 5.256h3.636zm11.391-5.706c1.188 0 2.148.378 2.88 1.134.732.744 1.098 1.788 1.098 3.132V597h-2.52v-5.508c0-.792-.198-1.398-.594-1.818-.396-.432-.936-.648-1.62-.648-.696 0-1.248.216-1.656.648-.396.42-.594 1.026-.594 1.818V597h-2.52v-9.972h2.52v1.242a3.417 3.417 0 011.278-1.008 3.96 3.96 0 011.728-.378zm5.727 5.094c0-1.008.198-1.902.594-2.682.408-.78.954-1.38 1.638-1.8.696-.42 1.47-.63 2.322-.63.744 0 1.392.15 1.944.45.564.3 1.014.678 1.35 1.134v-1.422h2.538V597h-2.538v-1.458c-.324.468-.774.858-1.35 1.17-.564.3-1.218.45-1.962.45-.84 0-1.608-.216-2.304-.648-.684-.432-1.23-1.038-1.638-1.818-.396-.792-.594-1.698-.594-2.718zm7.848.036c0-.612-.12-1.134-.36-1.566a2.463 2.463 0 00-.972-1.008 2.548 2.548 0 00-1.314-.36c-.468 0-.9.114-1.296.342-.396.228-.72.564-.972 1.008-.24.432-.36.948-.36 1.548 0 .6.12 1.128.36 1.584.252.444.576.786.972 1.026.408.24.84.36 1.296.36a2.65 2.65 0 001.314-.342c.408-.24.732-.576.972-1.008.24-.444.36-.972.36-1.584zm7.519-8.334V597h-2.52v-13.32h2.52zm12.03 3.348l-6.174 14.688h-2.682l2.16-4.968-3.996-9.72h2.826l2.574 6.966 2.61-6.966h2.682zm4.292 2.07v4.824c0 .336.078.582.234.738.168.144.444.216.828.216h1.17V597h-1.584c-2.124 0-3.186-1.032-3.186-3.096v-4.806h-1.188v-2.07h1.188v-2.466h2.538v2.466h2.232v2.07h-2.232zm5.323-3.258c-.444 0-.816-.138-1.116-.414a1.444 1.444 0 01-.432-1.062c0-.42.144-.768.432-1.044.3-.288.672-.432 1.116-.432.444 0 .81.144 1.098.432.3.276.45.624.45 1.044 0 .42-.15.774-.45 1.062-.288.276-.654.414-1.098.414zm1.242 1.188V597h-2.52v-9.972h2.52zm1.841 4.986c0-1.032.21-1.932.63-2.7a4.428 4.428 0 011.746-1.8c.744-.432 1.596-.648 2.556-.648 1.236 0 2.256.312 3.06.936.816.612 1.362 1.476 1.638 2.592h-2.718a1.923 1.923 0 00-.738-1.008c-.336-.252-.756-.378-1.26-.378-.72 0-1.29.264-1.71.792-.42.516-.63 1.254-.63 2.214 0 .948.21 1.686.63 2.214.42.516.99.774 1.71.774 1.02 0 1.686-.456 1.998-1.368h2.718c-.276 1.08-.822 1.938-1.638 2.574-.816.636-1.836.954-3.06.954-.96 0-1.812-.21-2.556-.63a4.58 4.58 0 01-1.746-1.8c-.42-.78-.63-1.686-.63-2.718zm15.292 5.148c-.816 0-1.548-.144-2.196-.432-.648-.3-1.164-.702-1.548-1.206a3.069 3.069 0 01-.612-1.674h2.538c.048.384.234.702.558.954.336.252.75.378 1.242.378.48 0 .852-.096 1.116-.288.276-.192.414-.438.414-.738 0-.324-.168-.564-.504-.72-.324-.168-.846-.348-1.566-.54-.744-.18-1.356-.366-1.836-.558a3.263 3.263 0 01-1.224-.882c-.336-.396-.504-.93-.504-1.602 0-.552.156-1.056.468-1.512.324-.456.78-.816 1.368-1.08.6-.264 1.302-.396 2.106-.396 1.188 0 2.136.3 2.844.9.708.588 1.098 1.386 1.17 2.394h-2.412a1.265 1.265 0 00-.504-.936c-.288-.24-.678-.36-1.17-.36-.456 0-.81.084-1.062.252a.81.81 0 00-.36.702c0 .336.168.594.504.774.336.168.858.342 1.566.522.72.18 1.314.366 1.782.558.468.192.87.492 1.206.9.348.396.528.924.54 1.584 0 .576-.162 1.092-.486 1.548-.312.456-.768.816-1.368 1.08-.588.252-1.278.378-2.07.378zm-24.054-47.529h-4.887c-.724 0-1.308.585-1.308 1.308v8.577c0 .263.212.482.482.482h6.539a.482.482 0 00.482-.482v-8.577a1.317 1.317 0 00-1.308-1.308zm.343 9.403h-5.574v-8.095c0-.19.154-.343.344-.343h4.887c.19 0 .343.153.343.343v8.095zm8.942-18.162h-4.887c-.723 0-1.308.584-1.308 1.308v17.336c0 .263.212.482.483.482h6.538a.482.482 0 00.482-.482v-17.336c0-.716-.592-1.308-1.308-1.308zm.344 18.162h-5.574v-16.854c0-.19.153-.344.343-.344h4.887c.19 0 .344.154.344.344v16.854zm8.942-15.817h-4.888c-.723 0-1.307.585-1.307 1.308v14.991c0 .263.212.482.482.482h6.538a.482.482 0 00.483-.482v-14.991c0-.723-.585-1.308-1.308-1.308zm.343 15.817h-5.574v-14.509c0-.19.154-.344.343-.344h4.888c.19 0 .343.154.343.344v14.509zm8.942-22.545h-4.887c-.724 0-1.308.584-1.308 1.307v21.72c0 .263.212.482.482.482h6.539a.482.482 0 00.482-.482v-21.72c0-.723-.585-1.307-1.308-1.307zm.343 22.545h-5.574v-21.238c0-.19.154-.343.344-.343h4.887c.19 0 .343.153.343.343v21.238z" fill="#fff"/><path d="M453.624 544.454a2.364 2.364 0 001.738-3.96l5.962-6.502c.409.336.935.541 1.505.541.942 0 1.753-.555 2.133-1.352l4.931 2.367a2.588 2.588 0 00-.051.482 2.363 2.363 0 002.36 2.36 2.363 2.363 0 002.096-3.441l6.078-4.726c.402.314.906.496 1.447.496 1.3 0 2.36-1.059 2.36-2.359 0-1.301-1.06-2.36-2.36-2.36-1.3 0-2.36 1.059-2.36 2.36 0 .409.103.796.292 1.132l-6.056 4.712a2.36 2.36 0 00-3.419.468l-5.092-2.448v-.051c0-1.3-1.059-2.36-2.359-2.36a2.364 2.364 0 00-2.112 3.419l-6.144 6.7a2.364 2.364 0 00-3.309 2.162c0 1.3 1.059 2.36 2.36 2.36zm26.811-16.087a1.395 1.395 0 111.395 1.395c-.234 0-.453-.058-.643-.16a1.414 1.414 0 01-.65-.716 1.364 1.364 0 01-.102-.519zm-9.264 6.728c.256-.285.629-.46 1.038-.46.256 0 .497.066.701.19a1.39 1.39 0 01.694 1.205 1.395 1.395 0 11-2.79 0v-.043c.007-.336.146-.651.357-.892zm-9.738-2.922a1.395 1.395 0 112.791.007 1.409 1.409 0 01-1.395 1.403c-.322 0-.614-.109-.848-.292a1.389 1.389 0 01-.548-1.118zm-7.809 8.518a1.422 1.422 0 011.088.519 1.395 1.395 0 11-2.476.884 1.4 1.4 0 011.388-1.403z" fill="#fff"/><path d="M503 253.155v204.881c0 8.27-6.768 15.037-15.04 15.037h-74.636c-3.76 4.511-4.136 10.902-.94 15.977l1.128 1.692c4.136 5.827 6.768 13.157 6.768 20.864 0 9.586-3.76 18.232-10.152 24.435-6.204 6.203-14.852 10.15-24.44 10.15-19.176-.188-34.592-15.601-34.592-34.585 0-7.707 2.632-15.037 6.768-20.864l1.316-1.692c3.196-5.075 2.82-11.466-.94-15.977h-75.2c-8.272 0-15.04-6.767-15.04-15.037V382.85c4.512-3.759 10.904-4.135 15.98-.94l1.692 1.316c5.828 4.135 13.16 6.767 20.868 6.767 18.988 0 34.404-15.413 34.592-34.585 0-9.587-3.76-18.233-10.152-24.436-6.204-6.203-14.852-10.15-24.44-10.15-7.708 0-15.04 2.632-20.868 6.767l-1.692 1.128c-5.076 3.195-11.468 2.819-15.98-.94v-74.622c0-8.27 6.768-15.037 15.04-15.037h75.2c3.76-4.511 4.136-10.902.94-15.977l-1.316-1.692c-4.136-5.826-6.768-13.157-6.768-20.864 0-18.984 15.416-34.397 34.592-34.585 9.588 0 18.236 3.947 24.44 10.15 6.204 6.203 10.152 14.849 10.152 24.435 0 7.707-2.632 15.038-6.768 20.864l-1.128 1.692c-3.196 5.075-2.82 11.466.94 15.977h74.636c8.272 0 15.04 6.767 15.04 15.037z" fill="#C44CA3" stroke="#fff" stroke-width="5"/><path d="M441.125 346.436V359h-2.52v-12.564h2.52zm6.306 12.726c-.816 0-1.548-.144-2.196-.432-.648-.3-1.164-.702-1.548-1.206a3.069 3.069 0 01-.612-1.674h2.538c.048.384.234.702.558.954.336.252.75.378 1.242.378.48 0 .852-.096 1.116-.288.276-.192.414-.438.414-.738 0-.324-.168-.564-.504-.72-.324-.168-.846-.348-1.566-.54-.744-.18-1.356-.366-1.836-.558a3.263 3.263 0 01-1.224-.882c-.336-.396-.504-.93-.504-1.602 0-.552.156-1.056.468-1.512.324-.456.78-.816 1.368-1.08.6-.264 1.302-.396 2.106-.396 1.188 0 2.136.3 2.844.9.708.588 1.098 1.386 1.17 2.394h-2.412a1.265 1.265 0 00-.504-.936c-.288-.24-.678-.36-1.17-.36-.456 0-.81.084-1.062.252a.81.81 0 00-.36.702c0 .336.168.594.504.774.336.168.858.342 1.566.522.72.18 1.314.366 1.782.558.468.192.87.492 1.206.9.348.396.528.924.54 1.584 0 .576-.162 1.092-.486 1.548-.312.456-.768.816-1.368 1.08-.588.252-1.278.378-2.07.378zm9.809 0c-.816 0-1.548-.144-2.196-.432-.648-.3-1.164-.702-1.548-1.206a3.069 3.069 0 01-.612-1.674h2.538c.048.384.234.702.558.954.336.252.75.378 1.242.378.48 0 .852-.096 1.116-.288.276-.192.414-.438.414-.738 0-.324-.168-.564-.504-.72-.324-.168-.846-.348-1.566-.54-.744-.18-1.356-.366-1.836-.558a3.263 3.263 0 01-1.224-.882c-.336-.396-.504-.93-.504-1.602 0-.552.156-1.056.468-1.512.324-.456.78-.816 1.368-1.08.6-.264 1.302-.396 2.106-.396 1.188 0 2.136.3 2.844.9.708.588 1.098 1.386 1.17 2.394h-2.412a1.265 1.265 0 00-.504-.936c-.288-.24-.678-.36-1.17-.36-.456 0-.81.084-1.062.252a.81.81 0 00-.36.702c0 .336.168.594.504.774.336.168.858.342 1.566.522.72.18 1.314.366 1.782.558.468.192.87.492 1.206.9.348.396.528.924.54 1.584 0 .576-.162 1.092-.486 1.548-.312.456-.768.816-1.368 1.08-.588.252-1.278.378-2.07.378zm15.406-10.134V359h-2.538v-1.26c-.324.432-.75.774-1.278 1.026-.516.24-1.08.36-1.692.36-.78 0-1.47-.162-2.07-.486a3.619 3.619 0 01-1.422-1.458c-.336-.648-.504-1.416-.504-2.304v-5.85h2.52v5.49c0 .792.198 1.404.594 1.836.396.42.936.63 1.62.63.696 0 1.242-.21 1.638-.63.396-.432.594-1.044.594-1.836v-5.49h2.538zm11.757 4.77c0 .36-.024.684-.072.972h-7.29c.06.72.312 1.284.756 1.692.444.408.99.612 1.638.612.936 0 1.602-.402 1.998-1.206h2.718a4.588 4.588 0 01-1.656 2.376c-.816.612-1.818.918-3.006.918-.96 0-1.824-.21-2.592-.63a4.637 4.637 0 01-1.782-1.818c-.42-.78-.63-1.68-.63-2.7 0-1.032.21-1.938.63-2.718a4.396 4.396 0 011.764-1.8c.756-.42 1.626-.63 2.61-.63.948 0 1.794.204 2.538.612.756.408 1.338.99 1.746 1.746.42.744.63 1.602.63 2.574zm-2.61-.72c-.012-.648-.246-1.164-.702-1.548-.456-.396-1.014-.594-1.674-.594-.624 0-1.152.192-1.584.576-.42.372-.678.894-.774 1.566h4.734zm-106.499 16.358V382h-2.52v-8.172L369.408 382H367.5l-3.384-8.172V382h-2.52v-12.564h2.862l3.996 9.342 3.996-9.342h2.844zm1.843 7.542c0-1.008.198-1.902.594-2.682.408-.78.954-1.38 1.638-1.8.696-.42 1.47-.63 2.322-.63.744 0 1.392.15 1.944.45.564.3 1.014.678 1.35 1.134v-1.422h2.538V382h-2.538v-1.458c-.324.468-.774.858-1.35 1.17-.564.3-1.218.45-1.962.45-.84 0-1.608-.216-2.304-.648-.684-.432-1.23-1.038-1.638-1.818-.396-.792-.594-1.698-.594-2.718zm7.848.036c0-.612-.12-1.134-.36-1.566a2.463 2.463 0 00-.972-1.008 2.548 2.548 0 00-1.314-.36c-.468 0-.9.114-1.296.342-.396.228-.72.564-.972 1.008-.24.432-.36.948-.36 1.548 0 .6.12 1.128.36 1.584.252.444.576.786.972 1.026.408.24.84.36 1.296.36a2.65 2.65 0 001.314-.342c.408-.24.732-.576.972-1.008.24-.444.36-.972.36-1.584zm10.525-5.13c1.188 0 2.148.378 2.88 1.134.732.744 1.098 1.788 1.098 3.132V382h-2.52v-5.508c0-.792-.198-1.398-.594-1.818-.396-.432-.936-.648-1.62-.648-.696 0-1.248.216-1.656.648-.396.42-.594 1.026-.594 1.818V382h-2.52v-9.972h2.52v1.242a3.417 3.417 0 011.278-1.008 3.96 3.96 0 011.728-.378zm5.727 5.094c0-1.008.198-1.902.594-2.682.408-.78.954-1.38 1.638-1.8.696-.42 1.47-.63 2.322-.63.744 0 1.392.15 1.944.45.564.3 1.014.678 1.35 1.134v-1.422h2.538V382h-2.538v-1.458c-.324.468-.774.858-1.35 1.17-.564.3-1.218.45-1.962.45-.84 0-1.608-.216-2.304-.648-.684-.432-1.23-1.038-1.638-1.818-.396-.792-.594-1.698-.594-2.718zm7.848.036c0-.612-.12-1.134-.36-1.566a2.463 2.463 0 00-.972-1.008 2.548 2.548 0 00-1.314-.36c-.468 0-.9.114-1.296.342-.396.228-.72.564-.972 1.008-.24.432-.36.948-.36 1.548 0 .6.12 1.128.36 1.584.252.444.576.786.972 1.026.408.24.84.36 1.296.36a2.65 2.65 0 001.314-.342c.408-.24.732-.576.972-1.008.24-.444.36-.972.36-1.584zm8.905-5.148c.744 0 1.398.15 1.962.45.564.288 1.008.666 1.332 1.134v-1.422h2.538v10.044c0 .924-.186 1.746-.558 2.466a4.075 4.075 0 01-1.674 1.728c-.744.432-1.644.648-2.7.648-1.416 0-2.58-.33-3.492-.99-.9-.66-1.41-1.56-1.53-2.7h2.502c.132.456.414.816.846 1.08.444.276.978.414 1.602.414.732 0 1.326-.222 1.782-.666.456-.432.684-1.092.684-1.98v-1.548c-.324.468-.774.858-1.35 1.17-.564.312-1.212.468-1.944.468-.84 0-1.608-.216-2.304-.648-.696-.432-1.248-1.038-1.656-1.818-.396-.792-.594-1.698-.594-2.718 0-1.008.198-1.902.594-2.682.408-.78.954-1.38 1.638-1.8.696-.42 1.47-.63 2.322-.63zm3.294 5.148c0-.612-.12-1.134-.36-1.566a2.463 2.463 0 00-.972-1.008 2.548 2.548 0 00-1.314-.36c-.468 0-.9.114-1.296.342-.396.228-.72.564-.972 1.008-.24.432-.36.948-.36 1.548 0 .6.12 1.128.36 1.584.252.444.576.786.972 1.026.408.24.84.36 1.296.36a2.65 2.65 0 001.314-.342c.408-.24.732-.576.972-1.008.24-.444.36-.972.36-1.584zm14.269-.216c0 .36-.024.684-.072.972h-7.29c.06.72.312 1.284.756 1.692.444.408.99.612 1.638.612.936 0 1.602-.402 1.998-1.206h2.718a4.588 4.588 0 01-1.656 2.376c-.816.612-1.818.918-3.006.918-.96 0-1.824-.21-2.592-.63a4.637 4.637 0 01-1.782-1.818c-.42-.78-.63-1.68-.63-2.7 0-1.032.21-1.938.63-2.718a4.396 4.396 0 011.764-1.8c.756-.42 1.626-.63 2.61-.63.948 0 1.794.204 2.538.612.756.408 1.338.99 1.746 1.746.42.744.63 1.602.63 2.574zm-2.61-.72c-.012-.648-.246-1.164-.702-1.548-.456-.396-1.014-.594-1.674-.594-.624 0-1.152.192-1.584.576-.42.372-.678.894-.774 1.566h4.734zm16.833-4.194c1.224 0 2.208.378 2.952 1.134.756.744 1.134 1.788 1.134 3.132V382h-2.52v-5.508c0-.78-.198-1.374-.594-1.782-.396-.42-.936-.63-1.62-.63s-1.23.21-1.638.63c-.396.408-.594 1.002-.594 1.782V382h-2.52v-5.508c0-.78-.198-1.374-.594-1.782-.396-.42-.936-.63-1.62-.63-.696 0-1.248.21-1.656.63-.396.408-.594 1.002-.594 1.782V382h-2.52v-9.972h2.52v1.206c.324-.42.738-.75 1.242-.99.516-.24 1.08-.36 1.692-.36.78 0 1.476.168 2.088.504a3.412 3.412 0 011.422 1.404 3.626 3.626 0 011.404-1.386 4.073 4.073 0 012.016-.522zm15.748 4.914c0 .36-.024.684-.072.972h-7.29c.06.72.312 1.284.756 1.692.444.408.99.612 1.638.612.936 0 1.602-.402 1.998-1.206h2.718a4.588 4.588 0 01-1.656 2.376c-.816.612-1.818.918-3.006.918-.96 0-1.824-.21-2.592-.63a4.637 4.637 0 01-1.782-1.818c-.42-.78-.63-1.68-.63-2.7 0-1.032.21-1.938.63-2.718a4.396 4.396 0 011.764-1.8c.756-.42 1.626-.63 2.61-.63.948 0 1.794.204 2.538.612.756.408 1.338.99 1.746 1.746.42.744.63 1.602.63 2.574zm-2.61-.72c-.012-.648-.246-1.164-.702-1.548-.456-.396-1.014-.594-1.674-.594-.624 0-1.152.192-1.584.576-.42.372-.678.894-.774 1.566h4.734zm9.975-4.194c1.188 0 2.148.378 2.88 1.134.732.744 1.098 1.788 1.098 3.132V382h-2.52v-5.508c0-.792-.198-1.398-.594-1.818-.396-.432-.936-.648-1.62-.648-.696 0-1.248.216-1.656.648-.396.42-.594 1.026-.594 1.818V382h-2.52v-9.972h2.52v1.242a3.417 3.417 0 011.278-1.008 3.96 3.96 0 011.728-.378zm9.308 2.214v4.824c0 .336.078.582.234.738.168.144.444.216.828.216h1.17V382h-1.584c-2.124 0-3.186-1.032-3.186-3.096v-4.806h-1.188v-2.07h1.188v-2.466h2.538v2.466h2.232v2.07h-2.232zm2.091-42.869l-16.92-29.308a1.815 1.815 0 00-1.6-.921c-.67 0-1.269.349-1.6.921l-16.92 29.308a1.847 1.847 0 000 1.85c.331.581.93.921 1.6.921h33.84a1.847 1.847 0 001.6-2.771zm-1.18 1.162a.484.484 0 01-.42.241h-33.84a.486.486 0 01-.42-.241.47.47 0 010-.483l16.92-29.299a.466.466 0 01.42-.241c.081 0 .295.026.42.241l16.92 29.299a.467.467 0 010 .483z" fill="#fff"/><path d="M465.768 312.959a.779.779 0 00-.778.778v10.252a.779.779 0 001.556 0v-10.252a.779.779 0 00-.778-.778zm0 13.586a.779.779 0 00-.778.778v.635a.778.778 0 001.556 0v-.626a.78.78 0 00-.778-.787z" fill="#fff"/><path d="M205.02 565.763c-6.204 6.203-10.152 14.849-10.152 24.436.188 19.172 15.604 34.585 34.592 34.585 7.708 0 15.04-2.632 20.868-6.767l1.692-1.316c5.076-3.195 11.468-2.819 15.98.94v75.186c0 8.27-6.768 15.037-15.04 15.037H48.04c-8.272 0-15.04-6.767-15.04-15.037V487.946c0-8.27 6.768-15.037 15.04-15.037h75.2c3.76-4.511 4.136-10.902.94-15.977l-1.316-1.692c-4.136-5.826-6.768-13.157-6.768-20.864 0-18.984 15.416-34.397 34.592-34.585 9.588 0 18.236 3.759 24.44 10.15 6.204 6.203 10.152 14.849 10.152 24.435 0 7.707-2.632 15.038-6.768 20.864l-1.128 1.692c-3.196 5.075-2.82 11.466.94 15.977h74.636c8.272 0 15.04 6.767 15.04 15.037v74.622c-4.512 3.759-10.904 4.135-15.98.94l-1.692-1.128c-5.828-4.135-13.16-6.767-20.868-6.767-9.588 0-18.236 3.759-24.44 10.15z" fill="#3371AA" stroke="#fff" stroke-width="5"/><path d="M56.634 572.436c1.32 0 2.478.258 3.474.774a5.446 5.446 0 012.322 2.214c.552.948.828 2.052.828 3.312 0 1.26-.276 2.364-.828 3.312-.54.936-1.314 1.662-2.322 2.178-.996.516-2.154.774-3.474.774h-4.392v-12.564h4.392zm-.09 10.422c1.32 0 2.34-.36 3.06-1.08.72-.72 1.08-1.734 1.08-3.042 0-1.308-.36-2.328-1.08-3.06-.72-.744-1.74-1.116-3.06-1.116h-1.782v8.298h1.782zm13.028 2.304c-.96 0-1.824-.21-2.592-.63a4.726 4.726 0 01-1.818-1.818c-.432-.78-.648-1.68-.648-2.7 0-1.02.222-1.92.666-2.7a4.69 4.69 0 011.854-1.8c.78-.432 1.65-.648 2.61-.648s1.83.216 2.61.648c.78.42 1.392 1.02 1.836 1.8.456.78.684 1.68.684 2.7 0 1.02-.234 1.92-.702 2.7a4.783 4.783 0 01-1.872 1.818c-.78.42-1.656.63-2.628.63zm0-2.196c.456 0 .882-.108 1.278-.324.408-.228.732-.564.972-1.008.24-.444.36-.984.36-1.62 0-.948-.252-1.674-.756-2.178a2.413 2.413 0 00-1.818-.774c-.72 0-1.326.258-1.818.774-.48.504-.72 1.23-.72 2.178s.234 1.68.702 2.196c.48.504 1.08.756 1.8.756zm6.403-2.952c0-1.032.21-1.932.63-2.7a4.428 4.428 0 011.746-1.8c.744-.432 1.596-.648 2.556-.648 1.236 0 2.256.312 3.06.936.816.612 1.362 1.476 1.638 2.592h-2.718a1.923 1.923 0 00-.738-1.008c-.336-.252-.756-.378-1.26-.378-.72 0-1.29.264-1.71.792-.42.516-.63 1.254-.63 2.214 0 .948.21 1.686.63 2.214.42.516.99.774 1.71.774 1.02 0 1.686-.456 1.998-1.368h2.718c-.276 1.08-.822 1.938-1.638 2.574-.816.636-1.836.954-3.06.954-.96 0-1.812-.21-2.556-.63a4.58 4.58 0 01-1.746-1.8c-.42-.78-.63-1.686-.63-2.718zm20.89-4.986V585h-2.538v-1.26c-.324.432-.75.774-1.278 1.026-.516.24-1.08.36-1.692.36-.78 0-1.47-.162-2.07-.486a3.619 3.619 0 01-1.422-1.458c-.336-.648-.504-1.416-.504-2.304v-5.85h2.52v5.49c0 .792.198 1.404.594 1.836.396.42.936.63 1.62.63.696 0 1.242-.21 1.638-.63.396-.432.594-1.044.594-1.836v-5.49h2.538zm14.87-.144c1.224 0 2.208.378 2.952 1.134.756.744 1.134 1.788 1.134 3.132V585h-2.52v-5.508c0-.78-.198-1.374-.594-1.782-.396-.42-.936-.63-1.62-.63s-1.23.21-1.638.63c-.396.408-.594 1.002-.594 1.782V585h-2.52v-5.508c0-.78-.198-1.374-.594-1.782-.396-.42-.936-.63-1.62-.63-.696 0-1.248.21-1.656.63-.396.408-.594 1.002-.594 1.782V585h-2.52v-9.972h2.52v1.206c.324-.42.738-.75 1.242-.99.516-.24 1.08-.36 1.692-.36.78 0 1.476.168 2.088.504a3.412 3.412 0 011.422 1.404 3.626 3.626 0 011.404-1.386 4.073 4.073 0 012.016-.522zm15.748 4.914c0 .36-.024.684-.072.972h-7.29c.06.72.312 1.284.756 1.692.444.408.99.612 1.638.612.936 0 1.602-.402 1.998-1.206h2.718a4.588 4.588 0 01-1.656 2.376c-.816.612-1.818.918-3.006.918-.96 0-1.824-.21-2.592-.63a4.637 4.637 0 01-1.782-1.818c-.42-.78-.63-1.68-.63-2.7 0-1.032.21-1.938.63-2.718a4.396 4.396 0 011.764-1.8c.756-.42 1.626-.63 2.61-.63.948 0 1.794.204 2.538.612.756.408 1.338.99 1.746 1.746.42.744.63 1.602.63 2.574zm-2.61-.72c-.012-.648-.246-1.164-.702-1.548-.456-.396-1.014-.594-1.674-.594-.624 0-1.152.192-1.584.576-.42.372-.678.894-.774 1.566h4.734zm9.975-4.194c1.188 0 2.148.378 2.88 1.134.732.744 1.098 1.788 1.098 3.132V585h-2.52v-5.508c0-.792-.198-1.398-.594-1.818-.396-.432-.936-.648-1.62-.648-.696 0-1.248.216-1.656.648-.396.42-.594 1.026-.594 1.818V585h-2.52v-9.972h2.52v1.242a3.417 3.417 0 011.278-1.008 3.96 3.96 0 011.728-.378zm9.308 2.214v4.824c0 .336.078.582.234.738.168.144.444.216.828.216h1.17V585h-1.584c-2.124 0-3.186-1.032-3.186-3.096v-4.806h-1.188v-2.07h1.188v-2.466h2.538v2.466h2.232v2.07h-2.232zM65.94 595.436V608h-2.52v-8.172L60.054 608h-1.908l-3.384-8.172V608h-2.52v-12.564h2.862l3.996 9.342 3.996-9.342h2.844zm1.844 7.542c0-1.008.197-1.902.593-2.682.409-.78.955-1.38 1.639-1.8.695-.42 1.47-.63 2.322-.63.744 0 1.392.15 1.944.45.564.3 1.014.678 1.35 1.134v-1.422h2.537V608h-2.537v-1.458c-.325.468-.775.858-1.35 1.17-.564.3-1.218.45-1.962.45-.84 0-1.608-.216-2.304-.648-.684-.432-1.23-1.038-1.639-1.818-.395-.792-.593-1.698-.593-2.718zm7.847.036c0-.612-.12-1.134-.36-1.566a2.463 2.463 0 00-.972-1.008 2.548 2.548 0 00-1.314-.36c-.468 0-.9.114-1.296.342a2.62 2.62 0 00-.971 1.008c-.24.432-.36.948-.36 1.548 0 .6.12 1.128.36 1.584.251.444.575.786.971 1.026.409.24.84.36 1.297.36a2.65 2.65 0 001.313-.342c.408-.24.732-.576.972-1.008.24-.444.36-.972.36-1.584zm10.526-5.13c1.188 0 2.148.378 2.88 1.134.732.744 1.098 1.788 1.098 3.132V608h-2.52v-5.508c0-.792-.198-1.398-.594-1.818-.396-.432-.936-.648-1.62-.648-.696 0-1.248.216-1.656.648-.396.42-.594 1.026-.594 1.818V608h-2.52v-9.972h2.52v1.242a3.417 3.417 0 011.278-1.008 3.96 3.96 0 011.728-.378zm5.726 5.094c0-1.008.198-1.902.594-2.682.408-.78.954-1.38 1.638-1.8.696-.42 1.47-.63 2.322-.63.744 0 1.392.15 1.944.45.564.3 1.014.678 1.35 1.134v-1.422h2.538V608h-2.538v-1.458c-.324.468-.774.858-1.35 1.17-.564.3-1.218.45-1.962.45-.84 0-1.608-.216-2.304-.648-.684-.432-1.23-1.038-1.638-1.818-.396-.792-.594-1.698-.594-2.718zm7.848.036c0-.612-.12-1.134-.36-1.566a2.463 2.463 0 00-.972-1.008 2.548 2.548 0 00-1.314-.36c-.468 0-.9.114-1.296.342-.396.228-.72.564-.972 1.008-.24.432-.36.948-.36 1.548 0 .6.12 1.128.36 1.584.252.444.576.786.972 1.026.408.24.84.36 1.296.36a2.65 2.65 0 001.314-.342c.408-.24.732-.576.972-1.008.24-.444.36-.972.36-1.584zm8.905-5.148c.744 0 1.398.15 1.962.45.564.288 1.008.666 1.332 1.134v-1.422h2.538v10.044c0 .924-.186 1.746-.558 2.466a4.075 4.075 0 01-1.674 1.728c-.744.432-1.644.648-2.7.648-1.416 0-2.58-.33-3.492-.99-.9-.66-1.41-1.56-1.53-2.7h2.502c.132.456.414.816.846 1.08.444.276.978.414 1.602.414.732 0 1.326-.222 1.782-.666.456-.432.684-1.092.684-1.98v-1.548c-.324.468-.774.858-1.35 1.17-.564.312-1.212.468-1.944.468-.84 0-1.608-.216-2.304-.648-.696-.432-1.248-1.038-1.656-1.818-.396-.792-.594-1.698-.594-2.718 0-1.008.198-1.902.594-2.682.408-.78.954-1.38 1.638-1.8.696-.42 1.47-.63 2.322-.63zm3.294 5.148c0-.612-.12-1.134-.36-1.566a2.463 2.463 0 00-.972-1.008 2.548 2.548 0 00-1.314-.36c-.468 0-.9.114-1.296.342-.396.228-.72.564-.972 1.008-.24.432-.36.948-.36 1.548 0 .6.12 1.128.36 1.584.252.444.576.786.972 1.026.408.24.84.36 1.296.36a2.65 2.65 0 001.314-.342c.408-.24.732-.576.972-1.008.24-.444.36-.972.36-1.584zm14.27-.216c0 .36-.024.684-.072.972h-7.29c.06.72.312 1.284.756 1.692.444.408.99.612 1.638.612.936 0 1.602-.402 1.998-1.206h2.718a4.588 4.588 0 01-1.656 2.376c-.816.612-1.818.918-3.006.918-.96 0-1.824-.21-2.592-.63a4.637 4.637 0 01-1.782-1.818c-.42-.78-.631-1.68-.631-2.7 0-1.032.211-1.938.631-2.718a4.396 4.396 0 011.764-1.8c.756-.42 1.626-.63 2.61-.63.948 0 1.794.204 2.538.612.756.408 1.338.99 1.746 1.746.42.744.63 1.602.63 2.574zm-2.61-.72c-.012-.648-.246-1.164-.702-1.548-.456-.396-1.014-.594-1.674-.594-.624 0-1.152.192-1.584.576-.42.372-.678.894-.774 1.566h4.734zm16.833-4.194c1.224 0 2.208.378 2.952 1.134.756.744 1.134 1.788 1.134 3.132V608h-2.52v-5.508c0-.78-.198-1.374-.594-1.782-.396-.42-.936-.63-1.62-.63s-1.23.21-1.638.63c-.396.408-.594 1.002-.594 1.782V608h-2.52v-5.508c0-.78-.198-1.374-.594-1.782-.396-.42-.936-.63-1.62-.63-.696 0-1.248.21-1.656.63-.396.408-.594 1.002-.594 1.782V608h-2.52v-9.972h2.52v1.206c.324-.42.738-.75 1.242-.99.516-.24 1.08-.36 1.692-.36.78 0 1.476.168 2.088.504a3.412 3.412 0 011.422 1.404 3.626 3.626 0 011.404-1.386 4.073 4.073 0 012.016-.522zm15.747 4.914c0 .36-.024.684-.072.972h-7.29c.06.72.312 1.284.756 1.692.444.408.99.612 1.638.612.936 0 1.602-.402 1.998-1.206h2.718a4.588 4.588 0 01-1.656 2.376c-.816.612-1.818.918-3.006.918-.96 0-1.824-.21-2.592-.63a4.637 4.637 0 01-1.782-1.818c-.42-.78-.63-1.68-.63-2.7 0-1.032.21-1.938.63-2.718a4.396 4.396 0 011.764-1.8c.756-.42 1.626-.63 2.61-.63.948 0 1.794.204 2.538.612.756.408 1.338.99 1.746 1.746.42.744.63 1.602.63 2.574zm-2.61-.72c-.012-.648-.246-1.164-.702-1.548-.456-.396-1.014-.594-1.674-.594-.624 0-1.152.192-1.584.576-.42.372-.678.894-.774 1.566h4.734zm9.976-4.194c1.188 0 2.148.378 2.88 1.134.732.744 1.098 1.788 1.098 3.132V608h-2.52v-5.508c0-.792-.198-1.398-.594-1.818-.396-.432-.936-.648-1.62-.648-.696 0-1.248.216-1.656.648-.396.42-.594 1.026-.594 1.818V608h-2.52v-9.972h2.52v1.242a3.417 3.417 0 011.278-1.008 3.96 3.96 0 011.728-.378zm9.308 2.214v4.824c0 .336.078.582.234.738.168.144.444.216.828.216h1.17V608h-1.584c-2.124 0-3.186-1.032-3.186-3.096v-4.806h-1.188v-2.07h1.188v-2.466h2.538v2.466h2.232v2.07h-2.232zm-87.929-61.615c-.009-.314-.243-.593-.594-.692a.32.32 0 00-.09-.018l-3.21-.369-.036-.108a18.627 18.627 0 00-1.331-3.013l-.054-.099 1.96-2.698a.66.66 0 00.135-.315.654.654 0 00-.18-.575l-3.471-3.364a.64.64 0 00-.567-.198.75.75 0 00-.315.126c-.009.009-.018.018-.026.018l-2.618 2.042-.108-.054c-1.142-.621-2.068-.998-3.003-1.232l-.117-.027-.459-3.229c0-.018-.009-.045-.009-.063-.08-.333-.342-.576-.63-.611-.026 0-.053-.009-.09 0l-4.757.089c-.315.009-.594.243-.693.594-.009.036-.018.063-.018.099l-.368 3.202-.108.036a18.92 18.92 0 00-3.022 1.331l-.1.054-2.607-1.952a.744.744 0 00-.36-.144.635.635 0 00-.54.18l-3.291 3.364a.641.641 0 00-.198.584.724.724 0 00.126.297c.009.009.018.027.027.036l2.041 2.59-.054.108c-.62 1.133-1.007 2.06-1.24 3.004l-.028.117-3.228.459c-.018 0-.045.009-.063.009-.324.081-.567.323-.612.611-.009.036-.009.072-.009.108l.09 4.74c.009.368.306.611.593.692a.323.323 0 00.1.018l3.21.369.036.108c.342 1.016.765 1.97 1.331 3.013l.054.099-1.96 2.698a.777.777 0 00-.135.306.622.622 0 00.18.575l3.471 3.373a.64.64 0 00.567.198.75.75 0 00.315-.126l.026-.027 2.6-2.033.108.054c1.142.621 2.068.998 3.003 1.232l.117.027.459 3.229c0 .018.009.045.009.063.09.36.387.612.71.612h4.578c.324 0 .603-.234.702-.594.009-.036.018-.063.018-.099l.368-3.202.108-.036a18.573 18.573 0 003.022-1.331l.1-.054 2.697 1.952a.772.772 0 00.342.144.653.653 0 00.549-.18l3.381-3.463a.615.615 0 00.19-.584.643.643 0 00-.127-.288c-.009-.009-.018-.027-.027-.036l-2.041-2.59.054-.108c.62-1.142 1.007-2.069 1.24-3.004l.028-.117 3.228-.459c.019 0 .046-.009.064-.009.323-.081.566-.323.611-.611.009-.036.009-.072.009-.108l-.063-4.74zm-4.425 4.749a.637.637 0 00-.521.468l-.135.53c-.207.828-.558 1.664-1.125 2.707l-.251.468a.643.643 0 00.054.692l1.987 2.528-2.662 2.725-2.644-1.907a.617.617 0 00-.666-.045l-.45.243c-.98.531-1.879.926-2.814 1.241l-.486.162a.622.622 0 00-.423.522l-.36 3.174h-3.633l-.468-3.246a.637.637 0 00-.467-.522l-.53-.135c-.837-.207-1.665-.557-2.708-1.124l-.468-.252a.644.644 0 00-.692.054l-2.536 1.988-2.734-2.653 1.915-2.636a.63.63 0 00.045-.674l-.243-.45c-.53-.971-.926-1.87-1.24-2.806l-.163-.485a.621.621 0 00-.521-.423l-3.193-.369-.099-3.777 3.238-.459a.637.637 0 00.522-.468l.134-.53c.207-.828.558-1.664 1.125-2.707l.26-.468a.643.643 0 00-.054-.692l-1.996-2.528 2.563-2.635 2.545 1.898a.614.614 0 00.675.045l.458-.252c.98-.531 1.88-.926 2.815-1.241l.486-.162a.622.622 0 00.423-.522l.368-3.183 3.814-.072.468 3.237a.637.637 0 00.467.522l.53.135c.837.207 1.674.548 2.708 1.124l.468.252a.644.644 0 00.692-.054l2.536-1.988 2.734 2.653-1.915 2.636a.63.63 0 00-.045.674l.243.45c.53.971.926 1.871 1.24 2.806l.163.485a.62.62 0 00.521.423l3.193.369.072 3.795-3.22.459z" fill="#fff"/><path d="M67.998 534.751a6.26 6.26 0 00-6.25 6.251 6.26 6.26 0 006.25 6.25 6.26 6.26 0 006.25-6.25 6.26 6.26 0 00-6.25-6.251zm0 11.242a4.997 4.997 0 01-4.992-4.991 4.998 4.998 0 014.992-4.992 4.998 4.998 0 014.991 4.992 4.997 4.997 0 01-4.991 4.991z" fill="#fff"/><path d="M503 18.037v204.881c0 8.27-6.768 15.037-15.04 15.037h-74.636c-3.76-4.511-4.136-10.902-.94-15.977l1.128-1.692c4.136-5.826 6.768-13.157 6.768-20.864 0-9.586-3.76-18.232-10.152-24.435-6.204-6.203-14.852-10.15-24.44-10.15-19.176.188-34.592 15.601-34.592 34.585 0 7.707 2.632 15.038 6.768 20.864l1.316 1.692c3.196 5.075 2.82 11.466-.94 15.977h-75.2c-8.272 0-15.04-6.767-15.04-15.037v-75.186c-4.512-3.759-10.904-4.135-15.98-.94l-1.692 1.316c-5.828 4.135-13.16 6.767-20.868 6.767-18.988 0-34.404-15.413-34.592-34.585 0-9.587 3.76-18.233 10.152-24.436 6.204-6.203 14.852-10.15 24.44-10.15 7.708 0 15.04 2.632 20.868 6.767l1.692 1.128c5.076 3.195 11.468 2.82 15.98-.94V18.037C268 9.767 274.768 3 283.04 3h204.92C496.232 3 503 9.767 503 18.037z" fill="#4DCDD7" stroke="#fff" stroke-width="5"/><path d="M330.28 108.556c.708.132 1.29.486 1.746 1.062.456.576.684 1.236.684 1.98 0 .672-.168 1.266-.504 1.782-.324.504-.798.9-1.422 1.188-.624.288-1.362.432-2.214.432h-5.418v-12.564h5.184c.852 0 1.584.138 2.196.414.624.276 1.092.66 1.404 1.152.324.492.486 1.05.486 1.674 0 .732-.198 1.344-.594 1.836-.384.492-.9.84-1.548 1.044zm-4.608-.936h2.304c.6 0 1.062-.132 1.386-.396.324-.276.486-.666.486-1.17 0-.504-.162-.894-.486-1.17-.324-.276-.786-.414-1.386-.414h-2.304v3.15zm2.538 5.328c.612 0 1.086-.144 1.422-.432.348-.288.522-.696.522-1.224 0-.54-.18-.96-.54-1.26-.36-.312-.846-.468-1.458-.468h-2.484v3.384h2.538zm9.029-10.512V115h-2.52v-12.564h2.52zm16.187 0V115h-2.52v-8.172L347.54 115h-1.908l-3.384-8.172V115h-2.52v-12.564h2.862l3.996 9.342 3.996-9.342h2.844zm6.169 6.264c0-1.236.276-2.34.828-3.312a5.976 5.976 0 012.286-2.286c.972-.552 2.058-.828 3.258-.828 1.404 0 2.634.36 3.69 1.08 1.056.72 1.794 1.716 2.214 2.988h-2.898c-.288-.6-.696-1.05-1.224-1.35-.516-.3-1.116-.45-1.8-.45-.732 0-1.386.174-1.962.522a3.519 3.519 0 00-1.332 1.44c-.312.624-.468 1.356-.468 2.196 0 .828.156 1.56.468 2.196.324.624.768 1.11 1.332 1.458.576.336 1.23.504 1.962.504.684 0 1.284-.15 1.8-.45.528-.312.936-.768 1.224-1.368h2.898c-.42 1.284-1.158 2.286-2.214 3.006-1.044.708-2.274 1.062-3.69 1.062-1.2 0-2.286-.27-3.258-.81a6.146 6.146 0 01-2.286-2.286c-.552-.972-.828-2.076-.828-3.312zm18.856 6.462c-.96 0-1.824-.21-2.592-.63a4.726 4.726 0 01-1.818-1.818c-.432-.78-.648-1.68-.648-2.7 0-1.02.222-1.92.666-2.7a4.69 4.69 0 011.854-1.8c.78-.432 1.65-.648 2.61-.648s1.83.216 2.61.648c.78.42 1.392 1.02 1.836 1.8.456.78.684 1.68.684 2.7 0 1.02-.234 1.92-.702 2.7a4.783 4.783 0 01-1.872 1.818c-.78.42-1.656.63-2.628.63zm0-2.196c.456 0 .882-.108 1.278-.324.408-.228.732-.564.972-1.008.24-.444.36-.984.36-1.62 0-.948-.252-1.674-.756-2.178a2.413 2.413 0 00-1.818-.774c-.72 0-1.326.258-1.818.774-.48.504-.72 1.23-.72 2.178s.234 1.68.702 2.196c.48.504 1.08.756 1.8.756zm9.571-11.286V115h-2.52v-13.32h2.52zm5.01 0V115h-2.52v-13.32h2.52zm1.841 8.298c0-1.008.198-1.902.594-2.682.408-.78.954-1.38 1.638-1.8.696-.42 1.47-.63 2.322-.63.744 0 1.392.15 1.944.45.564.3 1.014.678 1.35 1.134v-1.422h2.538V115h-2.538v-1.458c-.324.468-.774.858-1.35 1.17-.564.3-1.218.45-1.962.45-.84 0-1.608-.216-2.304-.648-.684-.432-1.23-1.038-1.638-1.818-.396-.792-.594-1.698-.594-2.718zm7.848.036c0-.612-.12-1.134-.36-1.566a2.463 2.463 0 00-.972-1.008 2.548 2.548 0 00-1.314-.36c-.468 0-.9.114-1.296.342-.396.228-.72.564-.972 1.008-.24.432-.36.948-.36 1.548 0 .6.12 1.128.36 1.584.252.444.576.786.972 1.026.408.24.84.36 1.296.36a2.65 2.65 0 001.314-.342c.408-.24.732-.576.972-1.008.24-.444.36-.972.36-1.584zm7.52-3.528a3.62 3.62 0 011.332-1.17c.576-.3 1.23-.45 1.962-.45.852 0 1.62.21 2.304.63.696.42 1.242 1.02 1.638 1.8.408.768.612 1.662.612 2.682s-.204 1.926-.612 2.718c-.396.78-.942 1.386-1.638 1.818a4.225 4.225 0 01-2.304.648c-.744 0-1.398-.144-1.962-.432a3.9 3.9 0 01-1.332-1.152V115h-2.52v-13.32h2.52v4.806zm5.274 3.492c0-.6-.126-1.116-.378-1.548a2.463 2.463 0 00-.972-1.008 2.552 2.552 0 00-1.296-.342c-.456 0-.888.12-1.296.36-.396.228-.72.564-.972 1.008-.24.444-.36.966-.36 1.566 0 .6.12 1.122.36 1.566.252.444.576.786.972 1.026.408.228.84.342 1.296.342.468 0 .9-.12 1.296-.36.408-.24.732-.582.972-1.026.252-.444.378-.972.378-1.584zm8.833 5.184c-.96 0-1.824-.21-2.592-.63a4.726 4.726 0 01-1.818-1.818c-.432-.78-.648-1.68-.648-2.7 0-1.02.222-1.92.666-2.7a4.69 4.69 0 011.854-1.8c.78-.432 1.65-.648 2.61-.648s1.83.216 2.61.648c.78.42 1.392 1.02 1.836 1.8.456.78.684 1.68.684 2.7 0 1.02-.234 1.92-.702 2.7a4.783 4.783 0 01-1.872 1.818c-.78.42-1.656.63-2.628.63zm0-2.196c.456 0 .882-.108 1.278-.324.408-.228.732-.564.972-1.008.24-.444.36-.984.36-1.62 0-.948-.252-1.674-.756-2.178a2.413 2.413 0 00-1.818-.774c-.72 0-1.326.258-1.818.774-.48.504-.72 1.23-.72 2.178s.234 1.68.702 2.196c.48.504 1.08.756 1.8.756zm9.57-6.39a3.567 3.567 0 011.26-1.242c.528-.3 1.128-.45 1.8-.45v2.646h-.666c-.792 0-1.392.186-1.8.558-.396.372-.594 1.02-.594 1.944V115h-2.52v-9.972h2.52v1.548zm4.11 3.402c0-1.008.198-1.902.594-2.682.408-.78.954-1.38 1.638-1.8.696-.42 1.47-.63 2.322-.63.744 0 1.392.15 1.944.45.564.3 1.014.678 1.35 1.134v-1.422h2.538V115h-2.538v-1.458c-.324.468-.774.858-1.35 1.17-.564.3-1.218.45-1.962.45-.84 0-1.608-.216-2.304-.648-.684-.432-1.23-1.038-1.638-1.818-.396-.792-.594-1.698-.594-2.718zm7.848.036c0-.612-.12-1.134-.36-1.566a2.463 2.463 0 00-.972-1.008 2.548 2.548 0 00-1.314-.36c-.468 0-.9.114-1.296.342-.396.228-.72.564-.972 1.008-.24.432-.36.948-.36 1.548 0 .6.12 1.128.36 1.584.252.444.576.786.972 1.026.408.24.84.36 1.296.36a2.65 2.65 0 001.314-.342c.408-.24.732-.576.972-1.008.24-.444.36-.972.36-1.584zm7.933-2.916v4.824c0 .336.078.582.234.738.168.144.444.216.828.216h1.17V115h-1.584c-2.124 0-3.186-1.032-3.186-3.096v-4.806h-1.188v-2.07h1.188v-2.466h2.538v2.466h2.232v2.07h-2.232zm5.322-3.258c-.444 0-.816-.138-1.116-.414a1.444 1.444 0 01-.432-1.062c0-.42.144-.768.432-1.044.3-.288.672-.432 1.116-.432.444 0 .81.144 1.098.432.3.276.45.624.45 1.044 0 .42-.15.774-.45 1.062-.288.276-.654.414-1.098.414zm1.242 1.188V115h-2.52v-9.972h2.52zm6.918 10.134c-.96 0-1.824-.21-2.592-.63a4.726 4.726 0 01-1.818-1.818c-.432-.78-.648-1.68-.648-2.7 0-1.02.222-1.92.666-2.7a4.69 4.69 0 011.854-1.8c.78-.432 1.65-.648 2.61-.648s1.83.216 2.61.648c.78.42 1.392 1.02 1.836 1.8.456.78.684 1.68.684 2.7 0 1.02-.234 1.92-.702 2.7a4.783 4.783 0 01-1.872 1.818c-.78.42-1.656.63-2.628.63zm0-2.196c.456 0 .882-.108 1.278-.324.408-.228.732-.564.972-1.008.24-.444.36-.984.36-1.62 0-.948-.252-1.674-.756-2.178a2.413 2.413 0 00-1.818-.774c-.72 0-1.326.258-1.818.774-.48.504-.72 1.23-.72 2.178s.234 1.68.702 2.196c.48.504 1.08.756 1.8.756zm12.577-8.082c1.188 0 2.148.378 2.88 1.134.732.744 1.098 1.788 1.098 3.132V115h-2.52v-5.508c0-.792-.198-1.398-.594-1.818-.396-.432-.936-.648-1.62-.648-.696 0-1.248.216-1.656.648-.396.42-.594 1.026-.594 1.818V115h-2.52v-9.972h2.52v1.242a3.417 3.417 0 011.278-1.008 3.96 3.96 0 011.728-.378zm-63.425 24.44c0 .672-.162 1.302-.486 1.89-.312.588-.81 1.062-1.494 1.422-.672.36-1.524.54-2.556.54h-2.106V138h-2.52v-12.564h4.626c.972 0 1.8.168 2.484.504.684.336 1.194.798 1.53 1.386.348.588.522 1.254.522 1.998zm-4.644 1.818c.696 0 1.212-.156 1.548-.468.336-.324.504-.774.504-1.35 0-1.224-.684-1.836-2.052-1.836h-1.998v3.654h1.998zm8.953-6.462V138h-2.52v-13.32h2.52zm1.842 8.298c0-1.008.198-1.902.594-2.682.408-.78.954-1.38 1.638-1.8.696-.42 1.47-.63 2.322-.63.744 0 1.392.15 1.944.45.564.3 1.014.678 1.35 1.134v-1.422h2.538V138h-2.538v-1.458c-.324.468-.774.858-1.35 1.17-.564.3-1.218.45-1.962.45-.84 0-1.608-.216-2.304-.648-.684-.432-1.23-1.038-1.638-1.818-.396-.792-.594-1.698-.594-2.718zm7.848.036c0-.612-.12-1.134-.36-1.566a2.463 2.463 0 00-.972-1.008 2.548 2.548 0 00-1.314-.36c-.468 0-.9.114-1.296.342-.396.228-.72.564-.972 1.008-.24.432-.36.948-.36 1.548 0 .6.12 1.128.36 1.584.252.444.576.786.972 1.026.408.24.84.36 1.296.36a2.65 2.65 0 001.314-.342c.408-.24.732-.576.972-1.008.24-.444.36-.972.36-1.584zm7.933-2.916v4.824c0 .336.078.582.234.738.168.144.444.216.828.216h1.17V138h-1.584c-2.124 0-3.186-1.032-3.186-3.096v-4.806h-1.188v-2.07h1.188v-2.466h2.538v2.466h2.232v2.07h-2.232zm8.617 0h-1.746V138h-2.556v-7.902h-1.134v-2.07h1.134v-.504c0-1.224.348-2.124 1.044-2.7.696-.576 1.746-.846 3.15-.81v2.124c-.612-.012-1.038.09-1.278.306s-.36.606-.36 1.17v.414h1.746v2.07zm6.061 8.064c-.96 0-1.824-.21-2.592-.63a4.726 4.726 0 01-1.818-1.818c-.432-.78-.648-1.68-.648-2.7 0-1.02.222-1.92.666-2.7a4.69 4.69 0 011.854-1.8c.78-.432 1.65-.648 2.61-.648s1.83.216 2.61.648c.78.42 1.392 1.02 1.836 1.8.456.78.684 1.68.684 2.7 0 1.02-.234 1.92-.702 2.7a4.783 4.783 0 01-1.872 1.818c-.78.42-1.656.63-2.628.63zm0-2.196c.456 0 .882-.108 1.278-.324.408-.228.732-.564.972-1.008.24-.444.36-.984.36-1.62 0-.948-.252-1.674-.756-2.178a2.413 2.413 0 00-1.818-.774c-.72 0-1.326.258-1.818.774-.48.504-.72 1.23-.72 2.178s.234 1.68.702 2.196c.48.504 1.08.756 1.8.756zm9.57-6.39a3.567 3.567 0 011.26-1.242c.528-.3 1.128-.45 1.8-.45v2.646h-.666c-.792 0-1.392.186-1.8.558-.396.372-.594 1.02-.594 1.944V138h-2.52v-9.972h2.52v1.548zm17.142-1.692c1.224 0 2.208.378 2.952 1.134.756.744 1.134 1.788 1.134 3.132V138h-2.52v-5.508c0-.78-.198-1.374-.594-1.782-.396-.42-.936-.63-1.62-.63s-1.23.21-1.638.63c-.396.408-.594 1.002-.594 1.782V138h-2.52v-5.508c0-.78-.198-1.374-.594-1.782-.396-.42-.936-.63-1.62-.63-.696 0-1.248.21-1.656.63-.396.408-.594 1.002-.594 1.782V138h-2.52v-9.972h2.52v1.206c.324-.42.738-.75 1.242-.99.516-.24 1.08-.36 1.692-.36.78 0 1.476.168 2.088.504a3.412 3.412 0 011.422 1.404 3.626 3.626 0 011.404-1.386 4.073 4.073 0 012.016-.522zm5.41-64.153a4.595 4.595 0 00-7.056-3.877A14.903 14.903 0 00468.091 56a14.909 14.909 0 00-10.027 3.862 4.55 4.55 0 00-2.471-.723A4.595 4.595 0 00451 63.73a4.6 4.6 0 002.447 4.06 15.162 15.162 0 00-.341 3.195c0 6.666 4.37 12.324 10.401 14.27v.151A4.595 4.595 0 00468.099 90a4.595 4.595 0 004.593-4.593v-.15c6.023-1.94 10.401-7.605 10.401-14.271 0-1.097-.119-2.17-.342-3.202a4.595 4.595 0 002.424-4.053zm-3.774 3.37a3.467 3.467 0 01-4.275-3.37c0-.913.357-1.748.937-2.368.263-.278.564-.508.898-.69a3.467 3.467 0 015.093 3.06 3.483 3.483 0 01-1.605 2.922 3.59 3.59 0 01-1.048.445zm-25.8-6.826a3.469 3.469 0 012.534 1.104c.58.62.93 1.446.93 2.36a3.467 3.467 0 01-4.267 3.37 3.371 3.371 0 01-1.041-.438 3.463 3.463 0 01-1.613-2.924 3.453 3.453 0 013.457-3.472zm12.498 28.597a3.465 3.465 0 01-3.456-3.298c0-.055-.008-.103-.008-.159 0-.333.048-.66.135-.97a3.468 3.468 0 013.321-2.494 3.46 3.46 0 013.457 3.464c0 .056 0 .111-.008.16a3.44 3.44 0 01-3.441 3.297zm13.858-17.878c0 6.102-3.965 11.29-9.448 13.142a4.597 4.597 0 00-4.41-3.305 4.6 4.6 0 00-4.41 3.305c-5.49-1.843-9.447-7.04-9.447-13.142 0-.954.095-1.891.286-2.797a4.595 4.595 0 004.426-7.604 13.798 13.798 0 019.153-3.465 13.77 13.77 0 019.146 3.457 4.585 4.585 0 00-1.248 3.146 4.595 4.595 0 004.593 4.593 4.93 4.93 0 001.089-.127c.166.898.27 1.835.27 2.797z" fill="#fff"/><g filter="url(#filter0_d)"><path d="M341.132 355.29c-.188 19.172-15.604 34.585-34.592 34.585-7.708 0-15.04-2.632-20.868-6.767l-1.692-1.316c-5.076-3.195-11.468-2.819-15.98.94v75.186c0 8.27-6.768 15.037-15.04 15.037h-74.636c-3.76-4.511-4.136-10.902-.94-15.977l1.128-1.692c4.136-5.826 6.768-13.157 6.768-20.864 0-9.586-3.76-18.232-10.152-24.435-6.204-6.203-14.852-10.15-24.44-10.15-19.176.188-34.592 15.601-34.592 34.585 0 7.707 2.632 15.038 6.768 20.864l1.316 1.692c3.196 5.075 2.82 11.466-.94 15.977h-75.2c-8.272 0-15.04-6.767-15.04-15.037V253.037C33 244.767 39.768 238 48.04 238h75.2c3.76 4.511 4.136 10.902.94 15.977l-1.316 1.692c-4.136 5.826-6.768 13.157-6.768 20.864 0 18.984 15.416 34.397 34.592 34.585 9.588 0 18.236-3.759 24.44-10.15 6.204-6.203 10.152-14.849 10.152-24.435 0-7.707-2.632-15.038-6.768-20.864l-1.128-1.692c-3.196-5.075-2.82-11.466.94-15.977h74.636c8.272 0 15.04 6.767 15.04 15.037v74.622c4.512 3.759 10.904 4.135 15.98.94l1.692-1.128c5.828-4.135 13.16-6.767 20.868-6.767 9.588 0 18.236 3.759 24.44 10.15 6.392 6.203 10.152 14.849 10.152 24.436z" fill="#fff"/><path d="M341.132 355.29c-.188 19.172-15.604 34.585-34.592 34.585-7.708 0-15.04-2.632-20.868-6.767l-1.692-1.316c-5.076-3.195-11.468-2.819-15.98.94v75.186c0 8.27-6.768 15.037-15.04 15.037h-74.636c-3.76-4.511-4.136-10.902-.94-15.977l1.128-1.692c4.136-5.826 6.768-13.157 6.768-20.864 0-9.586-3.76-18.232-10.152-24.435-6.204-6.203-14.852-10.15-24.44-10.15-19.176.188-34.592 15.601-34.592 34.585 0 7.707 2.632 15.038 6.768 20.864l1.316 1.692c3.196 5.075 2.82 11.466-.94 15.977h-75.2c-8.272 0-15.04-6.767-15.04-15.037V253.037C33 244.767 39.768 238 48.04 238h75.2c3.76 4.511 4.136 10.902.94 15.977l-1.316 1.692c-4.136 5.826-6.768 13.157-6.768 20.864 0 18.984 15.416 34.397 34.592 34.585 9.588 0 18.236-3.759 24.44-10.15 6.204-6.203 10.152-14.849 10.152-24.435 0-7.707-2.632-15.038-6.768-20.864l-1.128-1.692c-3.196-5.075-2.82-11.466.94-15.977h74.636c8.272 0 15.04 6.767 15.04 15.037v74.622c4.512 3.759 10.904 4.135 15.98.94l1.692-1.128c5.828-4.135 13.16-6.767 20.868-6.767 9.588 0 18.236 3.759 24.44 10.15 6.392 6.203 10.152 14.849 10.152 24.436z" stroke="#fff" stroke-width="5"/></g><path fill-rule="evenodd" clip-rule="evenodd" d="M113.633 348.371l3.51 10.869 3.51-10.869h3.713l-4.991 14.446h-4.484l-4.971-14.446h3.713zm18.758 14.446h3.21v-14.446h-3.21v14.446zm22.256-1.283c-.414.688-1.025 1.236-1.831 1.646-.808.41-1.786.615-2.934.615-1.73 0-3.155-.424-4.274-1.274-1.121-.847-1.731-2.033-1.833-3.555h3.97c.058.586.265 1.047.621 1.382.357.338.811.506 1.363.506.48 0 .859-.132 1.135-.396.275-.263.414-.614.414-1.053a1.37 1.37 0 00-.381-.988 3.01 3.01 0 00-.95-.647 21.62 21.62 0 00-1.57-.604c-.974-.335-1.77-.661-2.388-.976-.618-.314-1.148-.783-1.592-1.406-.443-.621-.666-1.43-.666-2.424 0-.922.233-1.72.699-2.392.465-.673 1.108-1.189 1.93-1.548.821-.359 1.763-.538 2.824-.538 1.716 0 3.078.41 4.089 1.229 1.011.82 1.582 1.947 1.712 3.381h-4.034c-.073-.513-.259-.919-.556-1.218-.299-.301-.702-.45-1.211-.45-.436 0-.789.117-1.058.35-.269.235-.403.579-.403 1.032 0 .366.121.678.359.933.241.257.542.465.906.626.363.16.887.366 1.57.613.989.337 1.796.67 2.421 1 .625.329 1.163.808 1.614 1.437.451.629.676 1.449.676 2.458 0 .82-.207 1.574-.622 2.261zm12.846-8.966c-.719.798-1.079 1.885-1.079 3.26 0 1.361.36 2.444 1.079 3.248.72.805 1.69 1.207 2.912 1.207 1.206 0 2.173-.402 2.9-1.207.727-.804 1.09-1.887 1.09-3.248 0-1.361-.359-2.444-1.079-3.248-.72-.804-1.691-1.207-2.911-1.207-1.222 0-2.192.398-2.912 1.195zm6.869-3.664a7.394 7.394 0 012.803 2.831c.683 1.207 1.026 2.572 1.026 4.093 0 1.522-.346 2.889-1.036 4.104a7.461 7.461 0 01-2.815 2.842c-1.184.681-2.496 1.021-3.936 1.021-1.439 0-2.752-.34-3.937-1.021a7.47 7.47 0 01-2.813-2.842c-.69-1.215-1.036-2.582-1.036-4.104 0-1.521.346-2.886 1.036-4.093a7.49 7.49 0 012.813-2.831c1.185-.681 2.498-1.022 3.937-1.022 1.454 0 2.774.341 3.958 1.022zm13.577 8.286v6.452h-1.548v-15.473h4.601c1.73 0 3.021.403 3.872 1.207.85.804 1.275 1.91 1.275 3.315 0 1.433-.44 2.542-1.319 3.324-.88.784-2.156 1.175-3.828 1.175h-3.053zm5.779-2.14c.581-.548.872-1.336.872-2.359 0-1.054-.291-1.855-.872-2.404-.582-.549-1.534-.823-2.857-.823h-2.922v6.409h2.922c1.323 0 2.275-.274 2.857-.823zm12.126 7.363h5.583v1.23h-7.132v-15.475h1.549v14.245zm21.831-3.778l-3.032-8.341-3.074 8.341h6.106zm.458 1.237h-7.001l-1.396 3.774h-1.635l5.67-15.122h1.723l5.67 15.122h-1.657l-1.374-3.774zm22.42 3.769h-1.549l-8.418-12.928v12.928h-1.549v-15.452h1.549l8.418 12.95v-12.95h1.549v15.452z" fill="#252626"/><path fill-rule="evenodd" clip-rule="evenodd" d="M57.298 348.81l-10.85 18.429h21.7l-10.85-18.429z" fill="#004D95"/><path fill-rule="evenodd" clip-rule="evenodd" d="M70.911 357.428L60.061 339h21.7l-10.85 18.428z" fill="#00B8C6"/><path fill-rule="evenodd" clip-rule="evenodd" d="M85.223 348.81l-10.85 18.429h21.7l-10.85-18.429z" fill="#AA007B"/><defs><filter id="filter0_d" x=".5" y="210.5" width="393.132" height="319.955" filterUnits="userSpaceOnUse" color-interpolation-filters="sRGB"><feFlood flood-opacity="0" result="BackgroundImageFix"/><feColorMatrix in="SourceAlpha" values="0 0 0 0 0 0 0 0 0 0 0 0 0 0 0 0 0 0 127 0"/><feOffset dx="10" dy="15"/><feGaussianBlur stdDeviation="20"/><feColorMatrix values="0 0 0 0 0 0 0 0 0 0 0 0 0 0 0 0 0 0 0.35 0"/><feBlend in2="BackgroundImageFix" result="effect1_dropShadow"/><feBlend in="SourceGraphic" in2="effect1_dropShadow" result="shape"/></filter></defs></svg>